<svg width="675" height="88" viewBox="0 0 675 88" fill="none" xmlns="http://www.w3.org/2000/svg">
<path fill-rule="evenodd" clip-rule="evenodd" d="M173.531 48.7646C175.896 48.7646 178.028 49.2229 179.899 50.1699C181.796 51.1183 183.307 52.4883 184.41 54.2686L184.866 55.0049L178.803 60.0967L178.208 59.0566C177.718 58.1987 177.122 57.5498 176.424 57.085L176.118 56.8975L176.095 56.8838C175.287 56.3954 174.341 56.1377 173.224 56.1377C172.378 56.1377 171.594 56.3043 170.859 56.6328C170.117 56.9652 169.46 57.433 168.888 58.0449C168.338 58.6343 167.901 59.3267 167.58 60.1299C167.264 60.9191 167.104 61.7628 167.104 62.668L167.115 63.0469C167.166 63.9144 167.395 64.6881 167.791 65.3828C168.273 66.1884 168.909 66.8144 169.711 67.2734C170.528 67.7284 171.463 67.9658 172.539 67.9658C173.488 67.9658 174.395 67.7688 175.268 67.373C176.171 66.951 177.032 66.331 177.847 65.4951L178.633 64.6895L183.079 70.1875L182.466 70.8242C181.111 72.228 179.468 73.3394 177.555 74.1631L177.55 74.165C175.657 74.9656 173.745 75.374 171.82 75.374C170.169 75.374 168.61 75.1047 167.15 74.5586L166.86 74.4453L166.851 74.4414L166.842 74.4375C165.529 73.8778 164.343 73.1371 163.289 72.2158L162.846 71.8105L162.83 71.7949C161.834 70.7984 161.025 69.6673 160.408 68.4062L160.155 67.8574L160.153 67.8516C159.504 66.329 159.183 64.6998 159.183 62.9756C159.183 61.022 159.551 59.176 160.291 57.4482L160.296 57.4365C161.052 55.7294 162.08 54.223 163.378 52.9248L163.385 52.918C164.706 51.6213 166.225 50.6051 167.936 49.8721L167.94 49.8701C169.69 49.131 171.556 48.7647 173.531 48.7646ZM173.531 49.7646C171.683 49.7647 169.949 50.1065 168.329 50.791C166.732 51.4756 165.317 52.4225 164.085 53.6318C162.876 54.8411 161.917 56.2447 161.21 57.8418C160.526 59.4389 160.183 61.1504 160.183 62.9756C160.183 64.5727 160.48 66.0682 161.073 67.46C161.666 68.8287 162.488 70.0385 163.537 71.0879C164.61 72.1146 165.843 72.9244 167.234 73.5176C168.472 74.0167 169.797 74.298 171.21 74.3604L171.82 74.374C173.489 74.374 175.158 74.0426 176.826 73.3809L177.16 73.2441C178.962 72.4684 180.491 71.4302 181.746 70.1299L178.563 66.1934C177.674 67.1059 176.715 67.8021 175.688 68.2812C174.685 68.7376 173.634 68.9658 172.539 68.9658L172.083 68.9531C171.182 68.9018 170.352 68.6963 169.593 68.3369L169.219 68.1445C168.261 67.597 167.496 66.8429 166.926 65.8848C166.447 65.0464 166.177 64.1204 166.117 63.1074L166.104 62.668C166.104 61.7697 166.244 60.9145 166.523 60.1035L166.652 59.7588C167.017 58.8462 167.519 58.0468 168.158 57.3623C168.82 56.6551 169.584 56.1076 170.451 55.7197C171.318 55.3318 172.242 55.1377 173.224 55.1377C174.501 55.1377 175.631 55.4341 176.612 56.0273C177.616 56.5978 178.437 57.4426 179.076 58.5605L183.561 54.7959C182.557 53.1759 181.187 51.9315 179.453 51.0645C177.849 50.2516 176.014 49.8204 173.948 49.7695L173.531 49.7646Z" fill="white" fill-opacity="0.08"/>
<path fill-rule="evenodd" clip-rule="evenodd" d="M196.823 55.0352C198.01 55.0352 199.06 55.3088 199.973 55.8564C200.908 56.404 201.638 57.1571 202.163 58.1152C202.688 59.0507 202.95 60.1238 202.95 61.333L202.941 61.7236C202.901 62.6295 202.722 63.492 202.402 64.3105C202.037 65.2231 201.524 66.034 200.862 66.7412C200.201 67.4255 199.436 67.9618 198.569 68.3496C197.725 68.7374 196.801 68.9316 195.797 68.9316L195.357 68.9189C194.491 68.8676 193.695 68.6621 192.97 68.3027L192.613 68.1104C191.701 67.5628 190.982 66.8201 190.457 65.8848C189.998 65.0464 189.74 64.1115 189.683 63.0811L189.67 62.6338C189.67 61.7154 189.809 60.8487 190.089 60.0352L190.218 59.6904C190.537 58.8719 190.97 58.1488 191.517 57.5225L191.758 57.2598C192.337 56.6409 192.994 56.1439 193.73 55.7695L194.051 55.6172C194.918 55.2293 195.842 55.0352 196.823 55.0352ZM196.823 56.0352C195.978 56.0352 195.193 56.2018 194.459 56.5303C193.716 56.8627 193.061 57.3314 192.488 57.9434L192.477 57.9551C191.912 58.5391 191.469 59.235 191.149 60.0537L191.146 60.0615C190.832 60.8482 190.67 61.7028 190.67 62.6338L190.681 63.0244C190.73 63.9166 190.951 64.7024 191.329 65.3965C191.768 66.1792 192.363 66.7922 193.122 67.249C193.889 67.6972 194.772 67.9316 195.797 67.9316C196.668 67.9316 197.449 67.7642 198.151 67.4414L198.16 67.4365C198.906 67.1028 199.562 66.6436 200.133 66.0557C200.708 65.4409 201.154 64.7377 201.474 63.9395C201.789 63.1273 201.95 62.2608 201.95 61.333C201.95 60.4055 201.775 59.6005 201.442 58.8994L201.291 58.6045L201.286 58.5957C200.903 57.8952 200.393 57.3331 199.751 56.8984L199.467 56.7197L199.458 56.7139C198.718 56.2699 197.85 56.0352 196.823 56.0352Z" fill="white" fill-opacity="0.08"/>
<path fill-rule="evenodd" clip-rule="evenodd" d="M197.2 48.626C198.871 48.626 200.441 48.8959 201.903 49.4424L202.194 49.5557C203.718 50.1702 205.057 51.0342 206.2 52.1484C207.375 53.2486 208.276 54.5614 208.899 56.0752C209.551 57.5799 209.871 59.2114 209.871 60.9561C209.871 62.9329 209.491 64.8018 208.729 66.5518L208.729 66.5527C207.994 68.2683 206.951 69.7887 205.607 71.1094L205.608 71.1104C204.287 72.4321 202.755 73.4729 201.022 74.2295L201.012 74.2334C199.262 74.9726 197.395 75.3398 195.42 75.3398C193.75 75.3398 192.179 75.0708 190.717 74.5244L190.426 74.4111C188.901 73.7964 187.551 72.943 186.385 71.8516L186.377 71.8447L186.369 71.8369C185.369 70.858 184.559 69.7351 183.94 68.4746L183.687 67.9258L183.683 67.917L183.679 67.9072C183.055 66.3862 182.749 64.7495 182.749 63.0098C182.749 61.0352 183.115 59.1775 183.856 57.4482L183.859 57.4414C184.616 55.7088 185.656 54.1781 186.978 52.8564L186.984 52.8496C188.326 51.5321 189.866 50.5047 191.598 49.7715L191.927 49.6328C193.583 48.9607 195.344 48.626 197.2 48.626ZM197.2 49.627C195.352 49.627 193.617 49.9811 191.997 50.6885L191.695 50.8203C190.198 51.4941 188.861 52.4085 187.685 53.5635C186.453 54.7956 185.483 56.2219 184.775 57.8418C184.091 59.4388 183.749 61.1618 183.749 63.0098L183.762 63.6123C183.824 65.0048 184.105 66.3105 184.604 67.5283C185.198 68.8971 186.019 70.0954 187.068 71.1221C188.141 72.126 189.385 72.913 190.8 73.4834C192.038 73.9825 193.372 74.2638 194.802 74.3262L195.42 74.3398C197.153 74.3398 198.785 74.0381 200.317 73.4365L200.623 73.3125C202.243 72.6052 203.669 71.6353 204.901 70.4033C206.078 69.2482 207.004 67.932 207.679 66.4561L207.811 66.1592C208.518 64.5392 208.871 62.8041 208.871 60.9561C208.871 59.3363 208.575 57.8415 207.981 56.4727C207.411 55.081 206.59 53.8828 205.518 52.8789C204.599 51.9806 203.541 51.257 202.343 50.708L201.82 50.4834C200.582 49.9842 199.248 49.703 197.818 49.6406L197.2 49.627Z" fill="white" fill-opacity="0.08"/>
<path fill-rule="evenodd" clip-rule="evenodd" d="M99.4668 55.0352C100.288 55.0352 100.939 55.2634 101.418 55.7197C101.92 56.176 102.171 56.7928 102.171 57.5684L102.163 57.7715C102.131 58.2404 101.985 58.6751 101.726 59.0742C101.452 59.5075 101.063 59.861 100.562 60.1348C100.082 60.3856 99.5235 60.5117 98.8848 60.5117H92.8604L94.0244 55.0352H99.4668ZM94.0957 59.5117H98.8848C99.3871 59.5117 99.7789 59.4131 100.09 59.252C100.456 59.051 100.708 58.8116 100.88 58.54L100.887 58.5293C101.077 58.2364 101.171 57.9234 101.171 57.5684C101.171 57.0973 101.046 56.7843 100.839 56.5537L100.745 56.46L100.728 56.4443C100.508 56.2353 100.19 56.0787 99.6914 56.043L99.4668 56.0352H94.835L94.0957 59.5117Z" fill="white" fill-opacity="0.08"/>
<path fill-rule="evenodd" clip-rule="evenodd" d="M100.493 49.0039C102.137 49.0039 103.622 49.3408 104.912 50.0518C106.2 50.7258 107.219 51.68 107.952 52.9062C108.698 54.1325 109.058 55.5386 109.058 57.0889L109.052 57.4092C108.997 59.0007 108.535 60.4713 107.668 61.8008L107.669 61.8018C106.776 63.2053 105.564 64.3228 104.056 65.1523L104.044 65.1592C102.518 65.9731 100.825 66.3721 98.9873 66.3721H92.6104L90.7969 74.9629H83L88.5254 49.0039H100.493ZM89.335 50.0039L84.2354 73.9629H89.9854L91.7998 65.3721H98.9873L99.3018 65.3672C100.866 65.3244 102.291 64.9609 103.574 64.2764C104.857 63.5706 105.89 62.6438 106.672 61.4971L106.825 61.2646C107.595 60.0883 108.005 58.791 108.053 57.374L108.058 57.0889C108.058 55.6973 107.738 54.4762 107.1 53.4268C106.501 52.4214 105.681 51.6262 104.641 51.042L104.43 50.9277C103.451 50.3886 102.324 50.0859 101.049 50.0186L100.493 50.0039H89.335Z" fill="white" fill-opacity="0.08"/>
<path fill-rule="evenodd" clip-rule="evenodd" d="M114.093 74.9629H106.298L111.823 49.0039H119.618L114.093 74.9629ZM107.532 73.9629H113.283L118.383 50.0039H112.633L107.532 73.9629Z" fill="white" fill-opacity="0.08"/>
<path fill-rule="evenodd" clip-rule="evenodd" d="M141.753 56.2061H134.123L130.118 74.9629H122.288L126.293 56.2061H118.588L120.151 49.0039H143.316L141.753 56.2061ZM119.828 55.2061H127.529L123.524 73.9629H129.309L133.313 55.2061H140.946L142.076 50.0039H120.958L119.828 55.2061Z" fill="white" fill-opacity="0.08"/>
<path fill-rule="evenodd" clip-rule="evenodd" d="M151.324 63.4893H145.608L150.058 55.8223L151.324 63.4893ZM147.345 62.4893H150.146L149.524 58.7314L147.345 62.4893Z" fill="white" fill-opacity="0.08"/>
<path fill-rule="evenodd" clip-rule="evenodd" d="M160.197 74.9629H152.188L151.229 69.1787H143.48L140.126 74.9629H131.471L147.306 49.0039H155.302L160.197 74.9629ZM133.252 73.9629H139.55L142.904 68.1787H152.077L153.035 73.9629H158.991L154.473 50.0039H147.867L133.252 73.9629Z" fill="white" fill-opacity="0.08"/>
<path fill-rule="evenodd" clip-rule="evenodd" d="M328.402 48.7646C330.767 48.7646 332.899 49.2229 334.771 50.1699C336.667 51.1183 338.178 52.4883 339.281 54.2686L339.737 55.0049L333.674 60.0967L333.079 59.0566C332.589 58.1987 331.993 57.5498 331.295 57.085L330.989 56.8975L330.966 56.8838C330.158 56.3954 329.212 56.1377 328.095 56.1377C327.25 56.1377 326.465 56.3043 325.73 56.6328C324.988 56.9652 324.331 57.433 323.759 58.0449C323.209 58.6343 322.772 59.3267 322.451 60.1299C322.136 60.9191 321.976 61.7628 321.976 62.668L321.986 63.0469C322.037 63.9144 322.266 64.6881 322.662 65.3828C323.144 66.1884 323.78 66.8144 324.582 67.2734C325.399 67.7284 326.334 67.9658 327.41 67.9658C328.359 67.9658 329.266 67.7688 330.139 67.373C331.042 66.951 331.903 66.331 332.718 65.4951L333.504 64.6895L337.95 70.1875L337.337 70.8242C335.982 72.228 334.34 73.3394 332.426 74.1631L332.421 74.165C330.529 74.9656 328.616 75.374 326.691 75.374C325.04 75.374 323.481 75.1047 322.021 74.5586L321.731 74.4453L321.722 74.4414L321.713 74.4375C320.4 73.8778 319.214 73.1371 318.16 72.2158L317.717 71.8105L317.701 71.7949C316.705 70.7984 315.896 69.6673 315.279 68.4062L315.026 67.8574L315.024 67.8516C314.375 66.329 314.054 64.6998 314.054 62.9756C314.054 61.022 314.422 59.176 315.162 57.4482L315.167 57.4365C315.923 55.7294 316.951 54.223 318.249 52.9248L318.256 52.918C319.577 51.6213 321.096 50.6051 322.807 49.8721L322.812 49.8701C324.561 49.131 326.428 48.7647 328.402 48.7646ZM328.402 49.7646C326.554 49.7647 324.82 50.1065 323.2 50.791C321.603 51.4756 320.188 52.4225 318.956 53.6318C317.747 54.8411 316.788 56.2447 316.081 57.8418C315.397 59.4389 315.054 61.1504 315.054 62.9756C315.054 64.5727 315.351 66.0682 315.944 67.46C316.538 68.8287 317.359 70.0385 318.408 71.0879C319.481 72.1146 320.714 72.9244 322.105 73.5176C323.343 74.0167 324.669 74.298 326.081 74.3604L326.691 74.374C328.36 74.374 330.029 74.0426 331.697 73.3809L332.031 73.2441C333.834 72.4684 335.362 71.4302 336.617 70.1299L333.435 66.1934C332.545 67.1059 331.586 67.8021 330.56 68.2812C329.556 68.7376 328.505 68.9658 327.41 68.9658L326.954 68.9531C326.054 68.9018 325.223 68.6963 324.464 68.3369L324.09 68.1445C323.132 67.597 322.367 66.8429 321.797 65.8848C321.318 65.0464 321.048 64.1204 320.988 63.1074L320.976 62.668C320.976 61.7697 321.115 60.9145 321.395 60.1035L321.523 59.7588C321.888 58.8462 322.391 58.0468 323.029 57.3623C323.691 56.6551 324.455 56.1076 325.322 55.7197C326.189 55.3318 327.114 55.1377 328.095 55.1377C329.372 55.1377 330.502 55.4341 331.483 56.0273C332.487 56.5978 333.308 57.4426 333.947 58.5605L338.432 54.7959C337.428 53.1759 336.058 51.9315 334.324 51.0645C332.72 50.2516 330.885 49.8204 328.819 49.7695L328.402 49.7646Z" fill="white" fill-opacity="0.08"/>
<path fill-rule="evenodd" clip-rule="evenodd" d="M351.694 55.0352C352.881 55.0352 353.931 55.3088 354.844 55.8564C355.779 56.404 356.509 57.1571 357.034 58.1152C357.559 59.0507 357.821 60.1238 357.821 61.333L357.812 61.7236C357.773 62.6295 357.593 63.492 357.273 64.3105C356.908 65.2231 356.395 66.034 355.733 66.7412C355.072 67.4255 354.307 67.9618 353.44 68.3496C352.596 68.7374 351.672 68.9316 350.668 68.9316L350.229 68.9189C349.362 68.8676 348.566 68.6621 347.841 68.3027L347.484 68.1104C346.572 67.5628 345.853 66.8201 345.328 65.8848C344.869 65.0464 344.611 64.1115 344.554 63.0811L344.541 62.6338C344.541 61.7154 344.68 60.8487 344.96 60.0352L345.089 59.6904C345.408 58.8719 345.841 58.1488 346.388 57.5225L346.629 57.2598C347.208 56.6409 347.865 56.1439 348.602 55.7695L348.922 55.6172C349.789 55.2293 350.713 55.0352 351.694 55.0352ZM351.694 56.0352C350.849 56.0352 350.064 56.2018 349.33 56.5303C348.587 56.8627 347.932 57.3314 347.359 57.9434L347.348 57.9551C346.783 58.5391 346.34 59.235 346.021 60.0537L346.018 60.0615C345.703 60.8482 345.541 61.7028 345.541 62.6338L345.552 63.0244C345.601 63.9166 345.822 64.7024 346.2 65.3965C346.639 66.1792 347.234 66.7922 347.993 67.249C348.76 67.6972 349.643 67.9316 350.668 67.9316C351.539 67.9316 352.32 67.7642 353.022 67.4414L353.031 67.4365C353.777 67.1028 354.433 66.6436 355.004 66.0557C355.579 65.4409 356.025 64.7377 356.345 63.9395C356.661 63.1273 356.821 62.2608 356.821 61.333C356.821 60.4055 356.646 59.6005 356.313 58.8994L356.162 58.6045L356.157 58.5957C355.774 57.8952 355.264 57.3331 354.622 56.8984L354.338 56.7197L354.329 56.7139C353.589 56.2699 352.721 56.0352 351.694 56.0352Z" fill="white" fill-opacity="0.08"/>
<path fill-rule="evenodd" clip-rule="evenodd" d="M352.071 48.626C353.742 48.626 355.312 48.8959 356.774 49.4424L357.065 49.5557C358.589 50.1702 359.928 51.0342 361.071 52.1484C362.246 53.2486 363.147 54.5614 363.771 56.0752C364.422 57.5799 364.742 59.2114 364.742 60.9561C364.742 62.9329 364.363 64.8018 363.6 66.5518L363.601 66.5527C362.865 68.2683 361.822 69.7887 360.479 71.1094L360.479 71.1104C359.158 72.4321 357.626 73.4729 355.894 74.2295L355.883 74.2334C354.133 74.9726 352.266 75.3398 350.291 75.3398C348.621 75.3398 347.05 75.0708 345.588 74.5244L345.297 74.4111C343.772 73.7964 342.422 72.943 341.256 71.8516L341.248 71.8447L341.24 71.8369C340.24 70.858 339.43 69.7351 338.812 68.4746L338.558 67.9258L338.554 67.917L338.55 67.9072C337.926 66.3862 337.62 64.7495 337.62 63.0098C337.62 61.0352 337.987 59.1775 338.728 57.4482L338.73 57.4414C339.487 55.7088 340.527 54.1781 341.849 52.8564L341.855 52.8496C343.197 51.5321 344.737 50.5047 346.469 49.7715L346.798 49.6328C348.454 48.9607 350.215 48.626 352.071 48.626ZM352.071 49.627C350.223 49.627 348.488 49.9811 346.868 50.6885L346.566 50.8203C345.069 51.4941 343.732 52.4085 342.556 53.5635C341.324 54.7956 340.354 56.2219 339.646 57.8418C338.962 59.4388 338.62 61.1618 338.62 63.0098L338.633 63.6123C338.695 65.0048 338.976 66.3105 339.476 67.5283C340.069 68.8971 340.89 70.0954 341.939 71.1221C343.012 72.126 344.256 72.913 345.671 73.4834C346.909 73.9825 348.243 74.2638 349.673 74.3262L350.291 74.3398C352.024 74.3398 353.656 74.0381 355.188 73.4365L355.494 73.3125C357.114 72.6052 358.54 71.6353 359.772 70.4033C360.949 69.2482 361.875 67.932 362.55 66.4561L362.682 66.1592C363.389 64.5392 363.742 62.8041 363.742 60.9561C363.742 59.3363 363.446 57.8415 362.853 56.4727C362.282 55.081 361.461 53.8828 360.389 52.8789C359.47 51.9806 358.412 51.257 357.214 50.708L356.691 50.4834C355.453 49.9842 354.12 49.703 352.689 49.6406L352.071 49.627Z" fill="white" fill-opacity="0.08"/>
<path fill-rule="evenodd" clip-rule="evenodd" d="M254.338 55.0352C255.159 55.0352 255.81 55.2634 256.289 55.7197C256.791 56.176 257.042 56.7928 257.042 57.5684L257.034 57.7715C257.002 58.2404 256.856 58.6751 256.597 59.0742C256.323 59.5075 255.934 59.861 255.433 60.1348C254.954 60.3856 254.395 60.5117 253.756 60.5117H247.731L248.896 55.0352H254.338ZM248.967 59.5117H253.756C254.258 59.5117 254.65 59.4131 254.961 59.252C255.327 59.051 255.579 58.8116 255.751 58.54L255.758 58.5293C255.948 58.2364 256.042 57.9234 256.042 57.5684C256.042 57.0973 255.917 56.7843 255.71 56.5537L255.616 56.46L255.599 56.4443C255.379 56.2353 255.061 56.0787 254.562 56.043L254.338 56.0352H249.706L248.967 59.5117Z" fill="white" fill-opacity="0.08"/>
<path fill-rule="evenodd" clip-rule="evenodd" d="M255.364 49.0039C257.009 49.0039 258.493 49.3408 259.783 50.0518C261.071 50.7258 262.091 51.68 262.823 52.9062C263.57 54.1325 263.929 55.5386 263.929 57.0889L263.923 57.4092C263.868 59.0007 263.407 60.4713 262.539 61.8008L262.54 61.8018C261.647 63.2053 260.435 64.3228 258.927 65.1523L258.915 65.1592C257.389 65.9731 255.696 66.3721 253.858 66.3721H247.481L245.668 74.9629H237.871L243.396 49.0039H255.364ZM244.206 50.0039L239.106 73.9629H244.856L246.671 65.3721H253.858L254.173 65.3672C255.737 65.3244 257.162 64.9609 258.445 64.2764C259.728 63.5706 260.761 62.6438 261.543 61.4971L261.696 61.2646C262.466 60.0883 262.876 58.791 262.924 57.374L262.929 57.0889C262.929 55.6973 262.609 54.4762 261.971 53.4268C261.372 52.4214 260.552 51.6262 259.512 51.042L259.301 50.9277C258.322 50.3886 257.195 50.0859 255.92 50.0186L255.364 50.0039H244.206Z" fill="white" fill-opacity="0.08"/>
<path fill-rule="evenodd" clip-rule="evenodd" d="M268.964 74.9629H261.169L266.694 49.0039H274.489L268.964 74.9629ZM262.403 73.9629H268.154L273.254 50.0039H267.504L262.403 73.9629Z" fill="white" fill-opacity="0.08"/>
<path fill-rule="evenodd" clip-rule="evenodd" d="M296.624 56.2061H288.994L284.989 74.9629H277.159L281.164 56.2061H273.459L275.022 49.0039H298.188L296.624 56.2061ZM274.699 55.2061H282.4L278.396 73.9629H284.18L288.185 55.2061H295.817L296.947 50.0039H275.829L274.699 55.2061Z" fill="white" fill-opacity="0.08"/>
<path fill-rule="evenodd" clip-rule="evenodd" d="M306.195 63.4893H300.479L304.929 55.8223L306.195 63.4893ZM302.216 62.4893H305.017L304.396 58.7314L302.216 62.4893Z" fill="white" fill-opacity="0.08"/>
<path fill-rule="evenodd" clip-rule="evenodd" d="M315.068 74.9629H307.059L306.101 69.1787H298.352L294.997 74.9629H286.342L302.177 49.0039H310.173L315.068 74.9629ZM288.123 73.9629H294.421L297.775 68.1787H306.948L307.906 73.9629H313.862L309.344 50.0039H302.738L288.123 73.9629Z" fill="white" fill-opacity="0.08"/>
<path fill-rule="evenodd" clip-rule="evenodd" d="M483.273 48.7646C485.638 48.7646 487.77 49.2229 489.642 50.1699C491.538 51.1183 493.049 52.4883 494.152 54.2686L494.608 55.0049L488.545 60.0967L487.95 59.0566C487.46 58.1987 486.864 57.5498 486.166 57.085L485.86 56.8975L485.837 56.8838C485.029 56.3954 484.083 56.1377 482.966 56.1377C482.121 56.1377 481.336 56.3043 480.602 56.6328C479.859 56.9652 479.202 57.433 478.63 58.0449C478.08 58.6343 477.644 59.3267 477.322 60.1299C477.007 60.9191 476.847 61.7628 476.847 62.668L476.857 63.0469C476.909 63.9144 477.137 64.6881 477.533 65.3828C478.015 66.1884 478.651 66.8144 479.453 67.2734C480.27 67.7284 481.205 67.9658 482.281 67.9658C483.23 67.9658 484.137 67.7688 485.01 67.373C485.913 66.951 486.774 66.331 487.589 65.4951L488.375 64.6895L492.821 70.1875L492.208 70.8242C490.853 72.228 489.211 73.3394 487.297 74.1631L487.292 74.165C485.4 74.9656 483.487 75.374 481.562 75.374C479.912 75.374 478.352 75.1047 476.893 74.5586L476.603 74.4453L476.593 74.4414L476.584 74.4375C475.271 73.8778 474.085 73.1371 473.031 72.2158L472.588 71.8105L472.572 71.7949C471.576 70.7984 470.768 69.6673 470.15 68.4062L469.897 67.8574L469.896 67.8516C469.247 66.329 468.925 64.6998 468.925 62.9756C468.925 61.022 469.293 59.176 470.033 57.4482L470.038 57.4365C470.794 55.7294 471.822 54.223 473.12 52.9248L473.127 52.918C474.448 51.6213 475.967 50.6051 477.678 49.8721L477.683 49.8701C479.432 49.131 481.299 48.7647 483.273 48.7646ZM483.273 49.7646C481.425 49.7647 479.691 50.1065 478.071 50.791C476.474 51.4756 475.059 52.4225 473.827 53.6318C472.618 54.8411 471.659 56.2447 470.952 57.8418C470.268 59.4389 469.925 61.1504 469.925 62.9756C469.925 64.5727 470.222 66.0682 470.815 67.46C471.409 68.8287 472.23 70.0385 473.279 71.0879C474.352 72.1146 475.585 72.9244 476.977 73.5176C478.214 74.0167 479.54 74.298 480.952 74.3604L481.562 74.374C483.231 74.374 484.9 74.0426 486.568 73.3809L486.902 73.2441C488.705 72.4684 490.233 71.4302 491.488 70.1299L488.306 66.1934C487.416 67.1059 486.457 67.8021 485.431 68.2812C484.427 68.7376 483.376 68.9658 482.281 68.9658L481.825 68.9531C480.925 68.9018 480.094 68.6963 479.335 68.3369L478.961 68.1445C478.003 67.597 477.238 66.8429 476.668 65.8848C476.189 65.0464 475.919 64.1204 475.859 63.1074L475.847 62.668C475.847 61.7697 475.986 60.9145 476.266 60.1035L476.395 59.7588C476.76 58.8462 477.262 58.0468 477.9 57.3623C478.562 56.6551 479.326 56.1076 480.193 55.7197C481.06 55.3318 481.985 55.1377 482.966 55.1377C484.244 55.1377 485.373 55.4341 486.354 56.0273C487.358 56.5978 488.18 57.4426 488.818 58.5605L493.303 54.7959C492.299 53.1759 490.929 51.9315 489.195 51.0645C487.591 50.2516 485.756 49.8204 483.69 49.7695L483.273 49.7646Z" fill="white" fill-opacity="0.08"/>
<path fill-rule="evenodd" clip-rule="evenodd" d="M506.565 55.0352C507.752 55.0352 508.802 55.3088 509.715 55.8564C510.65 56.404 511.381 57.1571 511.905 58.1152C512.43 59.0507 512.692 60.1238 512.692 61.333L512.684 61.7236C512.644 62.6295 512.464 63.492 512.145 64.3105C511.779 65.2231 511.266 66.034 510.604 66.7412C509.943 67.4255 509.178 67.9618 508.312 68.3496C507.467 68.7374 506.543 68.9316 505.539 68.9316L505.1 68.9189C504.233 68.8676 503.437 68.6621 502.712 68.3027L502.355 68.1104C501.443 67.5628 500.724 66.8201 500.199 65.8848C499.74 65.0464 499.482 64.1115 499.425 63.0811L499.412 62.6338C499.412 61.7154 499.552 60.8487 499.831 60.0352L499.96 59.6904C500.279 58.8719 500.712 58.1488 501.259 57.5225L501.5 57.2598C502.079 56.6409 502.737 56.1439 503.473 55.7695L503.793 55.6172C504.66 55.2293 505.584 55.0352 506.565 55.0352ZM506.565 56.0352C505.72 56.0352 504.935 56.2018 504.201 56.5303C503.458 56.8627 502.803 57.3314 502.23 57.9434L502.219 57.9551C501.654 58.5391 501.211 59.235 500.892 60.0537L500.889 60.0615C500.574 60.8482 500.412 61.7028 500.412 62.6338L500.423 63.0244C500.472 63.9166 500.693 64.7024 501.071 65.3965C501.51 66.1792 502.105 66.7922 502.864 67.249C503.631 67.6972 504.514 67.9316 505.539 67.9316C506.41 67.9316 507.191 67.7642 507.894 67.4414L507.902 67.4365C508.648 67.1028 509.304 66.6436 509.875 66.0557C510.45 65.4409 510.896 64.7377 511.216 63.9395C511.532 63.1273 511.692 62.2608 511.692 61.333C511.692 60.4055 511.517 59.6005 511.185 58.8994L511.033 58.6045L511.028 58.5957C510.645 57.8952 510.135 57.3331 509.493 56.8984L509.209 56.7197L509.2 56.7139C508.46 56.2699 507.592 56.0352 506.565 56.0352Z" fill="white" fill-opacity="0.08"/>
<path fill-rule="evenodd" clip-rule="evenodd" d="M506.942 48.626C508.613 48.626 510.184 48.8959 511.646 49.4424L511.937 49.5557C513.461 50.1702 514.799 51.0342 515.942 52.1484C517.117 53.2486 518.018 54.5614 518.642 56.0752C519.294 57.5799 519.613 59.2114 519.613 60.9561C519.613 62.9329 519.234 64.8018 518.471 66.5518L518.472 66.5527C517.736 68.2683 516.693 69.7887 515.35 71.1094L515.351 71.1104C514.029 72.4321 512.497 73.4729 510.765 74.2295L510.754 74.2334C509.004 74.9726 507.137 75.3398 505.162 75.3398C503.492 75.3398 501.921 75.0708 500.459 74.5244L500.168 74.4111C498.643 73.7964 497.293 72.943 496.127 71.8516L496.119 71.8447L496.111 71.8369C495.111 70.858 494.301 69.7351 493.683 68.4746L493.429 67.9258L493.425 67.917L493.421 67.9072C492.798 66.3862 492.491 64.7495 492.491 63.0098C492.491 61.0352 492.858 59.1775 493.599 57.4482L493.602 57.4414C494.358 55.7088 495.398 54.1781 496.72 52.8564L496.727 52.8496C498.069 51.5321 499.608 50.5047 501.34 49.7715L501.669 49.6328C503.325 48.9607 505.086 48.626 506.942 48.626ZM506.942 49.627C505.094 49.627 503.359 49.9811 501.739 50.6885L501.438 50.8203C499.94 51.4941 498.603 52.4085 497.427 53.5635C496.195 54.7956 495.225 56.2219 494.518 57.8418C493.833 59.4388 493.491 61.1618 493.491 63.0098L493.504 63.6123C493.566 65.0048 493.848 66.3105 494.347 67.5283C494.94 68.8971 495.761 70.0954 496.811 71.1221C497.883 72.126 499.127 72.913 500.542 73.4834C501.78 73.9825 503.114 74.2638 504.544 74.3262L505.162 74.3398C506.895 74.3398 508.527 74.0381 510.06 73.4365L510.365 73.3125C511.985 72.6052 513.412 71.6353 514.644 70.4033C515.82 69.2482 516.746 67.932 517.421 66.4561L517.553 66.1592C518.26 64.5392 518.613 62.8041 518.613 60.9561C518.613 59.3363 518.317 57.8415 517.724 56.4727C517.153 55.081 516.332 53.8828 515.26 52.8789C514.341 51.9806 513.283 51.257 512.085 50.708L511.562 50.4834C510.325 49.9842 508.991 49.703 507.561 49.6406L506.942 49.627Z" fill="white" fill-opacity="0.08"/>
<path fill-rule="evenodd" clip-rule="evenodd" d="M409.209 55.0352C410.03 55.0352 410.681 55.2634 411.16 55.7197C411.662 56.176 411.913 56.7928 411.913 57.5684L411.905 57.7715C411.873 58.2404 411.727 58.6751 411.468 59.0742C411.194 59.5075 410.806 59.861 410.304 60.1348C409.825 60.3856 409.266 60.5117 408.627 60.5117H402.603L403.767 55.0352H409.209ZM403.838 59.5117H408.627C409.129 59.5117 409.521 59.4131 409.832 59.252C410.198 59.051 410.45 58.8116 410.622 58.54L410.629 58.5293C410.819 58.2364 410.913 57.9234 410.913 57.5684C410.913 57.0973 410.788 56.7843 410.581 56.5537L410.487 56.46L410.47 56.4443C410.25 56.2353 409.932 56.0787 409.434 56.043L409.209 56.0352H404.577L403.838 59.5117Z" fill="white" fill-opacity="0.08"/>
<path fill-rule="evenodd" clip-rule="evenodd" d="M410.235 49.0039C411.88 49.0039 413.364 49.3408 414.654 50.0518C415.942 50.7258 416.962 51.68 417.694 52.9062C418.441 54.1325 418.8 55.5386 418.8 57.0889L418.794 57.4092C418.74 59.0007 418.278 60.4713 417.41 61.8008L417.411 61.8018C416.518 63.2053 415.306 64.3228 413.798 65.1523L413.786 65.1592C412.26 65.9731 410.567 66.3721 408.729 66.3721H402.353L400.539 74.9629H392.742L398.268 49.0039H410.235ZM399.077 50.0039L393.978 73.9629H399.728L401.542 65.3721H408.729L409.044 65.3672C410.608 65.3244 412.033 64.9609 413.316 64.2764C414.6 63.5706 415.632 62.6438 416.414 61.4971L416.567 61.2646C417.337 60.0883 417.747 58.791 417.795 57.374L417.8 57.0889C417.8 55.6973 417.48 54.4762 416.842 53.4268C416.243 52.4214 415.423 51.6262 414.383 51.042L414.172 50.9277C413.194 50.3886 412.066 50.0859 410.791 50.0186L410.235 50.0039H399.077Z" fill="white" fill-opacity="0.08"/>
<path fill-rule="evenodd" clip-rule="evenodd" d="M423.835 74.9629H416.04L421.565 49.0039H429.36L423.835 74.9629ZM417.274 73.9629H423.025L428.125 50.0039H422.375L417.274 73.9629Z" fill="white" fill-opacity="0.08"/>
<path fill-rule="evenodd" clip-rule="evenodd" d="M451.495 56.2061H443.865L439.86 74.9629H432.03L436.035 56.2061H428.33L429.894 49.0039H453.059L451.495 56.2061ZM429.57 55.2061H437.271L433.267 73.9629H439.051L443.056 55.2061H450.688L451.818 50.0039H430.7L429.57 55.2061Z" fill="white" fill-opacity="0.08"/>
<path fill-rule="evenodd" clip-rule="evenodd" d="M461.066 63.4893H455.351L459.8 55.8223L461.066 63.4893ZM457.087 62.4893H459.888L459.267 58.7314L457.087 62.4893Z" fill="white" fill-opacity="0.08"/>
<path fill-rule="evenodd" clip-rule="evenodd" d="M469.939 74.9629H461.93L460.972 69.1787H453.223L449.868 74.9629H441.213L457.048 49.0039H465.044L469.939 74.9629ZM442.994 73.9629H449.292L452.646 68.1787H461.819L462.777 73.9629H468.733L464.215 50.0039H457.609L442.994 73.9629Z" fill="white" fill-opacity="0.08"/>
<path fill-rule="evenodd" clip-rule="evenodd" d="M638.145 48.7646C640.509 48.7646 642.641 49.2229 644.513 50.1699C646.409 51.1183 647.92 52.4883 649.023 54.2686L649.479 55.0049L643.416 60.0967L642.821 59.0566C642.331 58.1987 641.735 57.5498 641.037 57.085L640.731 56.8975L640.708 56.8838C639.9 56.3954 638.954 56.1377 637.837 56.1377C636.992 56.1377 636.207 56.3043 635.473 56.6328C634.73 56.9652 634.073 57.433 633.501 58.0449C632.951 58.6343 632.515 59.3267 632.193 60.1299C631.878 60.9191 631.718 61.7628 631.718 62.668L631.729 63.0469C631.78 63.9144 632.009 64.6881 632.404 65.3828C632.886 66.1884 633.523 66.8144 634.324 67.2734C635.141 67.7284 636.076 67.9658 637.152 67.9658C638.101 67.9658 639.008 67.7688 639.881 67.373C640.784 66.951 641.645 66.331 642.46 65.4951L643.246 64.6895L647.692 70.1875L647.079 70.8242C645.724 72.228 644.082 73.3394 642.168 74.1631L642.163 74.165C640.271 74.9656 638.358 75.374 636.434 75.374C634.783 75.374 633.223 75.1047 631.764 74.5586L631.474 74.4453L631.464 74.4414L631.455 74.4375C630.142 73.8778 628.956 73.1371 627.902 72.2158L627.459 71.8105L627.443 71.7949C626.447 70.7984 625.639 69.6673 625.021 68.4062L624.769 67.8574L624.767 67.8516C624.118 66.329 623.796 64.6998 623.796 62.9756C623.796 61.022 624.164 59.176 624.904 57.4482L624.909 57.4365C625.665 55.7294 626.693 54.223 627.991 52.9248L627.998 52.918C629.319 51.6213 630.838 50.6051 632.549 49.8721L632.554 49.8701C634.303 49.131 636.17 48.7647 638.145 48.7646ZM638.145 49.7646C636.296 49.7647 634.562 50.1065 632.942 50.791C631.345 51.4756 629.93 52.4225 628.698 53.6318C627.489 54.8411 626.531 56.2447 625.823 57.8418C625.139 59.4389 624.796 61.1504 624.796 62.9756C624.796 64.5727 625.093 66.0682 625.687 67.46C626.28 68.8287 627.101 70.0385 628.15 71.0879C629.223 72.1146 630.456 72.9244 631.848 73.5176C633.086 74.0167 634.411 74.298 635.823 74.3604L636.434 74.374C638.102 74.374 639.771 74.0426 641.439 73.3809L641.773 73.2441C643.576 72.4684 645.105 71.4302 646.359 70.1299L643.177 66.1934C642.287 67.1059 641.328 67.8021 640.302 68.2812C639.298 68.7376 638.248 68.9658 637.152 68.9658L636.696 68.9531C635.796 68.9018 634.965 68.6963 634.206 68.3369L633.832 68.1445C632.874 67.597 632.109 66.8429 631.539 65.8848C631.06 65.0464 630.79 64.1204 630.73 63.1074L630.718 62.668C630.718 61.7697 630.857 60.9145 631.137 60.1035L631.266 59.7588C631.631 58.8462 632.133 58.0468 632.771 57.3623C633.433 56.6551 634.198 56.1076 635.064 55.7197C635.932 55.3318 636.856 55.1377 637.837 55.1377C639.115 55.1377 640.244 55.4341 641.226 56.0273C642.229 56.5978 643.051 57.4426 643.689 58.5605L648.174 54.7959C647.17 53.1759 645.8 51.9315 644.066 51.0645C642.462 50.2516 640.627 49.8204 638.562 49.7695L638.145 49.7646Z" fill="white" fill-opacity="0.08"/>
<path fill-rule="evenodd" clip-rule="evenodd" d="M661.437 55.0352C662.623 55.0352 663.673 55.3088 664.586 55.8564C665.521 56.404 666.252 57.1571 666.776 58.1152C667.301 59.0507 667.563 60.1238 667.563 61.333L667.555 61.7236C667.515 62.6295 667.335 63.492 667.016 64.3105C666.651 65.2231 666.137 66.034 665.476 66.7412C664.814 67.4255 664.049 67.9618 663.183 68.3496C662.338 68.7374 661.414 68.9316 660.41 68.9316L659.971 68.9189C659.104 68.8676 658.308 68.6621 657.583 68.3027L657.227 68.1104C656.314 67.5628 655.595 66.8201 655.07 65.8848C654.611 65.0464 654.353 64.1115 654.296 63.0811L654.283 62.6338C654.283 61.7154 654.423 60.8487 654.702 60.0352L654.831 59.6904C655.15 58.8719 655.583 58.1488 656.13 57.5225L656.371 57.2598C656.95 56.6409 657.608 56.1439 658.344 55.7695L658.664 55.6172C659.531 55.2293 660.455 55.0352 661.437 55.0352ZM661.437 56.0352C660.591 56.0352 659.807 56.2018 659.072 56.5303C658.329 56.8627 657.674 57.3314 657.102 57.9434L657.09 57.9551C656.525 58.5391 656.082 59.235 655.763 60.0537L655.76 60.0615C655.445 60.8482 655.283 61.7028 655.283 62.6338L655.294 63.0244C655.343 63.9166 655.564 64.7024 655.942 65.3965C656.382 66.1792 656.976 66.7922 657.735 67.249C658.503 67.6972 659.386 67.9316 660.41 67.9316C661.282 67.9316 662.062 67.7642 662.765 67.4414L662.773 67.4365C663.519 67.1028 664.175 66.6436 664.746 66.0557C665.321 65.4409 665.768 64.7377 666.087 63.9395C666.403 63.1273 666.563 62.2608 666.563 61.333C666.563 60.4055 666.388 59.6005 666.056 58.8994L665.904 58.6045L665.899 58.5957C665.516 57.8952 665.006 57.3331 664.364 56.8984L664.08 56.7197L664.071 56.7139C663.331 56.2699 662.463 56.0352 661.437 56.0352Z" fill="white" fill-opacity="0.08"/>
<path fill-rule="evenodd" clip-rule="evenodd" d="M661.813 48.626C663.484 48.626 665.055 48.8959 666.517 49.4424L666.808 49.5557C668.332 50.1702 669.67 51.0342 670.813 52.1484C671.989 53.2486 672.889 54.5614 673.513 56.0752C674.165 57.5799 674.484 59.2114 674.484 60.9561C674.484 62.9329 674.105 64.8018 673.342 66.5518L673.343 66.5527C672.607 68.2683 671.564 69.7887 670.221 71.1094L670.222 71.1104C668.9 72.4321 667.369 73.4729 665.636 74.2295L665.625 74.2334C663.876 74.9726 662.008 75.3398 660.033 75.3398C658.363 75.3398 656.792 75.0708 655.33 74.5244L655.039 74.4111C653.514 73.7964 652.164 72.943 650.998 71.8516L650.99 71.8447L650.982 71.8369C649.982 70.858 649.172 69.7351 648.554 68.4746L648.3 67.9258L648.296 67.917L648.292 67.9072C647.669 66.3862 647.362 64.7495 647.362 63.0098C647.362 61.0352 647.729 59.1775 648.47 57.4482L648.473 57.4414C649.229 55.7088 650.269 54.1781 651.591 52.8564L651.598 52.8496C652.94 51.5321 654.479 50.5047 656.211 49.7715L656.54 49.6328C658.197 48.9607 659.958 48.626 661.813 48.626ZM661.813 49.627C659.965 49.627 658.23 49.9811 656.61 50.6885L656.309 50.8203C654.811 51.4941 653.474 52.4085 652.298 53.5635C651.066 54.7956 650.096 56.2219 649.389 57.8418C648.704 59.4388 648.362 61.1618 648.362 63.0098L648.375 63.6123C648.437 65.0048 648.719 66.3105 649.218 67.5283C649.811 68.8971 650.632 70.0954 651.682 71.1221C652.754 72.126 653.998 72.913 655.413 73.4834C656.651 73.9825 657.985 74.2638 659.415 74.3262L660.033 74.3398C661.766 74.3398 663.399 74.0381 664.931 73.4365L665.236 73.3125C666.856 72.6052 668.283 71.6353 669.515 70.4033C670.691 69.2482 671.617 67.932 672.292 66.4561L672.424 66.1592C673.131 64.5392 673.484 62.8041 673.484 60.9561C673.484 59.3363 673.188 57.8415 672.595 56.4727C672.024 55.081 671.203 53.8828 670.131 52.8789C669.213 51.9806 668.154 51.257 666.956 50.708L666.434 50.4834C665.196 49.9842 663.862 49.703 662.432 49.6406L661.813 49.627Z" fill="white" fill-opacity="0.08"/>
<path fill-rule="evenodd" clip-rule="evenodd" d="M564.08 55.0352C564.901 55.0352 565.552 55.2634 566.031 55.7197C566.533 56.176 566.784 56.7928 566.784 57.5684L566.776 57.7715C566.744 58.2404 566.598 58.6751 566.339 59.0742C566.065 59.5075 565.677 59.861 565.175 60.1348C564.696 60.3856 564.137 60.5117 563.498 60.5117H557.474L558.638 55.0352H564.08ZM558.709 59.5117H563.498C564 59.5117 564.392 59.4131 564.703 59.252C565.069 59.051 565.322 58.8116 565.493 58.54L565.5 58.5293C565.69 58.2364 565.784 57.9234 565.784 57.5684C565.784 57.0973 565.659 56.7843 565.452 56.5537L565.358 56.46L565.341 56.4443C565.121 56.2353 564.803 56.0787 564.305 56.043L564.08 56.0352H559.448L558.709 59.5117Z" fill="white" fill-opacity="0.08"/>
<path fill-rule="evenodd" clip-rule="evenodd" d="M565.106 49.0039C566.751 49.0039 568.235 49.3408 569.525 50.0518C570.813 50.7258 571.833 51.68 572.565 52.9062C573.312 54.1325 573.671 55.5386 573.671 57.0889L573.665 57.4092C573.611 59.0007 573.149 60.4713 572.281 61.8008L572.282 61.8018C571.389 63.2053 570.177 64.3228 568.669 65.1523L568.657 65.1592C567.131 65.9731 565.438 66.3721 563.601 66.3721H557.224L555.41 74.9629H547.613L553.139 49.0039H565.106ZM553.948 50.0039L548.849 73.9629H554.599L556.413 65.3721H563.601L563.915 65.3672C565.479 65.3244 566.904 64.9609 568.188 64.2764C569.471 63.5706 570.503 62.6438 571.285 61.4971L571.438 61.2646C572.208 60.0883 572.618 58.791 572.666 57.374L572.671 57.0889C572.671 55.6973 572.352 54.4762 571.713 53.4268C571.114 52.4214 570.294 51.6262 569.254 51.042L569.043 50.9277C568.065 50.3886 566.937 50.0859 565.662 50.0186L565.106 50.0039H553.948Z" fill="white" fill-opacity="0.08"/>
<path fill-rule="evenodd" clip-rule="evenodd" d="M578.706 74.9629H570.911L576.437 49.0039H584.231L578.706 74.9629ZM572.146 73.9629H577.896L582.996 50.0039H577.246L572.146 73.9629Z" fill="white" fill-opacity="0.08"/>
<path fill-rule="evenodd" clip-rule="evenodd" d="M606.366 56.2061H598.736L594.731 74.9629H586.901L590.906 56.2061H583.201L584.765 49.0039H607.93L606.366 56.2061ZM584.441 55.2061H592.143L588.138 73.9629H593.922L597.927 55.2061H605.56L606.689 50.0039H585.571L584.441 55.2061Z" fill="white" fill-opacity="0.08"/>
<path fill-rule="evenodd" clip-rule="evenodd" d="M615.938 63.4893H610.222L614.671 55.8223L615.938 63.4893ZM611.958 62.4893H614.759L614.138 58.7314L611.958 62.4893Z" fill="white" fill-opacity="0.08"/>
<path fill-rule="evenodd" clip-rule="evenodd" d="M624.811 74.9629H616.801L615.843 69.1787H608.094L604.739 74.9629H596.084L611.919 49.0039H619.915L624.811 74.9629ZM597.865 73.9629H604.163L607.518 68.1787H616.69L617.648 73.9629H623.604L619.086 50.0039H612.48L597.865 73.9629Z" fill="white" fill-opacity="0.08"/>
<path fill-rule="evenodd" clip-rule="evenodd" d="M90.5312 12.7646C92.8961 12.7646 95.0278 13.2229 96.8994 14.1699C98.7961 15.1183 100.307 16.4883 101.41 18.2686L101.866 19.0049L95.8027 24.0967L95.208 23.0566C94.7177 22.1987 94.1215 21.5498 93.4238 21.085L93.1182 20.8975L93.0947 20.8838C92.287 20.3954 91.3405 20.1377 90.2236 20.1377C89.3785 20.1377 88.5937 20.3043 87.8594 20.6328C87.1165 20.9652 86.4602 21.433 85.8877 22.0449C85.3379 22.6343 84.9013 23.3267 84.5801 24.1299C84.2645 24.9191 84.1045 25.7628 84.1045 26.668L84.1152 27.0469C84.1663 27.9144 84.3953 28.6881 84.791 29.3828C85.2726 30.1884 85.9092 30.8144 86.7109 31.2734C87.5279 31.7284 88.4627 31.9658 89.5391 31.9658C90.4882 31.9658 91.3946 31.7688 92.2676 31.373C93.171 30.951 94.0316 30.331 94.8467 29.4951L95.6328 28.6895L100.079 34.1875L99.4658 34.8242C98.1111 36.228 96.4685 37.3394 94.5547 38.1631L94.5498 38.165C92.6574 38.9656 90.7451 39.374 88.8203 39.374C87.1694 39.374 85.6098 39.1047 84.1504 38.5586L83.8604 38.4453L83.8506 38.4414L83.8418 38.4375C82.5288 37.8778 81.3428 37.1371 80.2891 36.2158L79.8457 35.8105L79.8301 35.7949C78.8336 34.7984 78.0254 33.6673 77.4082 32.4062L77.1553 31.8574L77.1533 31.8516C76.5044 30.329 76.1827 28.6998 76.1826 26.9756C76.1827 25.022 76.5507 23.176 77.291 21.4482L77.2959 21.4365C78.052 19.7294 79.0798 18.223 80.3779 16.9248L80.3848 16.918C81.706 15.6213 83.2252 14.6051 84.9355 13.8721L84.9404 13.8701C86.6897 13.131 88.5565 12.7647 90.5312 12.7646ZM90.5312 13.7646C88.6832 13.7647 86.9491 14.1065 85.3291 14.791C83.7319 15.4756 82.3171 16.4225 81.085 17.6318C79.8757 18.8411 78.9173 20.2447 78.21 21.8418C77.5256 23.4389 77.1827 25.1504 77.1826 26.9756C77.1827 28.5727 77.48 30.0682 78.0732 31.46C78.6665 32.8287 79.4877 34.0385 80.5371 35.0879C81.6095 36.1146 82.8426 36.9244 84.2344 37.5176C85.4722 38.0167 86.7974 38.298 88.21 38.3604L88.8203 38.374C90.4889 38.374 92.1576 38.0426 93.8262 37.3809L94.1602 37.2441C95.9624 36.4684 97.4913 35.4302 98.7461 34.1299L95.5635 30.1934C94.6737 31.1059 93.7151 31.8021 92.6885 32.2812C91.6845 32.7376 90.6343 32.9658 89.5391 32.9658L89.083 32.9531C88.1824 32.9018 87.3522 32.6963 86.5928 32.3369L86.2188 32.1445C85.2606 31.597 84.4962 30.8429 83.9258 29.8848C83.4468 29.0464 83.1771 28.1204 83.1172 27.1074L83.1045 26.668C83.1045 25.7697 83.244 24.9145 83.5234 24.1035L83.6523 23.7588C84.0174 22.8462 84.5194 22.0468 85.1582 21.3623C85.8198 20.6551 86.5843 20.1076 87.4512 19.7197C88.3182 19.3318 89.2425 19.1377 90.2236 19.1377C91.5014 19.1377 92.6311 19.4341 93.6123 20.0273C94.6161 20.5978 95.4373 21.4426 96.0762 22.5605L100.561 18.7959C99.5566 17.1759 98.1872 15.9315 96.4531 15.0645C94.8488 14.2516 93.0137 13.8204 90.9482 13.7695L90.5312 13.7646Z" fill="white" fill-opacity="0.08"/>
<path fill-rule="evenodd" clip-rule="evenodd" d="M113.823 19.0352C115.01 19.0352 116.06 19.3088 116.973 19.8564C117.908 20.404 118.638 21.1571 119.163 22.1152C119.688 23.0507 119.95 24.1238 119.95 25.333L119.941 25.7236C119.901 26.6295 119.722 27.492 119.402 28.3105C119.037 29.2231 118.524 30.034 117.862 30.7412C117.201 31.4255 116.436 31.9618 115.569 32.3496C114.725 32.7374 113.801 32.9316 112.797 32.9316L112.357 32.9189C111.491 32.8676 110.695 32.6621 109.97 32.3027L109.613 32.1104C108.701 31.5628 107.982 30.8201 107.457 29.8848C106.998 29.0464 106.74 28.1115 106.683 27.0811L106.67 26.6338C106.67 25.7154 106.809 24.8487 107.089 24.0352L107.218 23.6904C107.537 22.8719 107.97 22.1488 108.517 21.5225L108.758 21.2598C109.337 20.6409 109.994 20.1439 110.73 19.7695L111.051 19.6172C111.918 19.2293 112.842 19.0352 113.823 19.0352ZM113.823 20.0352C112.978 20.0352 112.193 20.2018 111.459 20.5303C110.716 20.8627 110.061 21.3314 109.488 21.9434L109.477 21.9551C108.912 22.5391 108.469 23.235 108.149 24.0537L108.146 24.0615C107.832 24.8482 107.67 25.7028 107.67 26.6338L107.681 27.0244C107.73 27.9166 107.951 28.7024 108.329 29.3965C108.768 30.1792 109.363 30.7922 110.122 31.249C110.889 31.6972 111.772 31.9316 112.797 31.9316C113.668 31.9316 114.449 31.7642 115.151 31.4414L115.16 31.4365C115.906 31.1028 116.562 30.6436 117.133 30.0557C117.708 29.4409 118.154 28.7377 118.474 27.9395C118.789 27.1273 118.95 26.2608 118.95 25.333C118.95 24.4055 118.775 23.6005 118.442 22.8994L118.291 22.6045L118.286 22.5957C117.903 21.8952 117.393 21.3331 116.751 20.8984L116.467 20.7197L116.458 20.7139C115.718 20.2699 114.85 20.0352 113.823 20.0352Z" fill="white" fill-opacity="0.08"/>
<path fill-rule="evenodd" clip-rule="evenodd" d="M114.2 12.626C115.871 12.626 117.441 12.8959 118.903 13.4424L119.194 13.5557C120.718 14.1702 122.057 15.0342 123.2 16.1484C124.375 17.2486 125.276 18.5614 125.899 20.0752C126.551 21.5799 126.871 23.2114 126.871 24.9561C126.871 26.9329 126.491 28.8018 125.729 30.5518L125.729 30.5527C124.994 32.2683 123.951 33.7887 122.607 35.1094L122.608 35.1104C121.287 36.4321 119.755 37.4729 118.022 38.2295L118.012 38.2334C116.262 38.9726 114.395 39.3398 112.42 39.3398C110.75 39.3398 109.179 39.0708 107.717 38.5244L107.426 38.4111C105.901 37.7964 104.551 36.943 103.385 35.8516L103.377 35.8447L103.369 35.8369C102.369 34.858 101.559 33.7351 100.94 32.4746L100.687 31.9258L100.683 31.917L100.679 31.9072C100.055 30.3862 99.7491 28.7495 99.749 27.0098C99.7491 25.0352 100.115 23.1775 100.856 21.4482L100.859 21.4414C101.616 19.7088 102.656 18.1781 103.978 16.8564L103.984 16.8496C105.326 15.5321 106.866 14.5047 108.598 13.7715L108.927 13.6328C110.583 12.9607 112.344 12.626 114.2 12.626ZM114.2 13.627C112.352 13.627 110.617 13.9811 108.997 14.6885L108.695 14.8203C107.198 15.4941 105.861 16.4085 104.685 17.5635C103.453 18.7956 102.483 20.2219 101.775 21.8418C101.091 23.4388 100.749 25.1618 100.749 27.0098L100.762 27.6123C100.824 29.0048 101.105 30.3105 101.604 31.5283C102.198 32.8971 103.019 34.0954 104.068 35.1221C105.141 36.126 106.385 36.913 107.8 37.4834C109.038 37.9825 110.372 38.2638 111.802 38.3262L112.42 38.3398C114.153 38.3398 115.785 38.0381 117.317 37.4365L117.623 37.3125C119.243 36.6052 120.669 35.6353 121.901 34.4033C123.078 33.2482 124.004 31.932 124.679 30.4561L124.811 30.1592C125.518 28.5392 125.871 26.8041 125.871 24.9561C125.871 23.3363 125.575 21.8415 124.981 20.4727C124.411 19.081 123.59 17.8828 122.518 16.8789C121.599 15.9806 120.541 15.257 119.343 14.708L118.82 14.4834C117.582 13.9842 116.248 13.703 114.818 13.6406L114.2 13.627Z" fill="white" fill-opacity="0.08"/>
<path fill-rule="evenodd" clip-rule="evenodd" d="M16.4668 19.0352C17.2881 19.0352 17.9388 19.2634 18.418 19.7197C18.9196 20.176 19.1709 20.7928 19.1709 21.5684L19.1631 21.7715C19.1305 22.2404 18.985 22.6751 18.7256 23.0742C18.4518 23.5075 18.0633 23.861 17.5615 24.1348C17.0824 24.3856 16.5235 24.5117 15.8848 24.5117H9.86035L11.0244 19.0352H16.4668ZM11.0957 23.5117H15.8848C16.3871 23.5117 16.7789 23.4131 17.0898 23.252C17.4557 23.051 17.7083 22.8116 17.8799 22.54L17.8867 22.5293C18.0771 22.2364 18.1708 21.9234 18.1709 21.5684C18.1709 21.0973 18.0458 20.7843 17.8389 20.5537L17.7451 20.46L17.7275 20.4443C17.508 20.2353 17.1895 20.0787 16.6914 20.043L16.4668 20.0352H11.835L11.0957 23.5117Z" fill="white" fill-opacity="0.08"/>
<path fill-rule="evenodd" clip-rule="evenodd" d="M17.4932 13.0039C19.1375 13.0039 20.6217 13.3408 21.9121 14.0518C23.1998 14.7258 24.2194 15.68 24.9521 16.9062C25.6984 18.1325 26.0576 19.5386 26.0576 21.0889L26.0518 21.4092C25.9974 23.0007 25.5355 24.4713 24.668 25.8008L24.6689 25.8018C23.7756 27.2053 22.564 28.3228 21.0557 29.1523L21.0439 29.1592C19.5177 29.9731 17.8249 30.3721 15.9873 30.3721H9.61035L7.79688 38.9629H0L5.52539 13.0039H17.4932ZM6.33496 14.0039L1.23535 37.9629H6.98535L8.7998 29.3721H15.9873L16.3018 29.3672C17.8661 29.3244 19.2907 28.9609 20.5742 28.2764C21.8573 27.5706 22.8899 26.6438 23.6719 25.4971L23.8252 25.2646C24.5952 24.0883 25.0045 22.791 25.0527 21.374L25.0576 21.0889C25.0576 19.6973 24.7382 18.4762 24.0996 17.4268C23.5007 16.4214 22.6807 15.6262 21.6406 15.042L21.4297 14.9277C20.4513 14.3886 19.3242 14.0859 18.0488 14.0186L17.4932 14.0039H6.33496Z" fill="white" fill-opacity="0.08"/>
<path fill-rule="evenodd" clip-rule="evenodd" d="M31.0928 38.9629H23.2979L28.8232 13.0039H36.6182L31.0928 38.9629ZM24.5322 37.9629H30.2832L35.3828 14.0039H29.6328L24.5322 37.9629Z" fill="white" fill-opacity="0.08"/>
<path fill-rule="evenodd" clip-rule="evenodd" d="M58.7529 20.2061H51.123L47.1182 38.9629H39.2881L43.293 20.2061H35.5879L37.1514 13.0039H60.3164L58.7529 20.2061ZM36.8281 19.2061H44.5293L40.5244 37.9629H46.3086L50.3135 19.2061H57.9463L59.0762 14.0039H37.958L36.8281 19.2061Z" fill="white" fill-opacity="0.08"/>
<path fill-rule="evenodd" clip-rule="evenodd" d="M68.3242 27.4893H62.6084L67.0576 19.8223L68.3242 27.4893ZM64.3447 26.4893H67.1455L66.5244 22.7314L64.3447 26.4893Z" fill="white" fill-opacity="0.08"/>
<path fill-rule="evenodd" clip-rule="evenodd" d="M77.1973 38.9629H69.1875L68.2295 33.1787H60.4805L57.126 38.9629H48.4707L64.3057 13.0039H72.3018L77.1973 38.9629ZM50.252 37.9629H56.5498L59.9043 32.1787H69.0771L70.0352 37.9629H75.9912L71.4727 14.0039H64.8672L50.252 37.9629Z" fill="white" fill-opacity="0.08"/>
<path fill-rule="evenodd" clip-rule="evenodd" d="M245.402 12.7646C247.767 12.7646 249.899 13.2229 251.771 14.1699C253.667 15.1183 255.178 16.4883 256.281 18.2686L256.737 19.0049L250.674 24.0967L250.079 23.0566C249.589 22.1987 248.993 21.5498 248.295 21.085L247.989 20.8975L247.966 20.8838C247.158 20.3954 246.212 20.1377 245.095 20.1377C244.25 20.1377 243.465 20.3043 242.73 20.6328C241.988 20.9652 241.331 21.433 240.759 22.0449C240.209 22.6343 239.772 23.3267 239.451 24.1299C239.136 24.9191 238.976 25.7628 238.976 26.668L238.986 27.0469C239.037 27.9144 239.266 28.6881 239.662 29.3828C240.144 30.1884 240.78 30.8144 241.582 31.2734C242.399 31.7284 243.334 31.9658 244.41 31.9658C245.359 31.9658 246.266 31.7688 247.139 31.373C248.042 30.951 248.903 30.331 249.718 29.4951L250.504 28.6895L254.95 34.1875L254.337 34.8242C252.982 36.228 251.34 37.3394 249.426 38.1631L249.421 38.165C247.529 38.9656 245.616 39.374 243.691 39.374C242.04 39.374 240.481 39.1047 239.021 38.5586L238.731 38.4453L238.722 38.4414L238.713 38.4375C237.4 37.8778 236.214 37.1371 235.16 36.2158L234.717 35.8105L234.701 35.7949C233.705 34.7984 232.896 33.6673 232.279 32.4062L232.026 31.8574L232.024 31.8516C231.375 30.329 231.054 28.6998 231.054 26.9756C231.054 25.022 231.422 23.176 232.162 21.4482L232.167 21.4365C232.923 19.7294 233.951 18.223 235.249 16.9248L235.256 16.918C236.577 15.6213 238.096 14.6051 239.807 13.8721L239.812 13.8701C241.561 13.131 243.428 12.7647 245.402 12.7646ZM245.402 13.7646C243.554 13.7647 241.82 14.1065 240.2 14.791C238.603 15.4756 237.188 16.4225 235.956 17.6318C234.747 18.8411 233.788 20.2447 233.081 21.8418C232.397 23.4389 232.054 25.1504 232.054 26.9756C232.054 28.5727 232.351 30.0682 232.944 31.46C233.538 32.8287 234.359 34.0385 235.408 35.0879C236.481 36.1146 237.714 36.9244 239.105 37.5176C240.343 38.0167 241.669 38.298 243.081 38.3604L243.691 38.374C245.36 38.374 247.029 38.0426 248.697 37.3809L249.031 37.2441C250.834 36.4684 252.362 35.4302 253.617 34.1299L250.435 30.1934C249.545 31.1059 248.586 31.8021 247.56 32.2812C246.556 32.7376 245.505 32.9658 244.41 32.9658L243.954 32.9531C243.054 32.9018 242.223 32.6963 241.464 32.3369L241.09 32.1445C240.132 31.597 239.367 30.8429 238.797 29.8848C238.318 29.0464 238.048 28.1204 237.988 27.1074L237.976 26.668C237.976 25.7697 238.115 24.9145 238.395 24.1035L238.523 23.7588C238.888 22.8462 239.391 22.0468 240.029 21.3623C240.691 20.6551 241.455 20.1076 242.322 19.7197C243.189 19.3318 244.114 19.1377 245.095 19.1377C246.372 19.1377 247.502 19.4341 248.483 20.0273C249.487 20.5978 250.308 21.4426 250.947 22.5605L255.432 18.7959C254.428 17.1759 253.058 15.9315 251.324 15.0645C249.72 14.2516 247.885 13.8204 245.819 13.7695L245.402 13.7646Z" fill="white" fill-opacity="0.08"/>
<path fill-rule="evenodd" clip-rule="evenodd" d="M268.694 19.0352C269.881 19.0352 270.931 19.3088 271.844 19.8564C272.779 20.404 273.509 21.1571 274.034 22.1152C274.559 23.0507 274.821 24.1238 274.821 25.333L274.812 25.7236C274.773 26.6295 274.593 27.492 274.273 28.3105C273.908 29.2231 273.395 30.034 272.733 30.7412C272.072 31.4255 271.307 31.9618 270.44 32.3496C269.596 32.7374 268.672 32.9316 267.668 32.9316L267.229 32.9189C266.362 32.8676 265.566 32.6621 264.841 32.3027L264.484 32.1104C263.572 31.5628 262.853 30.8201 262.328 29.8848C261.869 29.0464 261.611 28.1115 261.554 27.0811L261.541 26.6338C261.541 25.7154 261.68 24.8487 261.96 24.0352L262.089 23.6904C262.408 22.8719 262.841 22.1488 263.388 21.5225L263.629 21.2598C264.208 20.6409 264.865 20.1439 265.602 19.7695L265.922 19.6172C266.789 19.2293 267.713 19.0352 268.694 19.0352ZM268.694 20.0352C267.849 20.0352 267.064 20.2018 266.33 20.5303C265.587 20.8627 264.932 21.3314 264.359 21.9434L264.348 21.9551C263.783 22.5391 263.34 23.235 263.021 24.0537L263.018 24.0615C262.703 24.8482 262.541 25.7028 262.541 26.6338L262.552 27.0244C262.601 27.9166 262.822 28.7024 263.2 29.3965C263.639 30.1792 264.234 30.7922 264.993 31.249C265.76 31.6972 266.643 31.9316 267.668 31.9316C268.539 31.9316 269.32 31.7642 270.022 31.4414L270.031 31.4365C270.777 31.1028 271.433 30.6436 272.004 30.0557C272.579 29.4409 273.025 28.7377 273.345 27.9395C273.661 27.1273 273.821 26.2608 273.821 25.333C273.821 24.4055 273.646 23.6005 273.313 22.8994L273.162 22.6045L273.157 22.5957C272.774 21.8952 272.264 21.3331 271.622 20.8984L271.338 20.7197L271.329 20.7139C270.589 20.2699 269.721 20.0352 268.694 20.0352Z" fill="white" fill-opacity="0.08"/>
<path fill-rule="evenodd" clip-rule="evenodd" d="M269.071 12.626C270.742 12.626 272.312 12.8959 273.774 13.4424L274.065 13.5557C275.589 14.1702 276.928 15.0342 278.071 16.1484C279.246 17.2486 280.147 18.5614 280.771 20.0752C281.422 21.5799 281.742 23.2114 281.742 24.9561C281.742 26.9329 281.363 28.8018 280.6 30.5518L280.601 30.5527C279.865 32.2683 278.822 33.7887 277.479 35.1094L277.479 35.1104C276.158 36.4321 274.626 37.4729 272.894 38.2295L272.883 38.2334C271.133 38.9726 269.266 39.3398 267.291 39.3398C265.621 39.3398 264.05 39.0708 262.588 38.5244L262.297 38.4111C260.772 37.7964 259.422 36.943 258.256 35.8516L258.248 35.8447L258.24 35.8369C257.24 34.858 256.43 33.7351 255.812 32.4746L255.558 31.9258L255.554 31.917L255.55 31.9072C254.926 30.3862 254.62 28.7495 254.62 27.0098C254.62 25.0352 254.987 23.1775 255.728 21.4482L255.73 21.4414C256.487 19.7088 257.527 18.1781 258.849 16.8564L258.855 16.8496C260.197 15.5321 261.737 14.5047 263.469 13.7715L263.798 13.6328C265.454 12.9607 267.215 12.626 269.071 12.626ZM269.071 13.627C267.223 13.627 265.488 13.9811 263.868 14.6885L263.566 14.8203C262.069 15.4941 260.732 16.4085 259.556 17.5635C258.324 18.7956 257.354 20.2219 256.646 21.8418C255.962 23.4388 255.62 25.1618 255.62 27.0098L255.633 27.6123C255.695 29.0048 255.976 30.3105 256.476 31.5283C257.069 32.8971 257.89 34.0954 258.939 35.1221C260.012 36.126 261.256 36.913 262.671 37.4834C263.909 37.9825 265.243 38.2638 266.673 38.3262L267.291 38.3398C269.024 38.3398 270.656 38.0381 272.188 37.4365L272.494 37.3125C274.114 36.6052 275.54 35.6353 276.772 34.4033C277.949 33.2482 278.875 31.932 279.55 30.4561L279.682 30.1592C280.389 28.5392 280.742 26.8041 280.742 24.9561C280.742 23.3363 280.446 21.8415 279.853 20.4727C279.282 19.081 278.461 17.8828 277.389 16.8789C276.47 15.9806 275.412 15.257 274.214 14.708L273.691 14.4834C272.453 13.9842 271.12 13.703 269.689 13.6406L269.071 13.627Z" fill="white" fill-opacity="0.08"/>
<path fill-rule="evenodd" clip-rule="evenodd" d="M171.338 19.0352C172.159 19.0352 172.81 19.2634 173.289 19.7197C173.791 20.176 174.042 20.7928 174.042 21.5684L174.034 21.7715C174.002 22.2404 173.856 22.6751 173.597 23.0742C173.323 23.5075 172.934 23.861 172.433 24.1348C171.954 24.3856 171.395 24.5117 170.756 24.5117H164.731L165.896 19.0352H171.338ZM165.967 23.5117H170.756C171.258 23.5117 171.65 23.4131 171.961 23.252C172.327 23.051 172.579 22.8116 172.751 22.54L172.758 22.5293C172.948 22.2364 173.042 21.9234 173.042 21.5684C173.042 21.0973 172.917 20.7843 172.71 20.5537L172.616 20.46L172.599 20.4443C172.379 20.2353 172.061 20.0787 171.562 20.043L171.338 20.0352H166.706L165.967 23.5117Z" fill="white" fill-opacity="0.08"/>
<path fill-rule="evenodd" clip-rule="evenodd" d="M172.364 13.0039C174.009 13.0039 175.493 13.3408 176.783 14.0518C178.071 14.7258 179.091 15.68 179.823 16.9062C180.57 18.1325 180.929 19.5386 180.929 21.0889L180.923 21.4092C180.868 23.0007 180.407 24.4713 179.539 25.8008L179.54 25.8018C178.647 27.2053 177.435 28.3228 175.927 29.1523L175.915 29.1592C174.389 29.9731 172.696 30.3721 170.858 30.3721H164.481L162.668 38.9629H154.871L160.396 13.0039H172.364ZM161.206 14.0039L156.106 37.9629H161.856L163.671 29.3721H170.858L171.173 29.3672C172.737 29.3244 174.162 28.9609 175.445 28.2764C176.728 27.5706 177.761 26.6438 178.543 25.4971L178.696 25.2646C179.466 24.0883 179.876 22.791 179.924 21.374L179.929 21.0889C179.929 19.6973 179.609 18.4762 178.971 17.4268C178.372 16.4214 177.552 15.6262 176.512 15.042L176.301 14.9277C175.322 14.3886 174.195 14.0859 172.92 14.0186L172.364 14.0039H161.206Z" fill="white" fill-opacity="0.08"/>
<path fill-rule="evenodd" clip-rule="evenodd" d="M185.964 38.9629H178.169L183.694 13.0039H191.489L185.964 38.9629ZM179.403 37.9629H185.154L190.254 14.0039H184.504L179.403 37.9629Z" fill="white" fill-opacity="0.08"/>
<path fill-rule="evenodd" clip-rule="evenodd" d="M213.624 20.2061H205.994L201.989 38.9629H194.159L198.164 20.2061H190.459L192.022 13.0039H215.188L213.624 20.2061ZM191.699 19.2061H199.4L195.396 37.9629H201.18L205.185 19.2061H212.817L213.947 14.0039H192.829L191.699 19.2061Z" fill="white" fill-opacity="0.08"/>
<path fill-rule="evenodd" clip-rule="evenodd" d="M223.195 27.4893H217.479L221.929 19.8223L223.195 27.4893ZM219.216 26.4893H222.017L221.396 22.7314L219.216 26.4893Z" fill="white" fill-opacity="0.08"/>
<path fill-rule="evenodd" clip-rule="evenodd" d="M232.068 38.9629H224.059L223.101 33.1787H215.352L211.997 38.9629H203.342L219.177 13.0039H227.173L232.068 38.9629ZM205.123 37.9629H211.421L214.775 32.1787H223.948L224.906 37.9629H230.862L226.344 14.0039H219.738L205.123 37.9629Z" fill="white" fill-opacity="0.08"/>
<path fill-rule="evenodd" clip-rule="evenodd" d="M400.273 12.7646C402.638 12.7646 404.77 13.2229 406.642 14.1699C408.538 15.1183 410.049 16.4883 411.152 18.2686L411.608 19.0049L405.545 24.0967L404.95 23.0566C404.46 22.1987 403.864 21.5498 403.166 21.085L402.86 20.8975L402.837 20.8838C402.029 20.3954 401.083 20.1377 399.966 20.1377C399.121 20.1377 398.336 20.3043 397.602 20.6328C396.859 20.9652 396.202 21.433 395.63 22.0449C395.08 22.6343 394.644 23.3267 394.322 24.1299C394.007 24.9191 393.847 25.7628 393.847 26.668L393.857 27.0469C393.909 27.9144 394.137 28.6881 394.533 29.3828C395.015 30.1884 395.651 30.8144 396.453 31.2734C397.27 31.7284 398.205 31.9658 399.281 31.9658C400.23 31.9658 401.137 31.7688 402.01 31.373C402.913 30.951 403.774 30.331 404.589 29.4951L405.375 28.6895L409.821 34.1875L409.208 34.8242C407.853 36.228 406.211 37.3394 404.297 38.1631L404.292 38.165C402.4 38.9656 400.487 39.374 398.562 39.374C396.912 39.374 395.352 39.1047 393.893 38.5586L393.603 38.4453L393.593 38.4414L393.584 38.4375C392.271 37.8778 391.085 37.1371 390.031 36.2158L389.588 35.8105L389.572 35.7949C388.576 34.7984 387.768 33.6673 387.15 32.4062L386.897 31.8574L386.896 31.8516C386.247 30.329 385.925 28.6998 385.925 26.9756C385.925 25.022 386.293 23.176 387.033 21.4482L387.038 21.4365C387.794 19.7294 388.822 18.223 390.12 16.9248L390.127 16.918C391.448 15.6213 392.967 14.6051 394.678 13.8721L394.683 13.8701C396.432 13.131 398.299 12.7647 400.273 12.7646ZM400.273 13.7646C398.425 13.7647 396.691 14.1065 395.071 14.791C393.474 15.4756 392.059 16.4225 390.827 17.6318C389.618 18.8411 388.659 20.2447 387.952 21.8418C387.268 23.4389 386.925 25.1504 386.925 26.9756C386.925 28.5727 387.222 30.0682 387.815 31.46C388.409 32.8287 389.23 34.0385 390.279 35.0879C391.352 36.1146 392.585 36.9244 393.977 37.5176C395.214 38.0167 396.54 38.298 397.952 38.3604L398.562 38.374C400.231 38.374 401.9 38.0426 403.568 37.3809L403.902 37.2441C405.705 36.4684 407.233 35.4302 408.488 34.1299L405.306 30.1934C404.416 31.1059 403.457 31.8021 402.431 32.2812C401.427 32.7376 400.376 32.9658 399.281 32.9658L398.825 32.9531C397.925 32.9018 397.094 32.6963 396.335 32.3369L395.961 32.1445C395.003 31.597 394.238 30.8429 393.668 29.8848C393.189 29.0464 392.919 28.1204 392.859 27.1074L392.847 26.668C392.847 25.7697 392.986 24.9145 393.266 24.1035L393.395 23.7588C393.76 22.8462 394.262 22.0468 394.9 21.3623C395.562 20.6551 396.326 20.1076 397.193 19.7197C398.06 19.3318 398.985 19.1377 399.966 19.1377C401.244 19.1377 402.373 19.4341 403.354 20.0273C404.358 20.5978 405.18 21.4426 405.818 22.5605L410.303 18.7959C409.299 17.1759 407.929 15.9315 406.195 15.0645C404.591 14.2516 402.756 13.8204 400.69 13.7695L400.273 13.7646Z" fill="white" fill-opacity="0.08"/>
<path fill-rule="evenodd" clip-rule="evenodd" d="M423.565 19.0352C424.752 19.0352 425.802 19.3088 426.715 19.8564C427.65 20.404 428.381 21.1571 428.905 22.1152C429.43 23.0507 429.692 24.1238 429.692 25.333L429.684 25.7236C429.644 26.6295 429.464 27.492 429.145 28.3105C428.779 29.2231 428.266 30.034 427.604 30.7412C426.943 31.4255 426.178 31.9618 425.312 32.3496C424.467 32.7374 423.543 32.9316 422.539 32.9316L422.1 32.9189C421.233 32.8676 420.437 32.6621 419.712 32.3027L419.355 32.1104C418.443 31.5628 417.724 30.8201 417.199 29.8848C416.74 29.0464 416.482 28.1115 416.425 27.0811L416.412 26.6338C416.412 25.7154 416.552 24.8487 416.831 24.0352L416.96 23.6904C417.279 22.8719 417.712 22.1488 418.259 21.5225L418.5 21.2598C419.079 20.6409 419.737 20.1439 420.473 19.7695L420.793 19.6172C421.66 19.2293 422.584 19.0352 423.565 19.0352ZM423.565 20.0352C422.72 20.0352 421.935 20.2018 421.201 20.5303C420.458 20.8627 419.803 21.3314 419.23 21.9434L419.219 21.9551C418.654 22.5391 418.211 23.235 417.892 24.0537L417.889 24.0615C417.574 24.8482 417.412 25.7028 417.412 26.6338L417.423 27.0244C417.472 27.9166 417.693 28.7024 418.071 29.3965C418.51 30.1792 419.105 30.7922 419.864 31.249C420.631 31.6972 421.514 31.9316 422.539 31.9316C423.41 31.9316 424.191 31.7642 424.894 31.4414L424.902 31.4365C425.648 31.1028 426.304 30.6436 426.875 30.0557C427.45 29.4409 427.896 28.7377 428.216 27.9395C428.532 27.1273 428.692 26.2608 428.692 25.333C428.692 24.4055 428.517 23.6005 428.185 22.8994L428.033 22.6045L428.028 22.5957C427.645 21.8952 427.135 21.3331 426.493 20.8984L426.209 20.7197L426.2 20.7139C425.46 20.2699 424.592 20.0352 423.565 20.0352Z" fill="white" fill-opacity="0.08"/>
<path fill-rule="evenodd" clip-rule="evenodd" d="M423.942 12.626C425.613 12.626 427.184 12.8959 428.646 13.4424L428.937 13.5557C430.461 14.1702 431.799 15.0342 432.942 16.1484C434.117 17.2486 435.018 18.5614 435.642 20.0752C436.294 21.5799 436.613 23.2114 436.613 24.9561C436.613 26.9329 436.234 28.8018 435.471 30.5518L435.472 30.5527C434.736 32.2683 433.693 33.7887 432.35 35.1094L432.351 35.1104C431.029 36.4321 429.497 37.4729 427.765 38.2295L427.754 38.2334C426.004 38.9726 424.137 39.3398 422.162 39.3398C420.492 39.3398 418.921 39.0708 417.459 38.5244L417.168 38.4111C415.643 37.7964 414.293 36.943 413.127 35.8516L413.119 35.8447L413.111 35.8369C412.111 34.858 411.301 33.7351 410.683 32.4746L410.429 31.9258L410.425 31.917L410.421 31.9072C409.798 30.3862 409.491 28.7495 409.491 27.0098C409.491 25.0352 409.858 23.1775 410.599 21.4482L410.602 21.4414C411.358 19.7088 412.398 18.1781 413.72 16.8564L413.727 16.8496C415.069 15.5321 416.608 14.5047 418.34 13.7715L418.669 13.6328C420.325 12.9607 422.086 12.626 423.942 12.626ZM423.942 13.627C422.094 13.627 420.359 13.9811 418.739 14.6885L418.438 14.8203C416.94 15.4941 415.603 16.4085 414.427 17.5635C413.195 18.7956 412.225 20.2219 411.518 21.8418C410.833 23.4388 410.491 25.1618 410.491 27.0098L410.504 27.6123C410.566 29.0048 410.848 30.3105 411.347 31.5283C411.94 32.8971 412.761 34.0954 413.811 35.1221C414.883 36.126 416.127 36.913 417.542 37.4834C418.78 37.9825 420.114 38.2638 421.544 38.3262L422.162 38.3398C423.895 38.3398 425.527 38.0381 427.06 37.4365L427.365 37.3125C428.985 36.6052 430.412 35.6353 431.644 34.4033C432.82 33.2482 433.746 31.932 434.421 30.4561L434.553 30.1592C435.26 28.5392 435.613 26.8041 435.613 24.9561C435.613 23.3363 435.317 21.8415 434.724 20.4727C434.153 19.081 433.332 17.8828 432.26 16.8789C431.341 15.9806 430.283 15.257 429.085 14.708L428.562 14.4834C427.325 13.9842 425.991 13.703 424.561 13.6406L423.942 13.627Z" fill="white" fill-opacity="0.08"/>
<path fill-rule="evenodd" clip-rule="evenodd" d="M326.209 19.0352C327.03 19.0352 327.681 19.2634 328.16 19.7197C328.662 20.176 328.913 20.7928 328.913 21.5684L328.905 21.7715C328.873 22.2404 328.727 22.6751 328.468 23.0742C328.194 23.5075 327.806 23.861 327.304 24.1348C326.825 24.3856 326.266 24.5117 325.627 24.5117H319.603L320.767 19.0352H326.209ZM320.838 23.5117H325.627C326.129 23.5117 326.521 23.4131 326.832 23.252C327.198 23.051 327.45 22.8116 327.622 22.54L327.629 22.5293C327.819 22.2364 327.913 21.9234 327.913 21.5684C327.913 21.0973 327.788 20.7843 327.581 20.5537L327.487 20.46L327.47 20.4443C327.25 20.2353 326.932 20.0787 326.434 20.043L326.209 20.0352H321.577L320.838 23.5117Z" fill="white" fill-opacity="0.08"/>
<path fill-rule="evenodd" clip-rule="evenodd" d="M327.235 13.0039C328.88 13.0039 330.364 13.3408 331.654 14.0518C332.942 14.7258 333.962 15.68 334.694 16.9062C335.441 18.1325 335.8 19.5386 335.8 21.0889L335.794 21.4092C335.74 23.0007 335.278 24.4713 334.41 25.8008L334.411 25.8018C333.518 27.2053 332.306 28.3228 330.798 29.1523L330.786 29.1592C329.26 29.9731 327.567 30.3721 325.729 30.3721H319.353L317.539 38.9629H309.742L315.268 13.0039H327.235ZM316.077 14.0039L310.978 37.9629H316.728L318.542 29.3721H325.729L326.044 29.3672C327.608 29.3244 329.033 28.9609 330.316 28.2764C331.6 27.5706 332.632 26.6438 333.414 25.4971L333.567 25.2646C334.337 24.0883 334.747 22.791 334.795 21.374L334.8 21.0889C334.8 19.6973 334.48 18.4762 333.842 17.4268C333.243 16.4214 332.423 15.6262 331.383 15.042L331.172 14.9277C330.194 14.3886 329.066 14.0859 327.791 14.0186L327.235 14.0039H316.077Z" fill="white" fill-opacity="0.08"/>
<path fill-rule="evenodd" clip-rule="evenodd" d="M340.835 38.9629H333.04L338.565 13.0039H346.36L340.835 38.9629ZM334.274 37.9629H340.025L345.125 14.0039H339.375L334.274 37.9629Z" fill="white" fill-opacity="0.08"/>
<path fill-rule="evenodd" clip-rule="evenodd" d="M368.495 20.2061H360.865L356.86 38.9629H349.03L353.035 20.2061H345.33L346.894 13.0039H370.059L368.495 20.2061ZM346.57 19.2061H354.271L350.267 37.9629H356.051L360.056 19.2061H367.688L368.818 14.0039H347.7L346.57 19.2061Z" fill="white" fill-opacity="0.08"/>
<path fill-rule="evenodd" clip-rule="evenodd" d="M378.066 27.4893H372.351L376.8 19.8223L378.066 27.4893ZM374.087 26.4893H376.888L376.267 22.7314L374.087 26.4893Z" fill="white" fill-opacity="0.08"/>
<path fill-rule="evenodd" clip-rule="evenodd" d="M386.939 38.9629H378.93L377.972 33.1787H370.223L366.868 38.9629H358.213L374.048 13.0039H382.044L386.939 38.9629ZM359.994 37.9629H366.292L369.646 32.1787H378.819L379.777 37.9629H385.733L381.215 14.0039H374.609L359.994 37.9629Z" fill="white" fill-opacity="0.08"/>
<path fill-rule="evenodd" clip-rule="evenodd" d="M555.145 12.7646C557.509 12.7646 559.641 13.2229 561.513 14.1699C563.409 15.1183 564.92 16.4883 566.023 18.2686L566.479 19.0049L560.416 24.0967L559.821 23.0566C559.331 22.1987 558.735 21.5498 558.037 21.085L557.731 20.8975L557.708 20.8838C556.9 20.3954 555.954 20.1377 554.837 20.1377C553.992 20.1377 553.207 20.3043 552.473 20.6328C551.73 20.9652 551.073 21.433 550.501 22.0449C549.951 22.6343 549.515 23.3267 549.193 24.1299C548.878 24.9191 548.718 25.7628 548.718 26.668L548.729 27.0469C548.78 27.9144 549.009 28.6881 549.404 29.3828C549.886 30.1884 550.523 30.8144 551.324 31.2734C552.141 31.7284 553.076 31.9658 554.152 31.9658C555.101 31.9658 556.008 31.7688 556.881 31.373C557.784 30.951 558.645 30.331 559.46 29.4951L560.246 28.6895L564.692 34.1875L564.079 34.8242C562.724 36.228 561.082 37.3394 559.168 38.1631L559.163 38.165C557.271 38.9656 555.358 39.374 553.434 39.374C551.783 39.374 550.223 39.1047 548.764 38.5586L548.474 38.4453L548.464 38.4414L548.455 38.4375C547.142 37.8778 545.956 37.1371 544.902 36.2158L544.459 35.8105L544.443 35.7949C543.447 34.7984 542.639 33.6673 542.021 32.4062L541.769 31.8574L541.767 31.8516C541.118 30.329 540.796 28.6998 540.796 26.9756C540.796 25.022 541.164 23.176 541.904 21.4482L541.909 21.4365C542.665 19.7294 543.693 18.223 544.991 16.9248L544.998 16.918C546.319 15.6213 547.838 14.6051 549.549 13.8721L549.554 13.8701C551.303 13.131 553.17 12.7647 555.145 12.7646ZM555.145 13.7646C553.296 13.7647 551.562 14.1065 549.942 14.791C548.345 15.4756 546.93 16.4225 545.698 17.6318C544.489 18.8411 543.531 20.2447 542.823 21.8418C542.139 23.4389 541.796 25.1504 541.796 26.9756C541.796 28.5727 542.093 30.0682 542.687 31.46C543.28 32.8287 544.101 34.0385 545.15 35.0879C546.223 36.1146 547.456 36.9244 548.848 37.5176C550.086 38.0167 551.411 38.298 552.823 38.3604L553.434 38.374C555.102 38.374 556.771 38.0426 558.439 37.3809L558.773 37.2441C560.576 36.4684 562.105 35.4302 563.359 34.1299L560.177 30.1934C559.287 31.1059 558.328 31.8021 557.302 32.2812C556.298 32.7376 555.248 32.9658 554.152 32.9658L553.696 32.9531C552.796 32.9018 551.965 32.6963 551.206 32.3369L550.832 32.1445C549.874 31.597 549.109 30.8429 548.539 29.8848C548.06 29.0464 547.79 28.1204 547.73 27.1074L547.718 26.668C547.718 25.7697 547.857 24.9145 548.137 24.1035L548.266 23.7588C548.631 22.8462 549.133 22.0468 549.771 21.3623C550.433 20.6551 551.198 20.1076 552.064 19.7197C552.932 19.3318 553.856 19.1377 554.837 19.1377C556.115 19.1377 557.244 19.4341 558.226 20.0273C559.229 20.5978 560.051 21.4426 560.689 22.5605L565.174 18.7959C564.17 17.1759 562.8 15.9315 561.066 15.0645C559.462 14.2516 557.627 13.8204 555.562 13.7695L555.145 13.7646Z" fill="white" fill-opacity="0.08"/>
<path fill-rule="evenodd" clip-rule="evenodd" d="M578.437 19.0352C579.623 19.0352 580.673 19.3088 581.586 19.8564C582.521 20.404 583.252 21.1571 583.776 22.1152C584.301 23.0507 584.563 24.1238 584.563 25.333L584.555 25.7236C584.515 26.6295 584.335 27.492 584.016 28.3105C583.651 29.2231 583.137 30.034 582.476 30.7412C581.814 31.4255 581.049 31.9618 580.183 32.3496C579.338 32.7374 578.414 32.9316 577.41 32.9316L576.971 32.9189C576.104 32.8676 575.308 32.6621 574.583 32.3027L574.227 32.1104C573.314 31.5628 572.595 30.8201 572.07 29.8848C571.611 29.0464 571.353 28.1115 571.296 27.0811L571.283 26.6338C571.283 25.7154 571.423 24.8487 571.702 24.0352L571.831 23.6904C572.15 22.8719 572.583 22.1488 573.13 21.5225L573.371 21.2598C573.95 20.6409 574.608 20.1439 575.344 19.7695L575.664 19.6172C576.531 19.2293 577.455 19.0352 578.437 19.0352ZM578.437 20.0352C577.591 20.0352 576.807 20.2018 576.072 20.5303C575.329 20.8627 574.674 21.3314 574.102 21.9434L574.09 21.9551C573.525 22.5391 573.082 23.235 572.763 24.0537L572.76 24.0615C572.445 24.8482 572.283 25.7028 572.283 26.6338L572.294 27.0244C572.343 27.9166 572.564 28.7024 572.942 29.3965C573.382 30.1792 573.976 30.7922 574.735 31.249C575.503 31.6972 576.386 31.9316 577.41 31.9316C578.282 31.9316 579.062 31.7642 579.765 31.4414L579.773 31.4365C580.519 31.1028 581.175 30.6436 581.746 30.0557C582.321 29.4409 582.768 28.7377 583.087 27.9395C583.403 27.1273 583.563 26.2608 583.563 25.333C583.563 24.4055 583.388 23.6005 583.056 22.8994L582.904 22.6045L582.899 22.5957C582.516 21.8952 582.006 21.3331 581.364 20.8984L581.08 20.7197L581.071 20.7139C580.331 20.2699 579.463 20.0352 578.437 20.0352Z" fill="white" fill-opacity="0.08"/>
<path fill-rule="evenodd" clip-rule="evenodd" d="M578.813 12.626C580.484 12.626 582.055 12.8959 583.517 13.4424L583.808 13.5557C585.332 14.1702 586.67 15.0342 587.813 16.1484C588.989 17.2486 589.889 18.5614 590.513 20.0752C591.165 21.5799 591.484 23.2114 591.484 24.9561C591.484 26.9329 591.105 28.8018 590.342 30.5518L590.343 30.5527C589.607 32.2683 588.564 33.7887 587.221 35.1094L587.222 35.1104C585.9 36.4321 584.369 37.4729 582.636 38.2295L582.625 38.2334C580.876 38.9726 579.008 39.3398 577.033 39.3398C575.363 39.3398 573.792 39.0708 572.33 38.5244L572.039 38.4111C570.514 37.7964 569.164 36.943 567.998 35.8516L567.99 35.8447L567.982 35.8369C566.982 34.858 566.172 33.7351 565.554 32.4746L565.3 31.9258L565.296 31.917L565.292 31.9072C564.669 30.3862 564.362 28.7495 564.362 27.0098C564.362 25.0352 564.729 23.1775 565.47 21.4482L565.473 21.4414C566.229 19.7088 567.269 18.1781 568.591 16.8564L568.598 16.8496C569.94 15.5321 571.479 14.5047 573.211 13.7715L573.54 13.6328C575.197 12.9607 576.958 12.626 578.813 12.626ZM578.813 13.627C576.965 13.627 575.23 13.9811 573.61 14.6885L573.309 14.8203C571.811 15.4941 570.474 16.4085 569.298 17.5635C568.066 18.7956 567.096 20.2219 566.389 21.8418C565.704 23.4388 565.362 25.1618 565.362 27.0098L565.375 27.6123C565.437 29.0048 565.719 30.3105 566.218 31.5283C566.811 32.8971 567.632 34.0954 568.682 35.1221C569.754 36.126 570.998 36.913 572.413 37.4834C573.651 37.9825 574.985 38.2638 576.415 38.3262L577.033 38.3398C578.766 38.3398 580.399 38.0381 581.931 37.4365L582.236 37.3125C583.856 36.6052 585.283 35.6353 586.515 34.4033C587.691 33.2482 588.617 31.932 589.292 30.4561L589.424 30.1592C590.131 28.5392 590.484 26.8041 590.484 24.9561C590.484 23.3363 590.188 21.8415 589.595 20.4727C589.024 19.081 588.203 17.8828 587.131 16.8789C586.213 15.9806 585.154 15.257 583.956 14.708L583.434 14.4834C582.196 13.9842 580.862 13.703 579.432 13.6406L578.813 13.627Z" fill="white" fill-opacity="0.08"/>
<path fill-rule="evenodd" clip-rule="evenodd" d="M481.08 19.0352C481.901 19.0352 482.552 19.2634 483.031 19.7197C483.533 20.176 483.784 20.7928 483.784 21.5684L483.776 21.7715C483.744 22.2404 483.598 22.6751 483.339 23.0742C483.065 23.5075 482.677 23.861 482.175 24.1348C481.696 24.3856 481.137 24.5117 480.498 24.5117H474.474L475.638 19.0352H481.08ZM475.709 23.5117H480.498C481 23.5117 481.392 23.4131 481.703 23.252C482.069 23.051 482.322 22.8116 482.493 22.54L482.5 22.5293C482.69 22.2364 482.784 21.9234 482.784 21.5684C482.784 21.0973 482.659 20.7843 482.452 20.5537L482.358 20.46L482.341 20.4443C482.121 20.2353 481.803 20.0787 481.305 20.043L481.08 20.0352H476.448L475.709 23.5117Z" fill="white" fill-opacity="0.08"/>
<path fill-rule="evenodd" clip-rule="evenodd" d="M482.106 13.0039C483.751 13.0039 485.235 13.3408 486.525 14.0518C487.813 14.7258 488.833 15.68 489.565 16.9062C490.312 18.1325 490.671 19.5386 490.671 21.0889L490.665 21.4092C490.611 23.0007 490.149 24.4713 489.281 25.8008L489.282 25.8018C488.389 27.2053 487.177 28.3228 485.669 29.1523L485.657 29.1592C484.131 29.9731 482.438 30.3721 480.601 30.3721H474.224L472.41 38.9629H464.613L470.139 13.0039H482.106ZM470.948 14.0039L465.849 37.9629H471.599L473.413 29.3721H480.601L480.915 29.3672C482.479 29.3244 483.904 28.9609 485.188 28.2764C486.471 27.5706 487.503 26.6438 488.285 25.4971L488.438 25.2646C489.208 24.0883 489.618 22.791 489.666 21.374L489.671 21.0889C489.671 19.6973 489.352 18.4762 488.713 17.4268C488.114 16.4214 487.294 15.6262 486.254 15.042L486.043 14.9277C485.065 14.3886 483.937 14.0859 482.662 14.0186L482.106 14.0039H470.948Z" fill="white" fill-opacity="0.08"/>
<path fill-rule="evenodd" clip-rule="evenodd" d="M495.706 38.9629H487.911L493.437 13.0039H501.231L495.706 38.9629ZM489.146 37.9629H494.896L499.996 14.0039H494.246L489.146 37.9629Z" fill="white" fill-opacity="0.08"/>
<path fill-rule="evenodd" clip-rule="evenodd" d="M523.366 20.2061H515.736L511.731 38.9629H503.901L507.906 20.2061H500.201L501.765 13.0039H524.93L523.366 20.2061ZM501.441 19.2061H509.143L505.138 37.9629H510.922L514.927 19.2061H522.56L523.689 14.0039H502.571L501.441 19.2061Z" fill="white" fill-opacity="0.08"/>
<path fill-rule="evenodd" clip-rule="evenodd" d="M532.938 27.4893H527.222L531.671 19.8223L532.938 27.4893ZM528.958 26.4893H531.759L531.138 22.7314L528.958 26.4893Z" fill="white" fill-opacity="0.08"/>
<path fill-rule="evenodd" clip-rule="evenodd" d="M541.811 38.9629H533.801L532.843 33.1787H525.094L521.739 38.9629H513.084L528.919 13.0039H536.915L541.811 38.9629ZM514.865 37.9629H521.163L524.518 32.1787H533.69L534.648 37.9629H540.604L536.086 14.0039H529.48L514.865 37.9629Z" fill="white" fill-opacity="0.08"/>
</svg>
