<svg width="20" height="20" viewBox="0 0 20 20" fill="none" xmlns="http://www.w3.org/2000/svg">
<path d="M7.132 4.739C7.47213 5.07914 7.47213 5.6306 7.132 5.97074L3.97367 9.12906H18.129C18.6101 9.12906 19 9.51901 19 10C19 10.4811 18.6101 10.871 18.129 10.871H3.97367L7.132 14.0293C7.47213 14.3695 7.47213 14.9209 7.132 15.2611C6.79186 15.6012 6.2404 15.6012 5.90026 15.2611L1.25569 10.6165C1.25549 10.6163 1.25589 10.6167 1.25569 10.6165C1.17218 10.533 1.10859 10.4362 1.06609 10.3334C1.0235 10.2307 1 10.1181 1 10C1 9.88194 1.0235 9.76933 1.06609 9.66664C1.10859 9.56391 1.1716 9.46767 1.2551 9.38416C1.2549 9.38436 1.2553 9.38397 1.2551 9.38416L5.90026 4.739C6.2404 4.39887 6.79186 4.39887 7.132 4.739Z" fill="#FBFBFB"/>
</svg>
