<svg width="14" height="14" viewBox="0 0 14 14" fill="none" xmlns="http://www.w3.org/2000/svg">
<path d="M11.1474 8.75479H10.3229C10.3229 8.79966 10.3194 8.84543 10.3072 8.89082C9.56772 11.6502 7.42627 12.6356 6.36836 12.775C6.08103 12.8127 5.81774 12.6104 5.77979 12.3231C5.74202 12.0358 5.94425 11.7725 6.23164 11.7346C6.93003 11.6424 8.61072 10.9281 9.25313 8.75479H8.45264L9.8 6.421L11.1474 8.75479Z" fill="#FBFBFB" fill-opacity="0.5"/>
<path d="M11.2 0.875C12.2631 0.875 13.125 1.73685 13.125 2.8V9.31875C13.125 9.6087 12.8899 9.84375 12.6 9.84375C12.3101 9.84375 12.075 9.6087 12.075 9.31875V2.8C12.075 2.31675 11.6832 1.925 11.2 1.925H2.8C2.31675 1.925 1.925 2.31675 1.925 2.8V9.31875C1.925 9.6087 1.68995 9.84375 1.4 9.84375C1.11005 9.84375 0.875 9.6087 0.875 9.31875V2.8C0.875 1.73685 1.73685 0.875 2.8 0.875H11.2Z" fill="#FBFBFB" fill-opacity="0.5"/>
</svg>
