<svg width="40" height="40" viewBox="0 0 40 40" fill="none" xmlns="http://www.w3.org/2000/svg">
<path d="M26.7722 14.3277C27.0759 14.024 27.0759 13.5315 26.7722 13.2278C26.4685 12.9241 25.976 12.9241 25.6723 13.2278L20 18.9001L14.3277 13.2278C14.024 12.9241 13.5315 12.9241 13.2278 13.2278C12.9241 13.5315 12.9241 14.024 13.2278 14.3277L18.9001 20L13.2278 25.6723C12.9241 25.976 12.9241 26.4685 13.2278 26.7722C13.5315 27.0759 14.024 27.0759 14.3277 26.7722L20 21.0999L25.6723 26.7722C25.976 27.0759 26.4685 27.0759 26.7722 26.7722C27.0759 26.4685 27.0759 25.976 26.7722 25.6723L21.0999 20L26.7722 14.3277Z" fill="#FBFBFB"/>
</svg>
