<svg width="14" height="14" viewBox="0 0 14 14" fill="none" xmlns="http://www.w3.org/2000/svg">
<path d="M8.29605 10.0435C8.43263 9.80868 8.72365 9.71922 8.96597 9.82884L9.01382 9.85345L9.17105 9.95325C9.53415 10.2039 9.85867 10.5823 9.85874 11.0832C9.85872 11.7113 9.35923 12.1382 8.88257 12.3766C8.37304 12.6313 7.70598 12.7751 6.99995 12.7751C6.29389 12.7751 5.62687 12.6313 5.11733 12.3766C4.64064 12.1382 4.14187 11.7113 4.14185 11.0832C4.14193 10.5031 4.56788 10.0967 4.98677 9.85345C5.23734 9.70821 5.55824 9.79314 5.70386 10.0435C5.84939 10.2941 5.76432 10.6156 5.51382 10.7613C5.37332 10.8428 5.28597 10.921 5.23833 10.9827C5.19393 11.0403 5.19187 11.0724 5.19185 11.0832C5.1919 11.097 5.21845 11.253 5.58696 11.4373C5.92314 11.6054 6.42299 11.7251 6.99995 11.7251C7.57698 11.7251 8.07744 11.6054 8.41362 11.4373C8.78173 11.2531 8.80868 11.097 8.80874 11.0832C8.80871 11.0764 8.80687 11.0441 8.76089 10.9841C8.72462 10.9368 8.66628 10.8805 8.5811 10.8214L8.48677 10.7613L8.44165 10.7319C8.22621 10.5757 8.15955 10.2786 8.29605 10.0435Z" fill="#FBFBFB" fill-opacity="0.5"/>
<path fill-rule="evenodd" clip-rule="evenodd" d="M6.73677 1.29622C6.89858 1.2024 7.09798 1.2014 7.2604 1.29417L11.3435 3.62796C11.507 3.7214 11.608 3.89494 11.6081 4.08324C11.608 4.2716 11.5071 4.44573 11.3435 4.53919L7.52495 6.72054V10.5001C7.5249 10.79 7.28987 11.0251 6.99995 11.0251C6.71003 11.0251 6.475 10.79 6.47495 10.5001V1.75013L6.47974 1.6804C6.50111 1.52079 6.59526 1.37836 6.73677 1.29622ZM7.52495 5.51195L10.0249 4.08324L7.52495 2.65452V5.51195Z" fill="#FBFBFB" fill-opacity="0.5"/>
</svg>
