<svg width="21" height="21" viewBox="0 0 21 21" fill="none" xmlns="http://www.w3.org/2000/svg">
<path fill-rule="evenodd" clip-rule="evenodd" d="M10.9535 1.78705C10.6945 1.55829 10.3055 1.55829 10.0465 1.78705C8.04843 3.55251 5.44057 4.47171 2.77549 4.34992C2.46058 4.33553 2.17656 4.53784 2.08766 4.83989C1.64791 6.33383 1.51336 7.90081 1.69199 9.4477C1.87062 10.9946 2.3588 12.4899 3.12751 13.8446C3.89622 15.1994 4.92978 16.386 6.16676 17.3339C7.40375 18.2819 8.81892 18.9719 10.3282 19.3628C10.4409 19.392 10.5591 19.392 10.6718 19.3628C12.1811 18.9719 13.5963 18.2819 14.8332 17.3339C16.0702 16.386 17.1038 15.1994 17.8725 13.8446C18.6412 12.4899 19.1294 10.9946 19.308 9.4477C19.4866 7.90081 19.3521 6.33383 18.9123 4.83989C18.8234 4.53784 18.5394 4.33553 18.2245 4.34992C15.5594 4.47171 12.9516 3.55251 10.9535 1.78705ZM3.05165 9.29111C2.91392 8.09849 2.98718 6.89235 3.26671 5.72749C5.89554 5.72262 8.44567 4.82823 10.5 3.19133C12.5543 4.82823 15.1045 5.72262 17.7333 5.72749C18.0128 6.89235 18.0861 8.09849 17.9484 9.29111C17.9415 9.35037 17.9342 9.40954 17.9263 9.46863C17.8956 9.45999 17.8639 9.45355 17.8314 9.44948L12.1914 8.74565C12.1243 8.68887 12.0073 8.47722 11.7206 7.90505C11.4898 7.44419 11.2595 7.018 11.2089 6.95797C11.0547 6.77494 10.7929 6.66736 10.5017 6.66736C10.3031 6.66736 10.2134 6.68616 10.0688 6.75812C9.96854 6.80804 9.84509 6.89795 9.79454 6.95797C9.74395 7.018 9.51366 7.44419 9.2828 7.90505C9.00266 8.46414 8.88614 8.6767 8.81838 8.73933C8.79877 8.74022 8.77903 8.74202 8.7592 8.74476L3.11291 9.52494C3.10254 9.52638 3.09226 9.52805 3.08208 9.52996C3.07101 9.45051 3.06086 9.37089 3.05165 9.29111ZM10.5 8.16192C10.5743 8.16192 10.6421 8.20403 10.675 8.27056L11.4325 9.80343L13.1262 10.0486C13.1998 10.0592 13.2609 10.1107 13.2838 10.1813C13.3068 10.2518 13.2876 10.3293 13.2343 10.3811L12.007 11.5742L12.2964 13.259C12.309 13.3322 12.2788 13.4061 12.2187 13.4497C12.1585 13.4933 12.0788 13.499 12.0131 13.4644L10.5017 12.669L8.98678 13.4645C8.92103 13.499 8.84136 13.4933 8.78127 13.4497C8.72117 13.4061 8.69108 13.3322 8.70364 13.259L8.99303 11.5742L7.76568 10.3811C7.71243 10.3293 7.69324 10.2518 7.7162 10.1813C7.73915 10.1107 7.80026 10.0592 7.87381 10.0486L9.56751 9.80343L10.325 8.27056C10.3579 8.20403 10.4257 8.16192 10.5 8.16192Z" fill="#FBFBFB" fill-opacity="0.32"/>
</svg>
