<svg preserveAspectRatio="none" width="100%" height="100%" overflow="visible" style="display: block;" viewBox="0 0 8.60572 10.8" fill="none" xmlns="http://www.w3.org/2000/svg">
<g id="Union">
<path d="M4.30286 0C4.55849 0 4.76572 0.207228 4.76572 0.462857L4.76572 10.3371C4.76572 10.5928 4.55849 10.8 4.30286 10.8C4.04723 10.8 3.84 10.5928 3.84 10.3371L3.84 0.462857C3.84 0.207228 4.04723 0 4.30286 0Z" fill="var(--fill-0, #FBFBFB)" fill-opacity="0.7"/>
<path d="M8.14287 3.70286C8.39849 3.70286 8.60572 3.91009 8.60572 4.16571V10.3371C8.60572 10.5928 8.39849 10.8 8.14287 10.8C7.88724 10.8 7.68001 10.5928 7.68001 10.3371V4.16571C7.68001 3.91009 7.88724 3.70286 8.14287 3.70286Z" fill="var(--fill-0, #FBFBFB)" fill-opacity="0.7"/>
<path d="M0.925714 6.63414C0.925714 6.37851 0.718486 6.17128 0.462857 6.17128C0.207228 6.17128 0 6.37851 0 6.63414V10.337C0 10.5926 0.207228 10.7998 0.462857 10.7998C0.718486 10.7998 0.925714 10.5926 0.925714 10.337L0.925714 6.63414Z" fill="var(--fill-0, #FBFBFB)" fill-opacity="0.7"/>
</g>
</svg>
