<svg preserveAspectRatio="none" width="100%" height="100%" overflow="visible" style="display: block;" viewBox="0 0 12 12" fill="none" xmlns="http://www.w3.org/2000/svg">
<g id="icon">
<path id="Union" d="M5.9577 1C6.4645 1.0004 6.87685 1.41375 6.87685 1.92064V2.06113C7.58998 2.18647 8.16141 2.62734 8.5059 3.18502C8.77226 3.61642 8.63827 4.1814 8.20699 4.44792C7.7758 4.71402 7.21073 4.58129 6.9441 4.1505C6.82193 3.95279 6.64687 3.85757 6.46585 3.85757H5.34942C5.06589 3.85777 4.8353 4.08827 4.8353 4.37169C4.83543 4.60435 4.99589 4.80993 5.22538 4.86788L7.13541 5.34763C8.18414 5.60841 8.91391 6.55152 8.91391 7.62681C8.9136 8.81802 8.02624 9.79892 6.87685 9.95232V10.0823C6.87683 10.5892 6.46449 10.9996 5.9577 11C5.45082 10.9997 5.04007 10.5893 5.04005 10.0823V9.93738C4.32257 9.81236 3.74799 9.36839 3.40353 8.80451C3.13952 8.37195 3.27614 7.80755 3.70841 7.54312C4.14113 7.27878 4.70689 7.41536 4.9713 7.848C5.09229 8.04559 5.26481 8.13931 5.44657 8.13944H6.563C6.84649 8.13944 7.07678 7.91007 7.07712 7.62681C7.07712 7.3905 6.91597 7.18516 6.69003 7.12913L4.77701 6.64938C3.73382 6.38664 3.00013 5.44852 3 4.37169C3 3.17887 3.8888 2.19634 5.04005 2.04469V1.92064C5.04005 1.41368 5.45081 1.00028 5.9577 1Z" fill="var(--fill-0, black)"/>
</g>
</svg>
