<svg preserveAspectRatio="none" width="100%" height="100%" overflow="visible" style="display: block;" viewBox="0 0 11.2 11.2" fill="none" xmlns="http://www.w3.org/2000/svg">
<path id="Union" d="M11.0178 1.0622C11.2607 0.819207 11.2607 0.425238 11.0178 0.182245C10.7748 -0.0607482 10.3808 -0.0607482 10.1378 0.182245L5.6 4.72004L1.0622 0.182245C0.819207 -0.0607482 0.425238 -0.0607482 0.182245 0.182245C-0.0607482 0.425238 -0.0607482 0.819207 0.182245 1.0622L4.72004 5.6L0.182245 10.1378C-0.0607482 10.3808 -0.0607482 10.7748 0.182245 11.0178C0.425238 11.2607 0.819207 11.2607 1.0622 11.0178L5.6 6.47995L10.1378 11.0178C10.3808 11.2607 10.7748 11.2607 11.0178 11.0178C11.2607 10.7748 11.2607 10.3808 11.0178 10.1378L6.47995 5.6L11.0178 1.0622Z" fill="var(--fill-0, white)"/>
</svg>
