<svg width="14" height="14" viewBox="0 0 14 14" fill="none" xmlns="http://www.w3.org/2000/svg">
<g clip-path="url(#clip0_641_15338)">
<path fill-rule="evenodd" clip-rule="evenodd" d="M11.023 0C10.2335 0 9.47626 0.313646 8.91797 0.871939L8.09074 1.69917C8.08917 1.70071 8.0876 1.70226 8.08604 1.70382C8.08449 1.70537 8.08294 1.70694 8.0814 1.70851L0.182749 9.60716C0.0657368 9.72417 0 9.88287 0 10.0484V13.3761C0 13.7207 0.279349 14 0.623944 14H3.95165C4.11713 14 4.27583 13.9343 4.39284 13.8173L13.1281 5.08203C13.6864 4.52374 14 3.76653 14 2.97699C14 2.18744 13.6864 1.43023 13.1281 0.871939C12.5698 0.313646 11.8126 0 11.023 0ZM8.52726 3.02743L1.24789 10.3068V12.7521H3.6932L10.9726 5.47274L8.52726 3.02743ZM11.855 4.59035L12.2457 4.19964C12.5699 3.87537 12.7521 3.43557 12.7521 2.97699C12.7521 2.5184 12.5699 2.0786 12.2457 1.75433C11.9214 1.43006 11.4816 1.24789 11.023 1.24789C10.5644 1.24789 10.1246 1.43006 9.80036 1.75433L9.40965 2.14504L11.855 4.59035Z" fill="#FBFBFB" fill-opacity="0.5"/>
</g>
<defs>
<clipPath id="clip0_641_15338">
<rect width="14" height="14" fill="white"/>
</clipPath>
</defs>
</svg>
