<svg width="18" height="18" viewBox="0 0 18 18" fill="none" xmlns="http://www.w3.org/2000/svg">
<g clip-path="url(#clip0_979_33999)">
<path fill-rule="evenodd" clip-rule="evenodd" d="M4.49897 3.18153C5.6928 1.9877 7.31198 1.31701 9.00031 1.31701C10.6886 1.31701 12.3078 1.9877 13.5016 3.18153C14.6955 4.37536 15.3662 5.99454 15.3662 7.68287V8.16624C15.0294 7.99439 14.6537 7.90238 14.2686 7.90238H13.3906C12.7502 7.90238 12.136 8.15678 11.6832 8.60961C11.2303 9.06244 10.9759 9.67661 10.9759 10.317V12.9512C10.9759 13.5916 11.2303 14.2057 11.6832 14.6586C12.1151 15.0905 12.6938 15.3419 13.302 15.3642C13.116 15.5673 12.835 15.779 12.4311 15.9809C11.5872 16.4029 10.3752 16.6829 9.00031 16.6829C8.63661 16.6829 8.34177 16.9777 8.34177 17.3414C8.34177 17.7051 8.63661 17.9999 9.00031 17.9999C10.5353 17.9999 11.9574 17.6903 13.0202 17.1589C13.8534 16.7423 14.594 16.1155 14.8404 15.2971C15.2668 15.1932 15.6606 14.974 15.976 14.6586C16.4288 14.2057 16.6832 13.5916 16.6832 12.9512V7.68287C16.6832 5.64523 15.8738 3.69104 14.433 2.25022C12.9921 0.809388 11.0379 -6.10352e-05 9.00031 -6.10352e-05C6.96267 -6.10352e-05 5.00849 0.809388 3.56766 2.25022C2.12683 3.69104 1.31738 5.64523 1.31738 7.68287V12.9512C1.31738 13.5916 1.57178 14.2057 2.02461 14.6586C2.47744 15.1114 3.09162 15.3658 3.73202 15.3658H4.61007C5.25047 15.3658 5.86464 15.1114 6.31747 14.6586C6.7703 14.2057 7.0247 13.5916 7.0247 12.9512V10.317C7.0247 9.67661 6.7703 9.06244 6.31747 8.60961C5.86464 8.15678 5.25047 7.90238 4.61007 7.90238H3.73202C3.34688 7.90238 2.97123 7.99439 2.63446 8.16624V7.68287C2.63446 5.99454 3.30514 4.37536 4.49897 3.18153ZM14.2686 14.0487C14.5597 14.0487 14.8389 13.9331 15.0447 13.7273C15.2505 13.5214 15.3662 13.2422 15.3662 12.9512V10.317C15.3662 10.0259 15.2505 9.74675 15.0447 9.54092C14.8389 9.33509 14.5597 9.21945 14.2686 9.21945H13.3906C13.0995 9.21945 12.8203 9.33509 12.6145 9.54092C12.4086 9.74675 12.293 10.0259 12.293 10.317V12.9512C12.293 13.2422 12.4086 13.5214 12.6145 13.7273C12.8203 13.9331 13.0995 14.0487 13.3906 14.0487H14.2686ZM2.63446 12.9512V10.317C2.63446 10.0259 2.75009 9.74675 2.95592 9.54092C3.16176 9.33509 3.44093 9.21945 3.73202 9.21945H4.61007C4.90116 9.21945 5.18033 9.33509 5.38616 9.54092C5.59199 9.74675 5.70763 10.0259 5.70763 10.317V12.9512C5.70763 13.2422 5.59199 13.5214 5.38616 13.7273C5.18033 13.9331 4.90116 14.0487 4.61007 14.0487H3.73202C3.44093 14.0487 3.16176 13.9331 2.95592 13.7273C2.75009 13.5214 2.63446 13.2422 2.63446 12.9512Z" fill="white"/>
</g>
<defs>
<clipPath id="clip0_979_33999">
<rect width="18" height="18" fill="white"/>
</clipPath>
</defs>
</svg>
