<svg width="18" height="18" viewBox="0 0 18 18" fill="none" xmlns="http://www.w3.org/2000/svg">
<g clip-path="url(#clip0_976_34741)">
<path d="M9.69231 5.30772C9.69231 4.92537 9.38235 4.61542 9 4.61542C8.61765 4.61542 8.30769 4.92537 8.30769 5.30772V9.00003C8.30769 9.38238 8.61765 9.69234 9 9.69234C9.38235 9.69234 9.69231 9.38238 9.69231 9.00003V5.30772Z" fill="#F87171"/>
<path d="M9 12C8.61765 12 8.30769 12.31 8.30769 12.6923C8.30769 13.0747 8.61765 13.3846 9 13.3846H9.00923C9.39158 13.3846 9.70154 13.0747 9.70154 12.6923C9.70154 12.31 9.39158 12 9.00923 12H9Z" fill="#F87171"/>
<path fill-rule="evenodd" clip-rule="evenodd" d="M9 3.05176e-05C6.61305 3.05176e-05 4.32387 0.948242 2.63604 2.63607C0.948211 4.3239 0 6.61308 0 9.00003C0 10.1819 0.232792 11.3523 0.685084 12.4442C1.13738 13.5361 1.80031 14.5283 2.63604 15.364C3.47177 16.1997 4.46392 16.8627 5.55585 17.3149C6.64778 17.7672 7.8181 18 9 18C10.1819 18 11.3522 17.7672 12.4442 17.3149C13.5361 16.8627 14.5282 16.1997 15.364 15.364C16.1997 14.5283 16.8626 13.5361 17.3149 12.4442C17.7672 11.3523 18 10.1819 18 9.00003C18 6.61308 17.0518 4.3239 15.364 2.63607C13.6761 0.948242 11.3869 3.05176e-05 9 3.05176e-05ZM3.61511 3.61514C5.04327 2.18698 6.98027 1.38465 9 1.38465C11.0197 1.38465 12.9567 2.18698 14.3849 3.61514C15.8131 5.0433 16.6154 6.98031 16.6154 9.00003C16.6154 10.0001 16.4184 10.9904 16.0357 11.9143C15.653 12.8383 15.092 13.6778 14.3849 14.3849C13.6777 15.0921 12.8382 15.653 11.9143 16.0357C10.9903 16.4184 10.0001 16.6154 9 16.6154C7.99993 16.6154 7.00966 16.4184 6.08572 16.0357C5.16178 15.653 4.32226 15.0921 3.61511 14.3849C2.90796 13.6778 2.34701 12.8383 1.9643 11.9143C1.58159 10.9904 1.38462 10.0001 1.38462 9.00003C1.38462 6.98031 2.18695 5.0433 3.61511 3.61514Z" fill="#F87171"/>
</g>
<defs>
<clipPath id="clip0_976_34741">
<rect width="18" height="18" fill="white"/>
</clipPath>
</defs>
</svg>
