<svg width="20" height="20" viewBox="0 0 20 20" fill="none" xmlns="http://www.w3.org/2000/svg">
<path fill-rule="evenodd" clip-rule="evenodd" d="M10 0.706299C7.63229 0.706299 5.71289 2.6257 5.71289 4.9934C5.71289 7.36111 7.63229 9.28051 10 9.28051C12.3677 9.28051 14.2871 7.36111 14.2871 4.9934C14.2871 2.6257 12.3677 0.706299 10 0.706299ZM7.21289 4.9934C7.21289 3.45413 8.46072 2.2063 10 2.2063C11.5393 2.2063 12.7871 3.45413 12.7871 4.9934C12.7871 6.53268 11.5393 7.78051 10 7.78051C8.46072 7.78051 7.21289 6.53268 7.21289 4.9934Z" fill="#FBFBFB"/>
<path fill-rule="evenodd" clip-rule="evenodd" d="M9.99685 9.78052C6.167 9.78052 2.43872 12.3184 2.43872 16.1398C2.43872 16.3806 2.49479 16.6182 2.6025 16.8336C2.90068 17.4299 3.42337 17.8203 3.8514 18.0693C4.31519 18.339 4.86898 18.5579 5.46898 18.7317C6.67382 19.0807 8.22551 19.2938 9.99998 19.2938C11.7745 19.2938 13.3261 19.0807 14.531 18.7317C15.131 18.5579 15.6848 18.339 16.1486 18.0693C16.5766 17.8203 17.0993 17.4299 17.3975 16.8336C17.5052 16.6182 17.5612 16.3806 17.5612 16.1398C17.5612 12.3166 13.8244 9.78052 9.99685 9.78052ZM3.93872 16.1398C3.93872 13.4511 6.65423 11.2805 9.99685 11.2805C13.3394 11.2805 16.0612 13.451 16.0612 16.1398C16.0612 16.1478 16.0594 16.1556 16.0558 16.1627C15.9491 16.3762 15.7207 16.5828 15.3944 16.7726C15.0668 16.9632 14.6351 17.1399 14.1137 17.2909C13.0706 17.593 11.6634 17.7938 9.99998 17.7938C8.33658 17.7938 6.92932 17.593 5.88628 17.2909C5.36486 17.1399 4.93313 16.9632 4.60556 16.7726C4.27925 16.5828 4.05088 16.3762 3.94414 16.1627C3.94058 16.1556 3.93872 16.1478 3.93872 16.1398Z" fill="#FBFBFB"/>
</svg>
