<svg width="16" height="16" viewBox="0 0 16 16" fill="none" xmlns="http://www.w3.org/2000/svg">
<g clip-path="url(#clip0_91_20565)">
<path d="M3.49284 2.29227C4.21969 1.85853 5.64041 1.31003 7.3095 1.15038C8.97167 0.991388 10.8327 1.22192 12.4891 2.28295C12.7461 2.44755 13.0878 2.37267 13.2524 2.1157C13.417 1.85874 13.3421 1.51699 13.0852 1.35239C11.1641 0.121881 9.03643 -0.124939 7.20427 0.0503101C5.37903 0.224898 3.79977 0.822221 2.92656 1.3433C2.6645 1.49967 2.57883 1.83887 2.73521 2.10092C2.89158 2.36297 3.23078 2.44864 3.49284 2.29227Z" fill="#FBFBFB"/>
<path d="M2.22125 6.4106C3.16488 4.68162 5.17064 3.28736 7.3874 3.0318C9.56189 2.7811 11.9755 3.62318 13.7963 6.44544C13.9617 6.70187 14.3037 6.77563 14.5601 6.6102C14.8166 6.44477 14.8903 6.10278 14.7249 5.84635C12.6836 2.68227 9.86702 1.63351 7.26084 1.93398C4.69692 2.22957 2.37154 3.82848 1.25123 5.88119C1.10504 6.14905 1.20367 6.48471 1.47154 6.63091C1.7394 6.7771 2.07506 6.67847 2.22125 6.4106Z" fill="#FBFBFB"/>
<path d="M7.8255 5.00829C10.3574 4.90494 11.9439 6.18018 12.6724 7.62989C13.0413 8.36416 13.1862 9.13599 13.1278 9.79414C13.0691 10.4552 12.813 10.955 12.431 11.2374C12.2766 11.3516 11.9417 11.4712 11.5867 11.427C11.2715 11.3878 10.9211 11.2184 10.6628 10.7193C10.5615 10.4887 10.4899 10.2268 10.4049 9.91564L10.3864 9.84799C10.2973 9.5227 10.1896 9.14008 10.0104 8.79812C9.82433 8.44306 9.54884 8.10613 9.11341 7.89125C8.68528 7.67998 8.1633 7.6168 7.53649 7.68898C7.08327 7.74117 6.44402 7.93663 6.00188 8.5376C5.55762 9.14145 5.40239 10.032 5.65063 11.2749C5.91587 12.603 6.7732 13.6589 7.67582 14.4244C8.58156 15.1925 9.58561 15.7138 10.2507 15.9643C10.5363 16.0719 10.855 15.9276 10.9625 15.642C11.0701 15.3564 10.9258 15.0377 10.6402 14.9302C10.0804 14.7193 9.18943 14.259 8.39059 13.5816C7.58864 12.9014 6.93189 12.0477 6.73431 11.0585C6.51973 9.98408 6.70067 9.45256 6.89201 9.19249C7.08547 8.92954 7.38125 8.81925 7.66291 8.78681C8.15406 8.73025 8.44515 8.7938 8.62438 8.88224C8.79631 8.96709 8.92246 9.10287 9.03153 9.31103C9.14748 9.53231 9.22838 9.80344 9.32055 10.1399L9.34311 10.2226C9.42414 10.5203 9.51859 10.8672 9.65944 11.1827C9.66326 11.1913 9.6673 11.1998 9.67155 11.2081C10.1006 12.0511 10.7764 12.4398 11.4502 12.5236C12.0867 12.6028 12.7057 12.4087 13.0881 12.1259C13.7928 11.6048 14.1504 10.7715 14.2285 9.89189C14.3069 9.00941 14.1117 8.03308 13.6598 7.13371C12.7465 5.31614 10.768 3.78218 7.78043 3.90412C6.21531 3.968 5.01002 4.4071 4.11302 5.11695C3.21768 5.8255 2.67224 6.76993 2.36651 7.77255C1.76196 9.75519 2.07048 12.0362 2.52156 13.5017C2.61134 13.7934 2.92055 13.957 3.21221 13.8672C3.50387 13.7775 3.66753 13.4683 3.57775 13.1766C3.16365 11.8313 2.90638 9.79096 3.42355 8.09487C3.67869 7.25813 4.116 6.52386 4.79879 5.98352C5.47994 5.44449 6.44818 5.06451 7.8255 5.00829Z" fill="#FBFBFB"/>
<path d="M12.3268 10.393C12.2982 9.48222 11.995 8.13193 11.1939 7.09205C10.7871 6.56402 10.2447 6.10752 9.54004 5.84367C8.83394 5.57927 8.00257 5.52246 7.04239 5.73517C5.88492 5.99158 5.03464 6.57305 4.48657 7.37615C3.94495 8.16981 3.72832 9.13525 3.74581 10.1219C3.78056 12.082 4.73863 14.2546 6.20604 15.7391C6.42057 15.9562 6.77042 15.9582 6.98744 15.7437C7.20447 15.5291 7.2065 15.1793 6.99197 14.9623C5.70747 13.6628 4.88003 11.7553 4.85073 10.1023C4.83619 9.28239 5.0179 8.55805 5.39936 7.99908C5.77438 7.44956 6.37192 7.01558 7.2814 6.8141C8.06462 6.64059 8.67501 6.69978 9.15251 6.87859C9.63151 7.05795 10.0145 7.37187 10.3185 7.76647C10.9389 8.57183 11.1986 9.67562 11.2222 10.4277C11.2318 10.7327 11.4868 10.9722 11.7918 10.9626C12.0968 10.9531 12.3363 10.6981 12.3268 10.393Z" fill="#FBFBFB"/>
<path d="M8.55089 9.91274C8.54596 9.60762 8.29462 9.36426 7.9895 9.36919C7.68438 9.37411 7.44102 9.62545 7.44594 9.93058C7.46021 10.8147 7.7193 12.0625 8.54906 12.9996C9.41461 13.9772 10.8111 14.5171 12.8678 14.1063C13.167 14.0465 13.3612 13.7555 13.3014 13.4562C13.2416 13.157 12.9506 12.9628 12.6513 13.0226C10.9053 13.3714 9.9343 12.8971 9.37645 12.2671C8.78283 11.5966 8.56268 10.6432 8.55089 9.91274Z" fill="#FBFBFB"/>
</g>
<defs>
<clipPath id="clip0_91_20565">
<rect width="16" height="16" fill="white"/>
</clipPath>
</defs>
</svg>
