<svg width="24" height="24" viewBox="0 0 24 24" fill="none" xmlns="http://www.w3.org/2000/svg">
<rect width="24" height="24" rx="12" fill="#FBFBFB" fill-opacity="0.12"/>
<g clip-path="url(#clip0_665_12033)">
<path d="M12 4C12.3399 4 12.6154 4.27552 12.6154 4.61538V5.4359C12.6154 5.77577 12.3399 6.05128 12 6.05128C11.6601 6.05128 11.3846 5.77577 11.3846 5.4359V4.61538C11.3846 4.27552 11.6601 4 12 4Z" fill="#FBFBFB"/>
<path d="M6.31358 6.31358C6.5539 6.07325 6.94354 6.07325 7.18386 6.31358L7.75822 6.88793C7.99854 7.12826 7.99854 7.5179 7.75822 7.75822C7.5179 7.99854 7.12826 7.99854 6.88793 7.75822L6.31358 7.18386C6.07325 6.94354 6.07325 6.5539 6.31358 6.31358Z" fill="#FBFBFB"/>
<path d="M17.6864 6.31357C17.9267 6.5539 17.9267 6.94354 17.6864 7.18386L17.1121 7.75822C16.8717 7.99854 16.4821 7.99854 16.2418 7.75822C16.0015 7.5179 16.0015 7.12826 16.2418 6.88793L16.8161 6.31358C17.0565 6.07325 17.4461 6.07325 17.6864 6.31357Z" fill="#FBFBFB"/>
<path d="M4 12C4 11.6601 4.27552 11.3846 4.61538 11.3846H5.4359C5.77577 11.3846 6.05128 11.6601 6.05128 12C6.05128 12.3399 5.77577 12.6154 5.4359 12.6154H4.61538C4.27552 12.6154 4 12.3399 4 12Z" fill="#FBFBFB"/>
<path d="M17.9487 12C17.9487 11.6601 18.2242 11.3846 18.5641 11.3846H19.3846C19.7245 11.3846 20 11.6601 20 12C20 12.3399 19.7245 12.6154 19.3846 12.6154H18.5641C18.2242 12.6154 17.9487 12.3399 17.9487 12Z" fill="#FBFBFB"/>
<path fill-rule="evenodd" clip-rule="evenodd" d="M14.4693 16.3028C14.5727 16.0987 14.7069 15.911 14.8676 15.7465C15.6411 15.1544 16.2127 14.3372 16.5033 13.4067C16.7986 12.4616 16.789 11.4475 16.4758 10.5081C16.1627 9.56865 15.5619 8.75159 14.7586 8.1726C13.9553 7.59361 12.9902 7.28205 12 7.28205C11.0098 7.28205 10.0447 7.59361 9.24137 8.1726C8.43806 8.75159 7.83729 9.56865 7.52416 10.5081C7.21103 11.4475 7.2014 12.4616 7.49665 13.4067C7.78731 14.3372 8.35893 15.1544 9.13243 15.7465C9.29313 15.911 9.42732 16.0988 9.53079 16.3029C9.5453 16.3451 9.56427 16.3852 9.58714 16.4226C9.61371 16.4837 9.63762 16.546 9.65876 16.6095C9.77076 16.9455 9.80209 17.3031 9.75023 17.6535C9.74581 17.6833 9.74359 17.7134 9.74359 17.7436C9.74359 18.342 9.98132 18.916 10.4045 19.3391C10.8276 19.7623 11.4016 20 12 20C12.5984 20 13.1724 19.7623 13.5955 19.3391C14.0187 18.916 14.2564 18.342 14.2564 17.7436C14.2564 17.7134 14.2542 17.6833 14.2498 17.6535C14.1979 17.3031 14.2292 16.9455 14.3412 16.6095C14.3624 16.5461 14.3863 16.4838 14.4128 16.4228C14.4357 16.3852 14.4547 16.345 14.4693 16.3028ZM12 8.51282C11.2681 8.51282 10.5548 8.7431 9.96101 9.17105C9.36726 9.599 8.92322 10.2029 8.69177 10.8973C8.46032 11.5916 8.45321 12.3412 8.67144 13.0398C8.88967 13.7384 9.32217 14.3506 9.90769 14.7897C9.93015 14.8066 9.95143 14.825 9.97139 14.8447C10.1673 15.0386 10.3388 15.2544 10.483 15.4872H13.517C13.6612 15.2544 13.8327 15.0386 14.0286 14.8447C14.0486 14.825 14.0698 14.8066 14.0923 14.7897C14.6778 14.3506 15.1103 13.7384 15.3286 13.0398C15.5468 12.3412 15.5397 11.5916 15.3082 10.8973C15.0768 10.2029 14.6327 9.599 14.039 9.17105C13.4452 8.7431 12.7319 8.51282 12 8.51282ZM13.0476 16.7179H10.9524C11.0142 17.0683 11.0221 17.427 10.9751 17.7814C10.9846 18.0397 11.0914 18.2854 11.2748 18.4688C11.4671 18.6612 11.728 18.7692 12 18.7692C12.272 18.7692 12.5329 18.6612 12.7252 18.4688C12.9086 18.2854 13.0154 18.0397 13.0249 17.7814C12.9779 17.427 12.9858 17.0683 13.0476 16.7179Z" fill="#FBFBFB"/>
</g>
<defs>
<clipPath id="clip0_665_12033">
<rect width="16" height="16" fill="white" transform="translate(4 4)"/>
</clipPath>
</defs>
</svg>
