<svg width="20" height="20" viewBox="0 0 20 20" fill="none" xmlns="http://www.w3.org/2000/svg">
<g clip-path="url(#clip0_991_22655)">
<path d="M10 5.12825C9.57517 5.12825 9.23077 5.47265 9.23077 5.89748C9.23077 6.32232 9.57517 6.66671 10 6.66671H10.0103C10.4351 6.66671 10.7795 6.32232 10.7795 5.89748C10.7795 5.47265 10.4351 5.12825 10.0103 5.12825H10Z" fill="white"/>
<path d="M10.7795 10C10.7795 9.57521 10.4351 9.23082 10.0103 9.23082C9.58542 9.23082 9.24103 9.57521 9.24103 10V14.1026C9.24103 14.5274 9.58542 14.8718 10.0103 14.8718C10.4351 14.8718 10.7795 14.5274 10.7795 14.1026V10Z" fill="white"/>
<path fill-rule="evenodd" clip-rule="evenodd" d="M10 4.57764e-05C7.34784 4.57764e-05 4.8043 1.05361 2.92893 2.92898C1.05357 4.80434 0 7.34788 0 10C0 11.3133 0.258658 12.6136 0.761205 13.8269C1.26375 15.0401 2.00035 16.1425 2.92893 17.0711C3.85752 17.9997 4.95991 18.7363 6.17317 19.2388C7.38642 19.7414 8.68678 20 10 20C11.3132 20 12.6136 19.7414 13.8268 19.2388C15.0401 18.7363 16.1425 17.9997 17.0711 17.0711C17.9997 16.1425 18.7362 15.0401 19.2388 13.8269C19.7413 12.6136 20 11.3133 20 10C20 7.34788 18.9464 4.80434 17.0711 2.92898C15.1957 1.05361 12.6522 4.57764e-05 10 4.57764e-05ZM4.01679 4.01683C5.60364 2.42999 7.75586 1.53851 10 1.53851C12.2441 1.53851 14.3964 2.42999 15.9832 4.01683C17.5701 5.60368 18.4615 7.75591 18.4615 10C18.4615 11.1112 18.2427 12.2115 17.8174 13.2381C17.3922 14.2647 16.7689 15.1975 15.9832 15.9833C15.1975 16.769 14.2647 17.3923 13.2381 17.8175C12.2115 18.2427 11.1112 18.4616 10 18.4616C8.88881 18.4616 7.78851 18.2427 6.76191 17.8175C5.73531 17.3923 4.80252 16.769 4.01679 15.9833C3.23106 15.1975 2.60779 14.2647 2.18256 13.2381C1.75733 12.2115 1.53846 11.1112 1.53846 10C1.53846 7.75591 2.42994 5.60368 4.01679 4.01683Z" fill="white"/>
</g>
<defs>
<clipPath id="clip0_991_22655">
<rect width="20" height="20" fill="white"/>
</clipPath>
</defs>
</svg>
