<svg width="18" height="18" viewBox="0 0 18 18" fill="none" xmlns="http://www.w3.org/2000/svg">
<g clip-path="url(#clip0_665_4677)">
<path fill-rule="evenodd" clip-rule="evenodd" d="M7.85925 11.5501C8.1622 11.2472 8.57308 11.077 9.0015 11.077C9.42993 11.077 9.84081 11.2472 10.1438 11.5501C10.4467 11.8531 10.6169 12.2639 10.6169 12.6924C10.6169 13.1208 10.4467 13.5317 10.1438 13.8346C9.84081 14.1376 9.42993 14.3078 9.0015 14.3078C8.57308 14.3078 8.1622 14.1376 7.85925 13.8346C7.55631 13.5317 7.38612 13.1208 7.38612 12.6924C7.38612 12.2639 7.55631 11.8531 7.85925 11.5501ZM9.0015 12.4616C8.9403 12.4616 8.8816 12.4859 8.83832 12.5292C8.79505 12.5725 8.77073 12.6312 8.77073 12.6924C8.77073 12.7536 8.79505 12.8123 8.83832 12.8555C8.8816 12.8988 8.9403 12.9231 9.0015 12.9231C9.06271 12.9231 9.1214 12.8988 9.16468 12.8555C9.20796 12.8123 9.23227 12.7536 9.23227 12.6924C9.23227 12.6312 9.20796 12.5725 9.16468 12.5292C9.1214 12.4859 9.06271 12.4616 9.0015 12.4616Z" fill="#FBFBFB" fill-opacity="0.7"/>
<path fill-rule="evenodd" clip-rule="evenodd" d="M4.61689 7.38468V4.38468C4.61689 3.2218 5.07884 2.10656 5.90111 1.28429C6.72339 0.46201 7.83863 6.10352e-05 9.0015 6.10352e-05C10.1644 6.10352e-05 11.2796 0.46201 12.1019 1.28429C12.9242 2.10656 13.3861 3.2218 13.3861 4.38468V7.38468H13.6169C14.2901 7.38468 14.9358 7.65212 15.4119 8.12818C15.8879 8.60423 16.1553 9.2499 16.1553 9.92314V15.4616C16.1553 16.1348 15.8879 16.7805 15.4119 17.2566C14.9358 17.7326 14.2901 18.0001 13.6169 18.0001H4.38612C3.71288 18.0001 3.06721 17.7326 2.59115 17.2566C2.1151 16.7805 1.84766 16.1348 1.84766 15.4616V9.92314C1.84766 9.2499 2.1151 8.60423 2.59115 8.12818C3.06721 7.65212 3.71288 7.38468 4.38612 7.38468H4.61689ZM6.88018 2.26336C7.44279 1.70075 8.20585 1.38468 9.0015 1.38468C9.79715 1.38468 10.5602 1.70075 11.1228 2.26336C11.6854 2.82596 12.0015 3.58903 12.0015 4.38468V7.38468H6.0015V4.38468C6.0015 3.58903 6.31757 2.82596 6.88018 2.26336ZM13.6169 8.76929C13.9229 8.76929 14.2164 8.89086 14.4328 9.10725C14.6492 9.32363 14.7707 9.61712 14.7707 9.92314V15.4616C14.7707 15.7676 14.6492 16.0611 14.4328 16.2775C14.2164 16.4939 13.9229 16.6154 13.6169 16.6154H4.38612C4.0801 16.6154 3.78661 16.4939 3.57023 16.2775C3.35384 16.0611 3.23227 15.7676 3.23227 15.4616V9.92314C3.23227 9.61712 3.35384 9.32363 3.57023 9.10725C3.78661 8.89086 4.0801 8.76929 4.38612 8.76929H13.6169Z" fill="#FBFBFB" fill-opacity="0.7"/>
</g>
<defs>
<clipPath id="clip0_665_4677">
<rect width="18" height="18" fill="white"/>
</clipPath>
</defs>
</svg>
