<svg width="16" height="16" viewBox="0 0 16 16" fill="none" xmlns="http://www.w3.org/2000/svg">
<g clip-path="url(#clip0_1030_100754)">
<path d="M10.8967 6.79418C11.137 6.55386 11.137 6.16422 10.8967 5.92389C10.6564 5.68357 10.2667 5.68357 10.0264 5.92389L7.17949 8.7708L5.9736 7.56492C5.73328 7.3246 5.34364 7.3246 5.10332 7.56492C4.863 7.80524 4.863 8.19488 5.10332 8.4352L6.74434 10.0762C6.98467 10.3166 7.37431 10.3166 7.61463 10.0762L10.8967 6.79418Z" fill="#34D399"/>
<path fill-rule="evenodd" clip-rule="evenodd" d="M8 6.10352e-05C6.94943 6.10352e-05 5.90914 0.206987 4.93853 0.609025C3.96793 1.01106 3.08601 1.60034 2.34315 2.34321C1.60028 3.08608 1.011 3.96799 0.608964 4.93859C0.206926 5.9092 0 6.94949 0 8.00006C0 9.05064 0.206926 10.0909 0.608964 11.0615C1.011 12.0321 1.60028 12.914 2.34315 13.6569C3.08601 14.3998 3.96793 14.9891 4.93853 15.3911C5.90914 15.7931 6.94943 16.0001 8 16.0001C9.05057 16.0001 10.0909 15.7931 11.0615 15.3911C12.0321 14.9891 12.914 14.3998 13.6569 13.6569C14.3997 12.914 14.989 12.0321 15.391 11.0615C15.7931 10.0909 16 9.05064 16 8.00006C16 6.94949 15.7931 5.9092 15.391 4.93859C14.989 3.96799 14.3997 3.08608 13.6569 2.34321C12.914 1.60034 12.0321 1.01106 11.0615 0.609025C10.0909 0.206987 9.05057 6.10352e-05 8 6.10352e-05ZM5.40953 1.74611C6.23081 1.40592 7.11105 1.23083 8 1.23083C8.88895 1.23083 9.76919 1.40592 10.5905 1.74611C11.4118 2.08629 12.158 2.58491 12.7866 3.21349C13.4152 3.84207 13.9138 4.58831 14.254 5.40959C14.5941 6.23087 14.7692 7.11111 14.7692 8.00006C14.7692 8.88901 14.5941 9.76925 14.254 10.5905C13.9138 11.4118 13.4152 12.158 12.7866 12.7866C12.158 13.4152 11.4118 13.9138 10.5905 14.254C9.76919 14.5942 8.88895 14.7693 8 14.7693C7.11105 14.7693 6.23081 14.5942 5.40953 14.254C4.58825 13.9138 3.84201 13.4152 3.21343 12.7866C2.58485 12.158 2.08623 11.4118 1.74605 10.5905C1.40586 9.76925 1.23077 8.88901 1.23077 8.00006C1.23077 7.11111 1.40586 6.23087 1.74605 5.40959C2.08623 4.58831 2.58485 3.84207 3.21343 3.21349C3.84201 2.58491 4.58825 2.08629 5.40953 1.74611Z" fill="#34D399"/>
</g>
<defs>
<clipPath id="clip0_1030_100754">
<rect width="16" height="16" fill="white"/>
</clipPath>
</defs>
</svg>
