<svg width="24" height="24" viewBox="0 0 24 24" fill="none" xmlns="http://www.w3.org/2000/svg">
<path d="M20.0715 16.5861C19.769 17.2848 19.411 17.928 18.9962 18.5193C18.4308 19.3255 17.9678 19.8835 17.611 20.1934C17.058 20.702 16.4654 20.9625 15.8308 20.9773C15.3753 20.9773 14.8259 20.8477 14.1865 20.5847C13.5449 20.323 12.9553 20.1934 12.4161 20.1934C11.8507 20.1934 11.2443 20.323 10.5957 20.5847C9.94608 20.8477 9.42277 20.9847 9.02265 20.9983C8.41415 21.0242 7.80763 20.7563 7.20221 20.1934C6.81581 19.8563 6.33249 19.2786 5.75349 18.4601C5.13228 17.586 4.62155 16.5725 4.22144 15.417C3.79293 14.1689 3.57812 12.9603 3.57812 11.7902C3.57812 10.4498 3.86775 9.29382 4.44785 8.32509C4.90376 7.54696 5.51029 6.93316 6.2694 6.48255C7.02852 6.03195 7.84874 5.80233 8.73205 5.78763C9.21537 5.78763 9.84917 5.93714 10.6368 6.23096C11.4222 6.52576 11.9265 6.67526 12.1476 6.67526C12.3129 6.67526 12.8732 6.50045 13.8229 6.15194C14.721 5.82874 15.479 5.69492 16.1 5.74764C17.7826 5.88343 19.0468 6.54675 19.8875 7.74177C18.3826 8.6536 17.6382 9.93072 17.653 11.5691C17.6666 12.8452 18.1295 13.9071 19.0394 14.7503C19.4517 15.1417 19.9122 15.4441 20.4245 15.6589C20.3134 15.9812 20.1962 16.2898 20.0715 16.5861ZM16.2123 1.40011C16.2123 2.40034 15.8469 3.33425 15.1185 4.19867C14.2395 5.22629 13.1764 5.8201 12.0234 5.7264C12.0087 5.60641 12.0002 5.48011 12.0002 5.3474C12.0002 4.38718 12.4182 3.35956 13.1606 2.51934C13.5312 2.09392 14.0025 1.74019 14.5741 1.45801C15.1444 1.18005 15.6839 1.02632 16.1913 1C16.2061 1.13371 16.2123 1.26744 16.2123 1.4001V1.40011Z" fill="white"/>
</svg>
