<svg width="24" height="24" viewBox="0 0 24 24" fill="none" xmlns="http://www.w3.org/2000/svg">
<path fill-rule="evenodd" clip-rule="evenodd" d="M21.14 12.2044C21.14 11.5663 21.0827 10.9526 20.9764 10.3635H12.5V13.8449H17.3436C17.135 14.9699 16.5009 15.9231 15.5477 16.5613V18.8194H18.4564C20.1582 17.2526 21.14 14.9453 21.14 12.2044Z" fill="#4285F4"/>
<path fill-rule="evenodd" clip-rule="evenodd" d="M12.4998 20.9997C14.9298 20.9997 16.967 20.1937 18.4561 18.8192L15.5475 16.561C14.7416 17.101 13.7107 17.4201 12.4998 17.4201C10.1557 17.4201 8.17158 15.8369 7.46385 13.7097H4.45703V16.0415C5.93794 18.9828 8.98158 20.9997 12.4998 20.9997Z" fill="#34A853"/>
<path fill-rule="evenodd" clip-rule="evenodd" d="M7.46409 13.7103C7.28409 13.1703 7.18182 12.5934 7.18182 12.0003C7.18182 11.4071 7.28409 10.8303 7.46409 10.2903V7.95844H4.45727C3.84773 9.17344 3.5 10.548 3.5 12.0003C3.5 13.4525 3.84773 14.8271 4.45727 16.0421L7.46409 13.7103Z" fill="#FBBC05"/>
<path fill-rule="evenodd" clip-rule="evenodd" d="M12.4998 6.57955C13.8211 6.57955 15.0075 7.03364 15.9402 7.92545L18.5216 5.34409C16.9629 3.89182 14.9257 3 12.4998 3C8.98158 3 5.93794 5.01682 4.45703 7.95818L7.46385 10.29C8.17158 8.16273 10.1557 6.57955 12.4998 6.57955Z" fill="#EA4335"/>
</svg>
