<svg width="18" height="18" viewBox="0 0 18 18" fill="none" xmlns="http://www.w3.org/2000/svg">
<path fill-rule="evenodd" clip-rule="evenodd" d="M9 6.46153C8.32676 6.46153 7.68109 6.72898 7.20504 7.20503C6.72898 7.68109 6.46154 8.32675 6.46154 9C6.46154 9.67324 6.72898 10.3189 7.20504 10.795C7.68109 11.271 8.32676 11.5385 9 11.5385C9.67324 11.5385 10.3189 11.271 10.795 10.795C11.271 10.3189 11.5385 9.67324 11.5385 9C11.5385 8.32675 11.271 7.68109 10.795 7.20503C10.3189 6.72898 9.67324 6.46153 9 6.46153ZM8.18411 8.1841C8.4005 7.96772 8.69398 7.84615 9 7.84615C9.30602 7.84615 9.5995 7.96772 9.81589 8.1841C10.0323 8.40049 10.1538 8.69398 10.1538 9C10.1538 9.30601 10.0323 9.5995 9.81589 9.81589C9.5995 10.0323 9.30602 10.1538 9 10.1538C8.69398 10.1538 8.4005 10.0323 8.18411 9.81589C7.96772 9.5995 7.84615 9.30601 7.84615 9C7.84615 8.69398 7.96772 8.40049 8.18411 8.1841Z" fill="#FBFBFB" fill-opacity="0.7"/>
<path fill-rule="evenodd" clip-rule="evenodd" d="M9 2.76923C5.36154 2.76923 2.3969 4.8134 0.0986587 8.64381C-0.0328862 8.86305 -0.0328862 9.13694 0.0986587 9.35619C2.3969 13.1866 5.36154 15.2308 9 15.2308C12.6385 15.2308 15.6031 13.1866 17.9013 9.35619C18.0329 9.13694 18.0329 8.86305 17.9013 8.64381C15.6031 4.8134 12.6385 2.76923 9 2.76923ZM9 13.8461C6.09465 13.8461 3.59414 12.3083 1.50517 9C3.59414 5.69173 6.09465 4.15384 9 4.15384C11.9054 4.15384 14.4059 5.69173 16.4948 9C14.4059 12.3083 11.9054 13.8461 9 13.8461Z" fill="#FBFBFB" fill-opacity="0.7"/>
</svg>
