<svg width="20" height="20" viewBox="0 0 20 20" fill="none" xmlns="http://www.w3.org/2000/svg">
<g clip-path="url(#clip0_1224_49445)">
<path d="M10.6264 0.845228C10.5088 0.606775 10.2659 0.455811 10 0.455811C9.73409 0.455811 9.49124 0.606775 9.37355 0.845228L6.66173 6.34005L0.598406 7.21879C0.335112 7.25695 0.116348 7.44135 0.0341765 7.69439C-0.0479949 7.94743 0.0206926 8.22517 0.211333 8.41074L4.60515 12.6877L3.56912 18.7272C3.52416 18.9893 3.6319 19.2542 3.84703 19.4105C4.06216 19.5668 4.34738 19.5874 4.58274 19.4636L10.0061 16.6122L15.4167 19.4633C15.652 19.5874 15.9374 19.5669 16.1527 19.4107C16.368 19.2544 16.4759 18.9894 16.4309 18.7272L15.3949 12.6877L19.7887 8.41074C19.9793 8.22517 20.048 7.94743 19.9658 7.69439C19.8837 7.44135 19.6649 7.25695 19.4016 7.21879L13.3383 6.34005L10.6264 0.845228Z" fill="#FBBF24"/>
</g>
<defs>
<clipPath id="clip0_1224_49445">
<rect width="20" height="20" fill="white"/>
</clipPath>
</defs>
</svg>
