<svg width="12" height="12" viewBox="0 0 12 12" fill="none" xmlns="http://www.w3.org/2000/svg">
<path fill-rule="evenodd" clip-rule="evenodd" d="M5.23851 7.70004C5.44047 7.49808 5.71439 7.38462 6.00001 7.38462C6.28562 7.38462 6.55954 7.49808 6.7615 7.70004C6.96347 7.902 7.07693 8.17592 7.07693 8.46154C7.07693 8.74716 6.96347 9.02108 6.7615 9.22304C6.55954 9.425 6.28562 9.53846 6.00001 9.53846C5.71439 9.53846 5.44047 9.425 5.23851 9.22304C5.03654 9.02108 4.92308 8.74716 4.92308 8.46154C4.92308 8.17592 5.03654 7.902 5.23851 7.70004ZM6.00001 8.30769C5.9592 8.30769 5.92007 8.3239 5.89122 8.35275C5.86237 8.38161 5.84616 8.42074 5.84616 8.46154C5.84616 8.50234 5.86237 8.54147 5.89122 8.57032C5.92007 8.59918 5.9592 8.61539 6.00001 8.61539C6.04081 8.61539 6.07994 8.59918 6.10879 8.57032C6.13764 8.54147 6.15385 8.50234 6.15385 8.46154C6.15385 8.42074 6.13764 8.38161 6.10879 8.35275C6.07994 8.3239 6.04081 8.30769 6.00001 8.30769Z" fill="#FBFBFB" fill-opacity="0.5"/>
<path fill-rule="evenodd" clip-rule="evenodd" d="M3.07693 4.92308V2.92308C3.07693 2.14783 3.38489 1.40433 3.93308 0.856149C4.48126 0.307966 5.22476 0 6.00001 0C6.77525 0 7.51875 0.307966 8.06693 0.856149C8.61512 1.40433 8.92308 2.14783 8.92308 2.92308V4.92308H9.07693C9.52576 4.92308 9.9562 5.10137 10.2736 5.41874C10.5909 5.73611 10.7692 6.16656 10.7692 6.61539V10.3077C10.7692 10.7565 10.5909 11.187 10.2736 11.5043C9.9562 11.8217 9.52576 12 9.07693 12H2.92308C2.47425 12 2.04381 11.8217 1.72644 11.5043C1.40907 11.187 1.23077 10.7565 1.23077 10.3077V6.61539C1.23077 6.16656 1.40907 5.73611 1.72644 5.41874C2.04381 5.10137 2.47425 4.92308 2.92308 4.92308H3.07693ZM4.58579 1.50886C4.96086 1.13379 5.46957 0.923077 6.00001 0.923077C6.53044 0.923077 7.03915 1.13379 7.41422 1.50886C7.78929 1.88394 8.00001 2.39264 8.00001 2.92308V4.92308H4.00001V2.92308C4.00001 2.39264 4.21072 1.88394 4.58579 1.50886ZM9.07693 5.84615C9.28094 5.84615 9.4766 5.9272 9.62086 6.07146C9.76512 6.21572 9.84616 6.41137 9.84616 6.61539V10.3077C9.84616 10.5117 9.76512 10.7074 9.62086 10.8516C9.4766 10.9959 9.28094 11.0769 9.07693 11.0769H2.92308C2.71907 11.0769 2.52341 10.9959 2.37915 10.8516C2.23489 10.7074 2.15385 10.5117 2.15385 10.3077V6.61539C2.15385 6.41137 2.23489 6.21572 2.37915 6.07146C2.52341 5.9272 2.71907 5.84615 2.92308 5.84615H9.07693Z" fill="#FBFBFB" fill-opacity="0.5"/>
</svg>
