<svg width="40" height="40" viewBox="0 0 40 40" fill="none" xmlns="http://www.w3.org/2000/svg">
<path d="M18.718 18.9744C18.718 18.5495 18.3736 18.2051 17.9487 18.2051C17.5239 18.2051 17.1795 18.5495 17.1795 18.9744V25.1282C17.1795 25.553 17.5239 25.8974 17.9487 25.8974C18.3736 25.8974 18.718 25.553 18.718 25.1282V18.9744Z" fill="white"/>
<path d="M22.0513 18.2051C22.4761 18.2051 22.8205 18.5495 22.8205 18.9744V25.1282C22.8205 25.553 22.4761 25.8974 22.0513 25.8974C21.6265 25.8974 21.2821 25.553 21.2821 25.1282V18.9744C21.2821 18.5495 21.6265 18.2051 22.0513 18.2051Z" fill="white"/>
<path fill-rule="evenodd" clip-rule="evenodd" d="M23.8462 14.1026V11.7949C23.8462 11.3188 23.6571 10.8623 23.3205 10.5257C22.9838 10.1891 22.5273 10 22.0513 10H17.9487C17.4727 10 17.0162 10.1891 16.6796 10.5257C16.343 10.8623 16.1539 11.3188 16.1539 11.7949V14.1026H12.8295C12.8241 14.1025 12.8187 14.1025 12.8132 14.1026H11.7949C11.37 14.1026 11.0256 14.447 11.0256 14.8718C11.0256 15.2966 11.37 15.641 11.7949 15.641H12.1127L13.0771 27.214C13.0861 27.9496 13.3822 28.6531 13.903 29.1739C14.432 29.7028 15.1494 30 15.8974 30H24.1026C24.8506 30 25.568 29.7028 26.097 29.1739C26.6178 28.6531 26.9139 27.9496 26.9229 27.214L27.8873 15.641H28.2051C28.63 15.641 28.9744 15.2966 28.9744 14.8718C28.9744 14.447 28.63 14.1026 28.2051 14.1026H27.1868C27.1813 14.1025 27.1759 14.1025 27.1705 14.1026H23.8462ZM17.9487 11.5385C17.8807 11.5385 17.8155 11.5655 17.7674 11.6136C17.7193 11.6616 17.6923 11.7269 17.6923 11.7949V14.1026H22.3077V11.7949C22.3077 11.7269 22.2807 11.6616 22.2326 11.6136C22.1845 11.5655 22.1193 11.5385 22.0513 11.5385H17.9487ZM13.6565 15.641L14.6127 27.1156C14.6145 27.1369 14.6154 27.1582 14.6154 27.1795C14.6154 27.5195 14.7505 27.8456 14.9909 28.086C15.2313 28.3265 15.5574 28.4615 15.8974 28.4615H24.1026C24.4426 28.4615 24.7687 28.3265 25.0091 28.086C25.2495 27.8456 25.3846 27.5195 25.3846 27.1795C25.3846 27.1582 25.3855 27.1369 25.3873 27.1156L26.3435 15.641H13.6565Z" fill="white"/>
</svg>
