<svg width="12" height="12" viewBox="0 0 12 12" fill="none" xmlns="http://www.w3.org/2000/svg">
<g clip-path="url(#clip0_714_6711)">
<path d="M6.4499 2.99999C6.4499 2.75147 6.24843 2.54999 5.9999 2.54999C5.75137 2.54999 5.5499 2.75147 5.5499 2.99999V5.99999C5.5499 6.11934 5.59731 6.2338 5.6817 6.31819L7.4817 8.11819C7.65744 8.29393 7.94236 8.29393 8.1181 8.11819C8.29384 7.94246 8.29384 7.65753 8.1181 7.48179L6.4499 5.8136V2.99999Z" fill="#FBFBFB"/>
<path fill-rule="evenodd" clip-rule="evenodd" d="M5.9999 0.149994C5.23167 0.149994 4.47096 0.301309 3.7612 0.595299C3.05145 0.889289 2.40655 1.3202 1.86333 1.86342C1.3201 2.40664 0.889197 3.05154 0.595207 3.7613C0.301217 4.47105 0.149902 5.23176 0.149902 5.99999C0.149902 6.76823 0.301217 7.52894 0.595207 8.23869C0.889197 8.94845 1.3201 9.59334 1.86333 10.1366C2.40655 10.6798 3.05145 11.1107 3.7612 11.4047C4.47096 11.6987 5.23167 11.85 5.9999 11.85C6.76813 11.85 7.52885 11.6987 8.2386 11.4047C8.94835 11.1107 9.59325 10.6798 10.1365 10.1366C10.6797 9.59334 11.1106 8.94845 11.4046 8.23869C11.6986 7.52894 11.8499 6.76823 11.8499 5.99999C11.8499 5.23176 11.6986 4.47105 11.4046 3.7613C11.1106 3.05154 10.6797 2.40664 10.1365 1.86342C9.59325 1.3202 8.94835 0.889289 8.2386 0.595299C7.52885 0.301309 6.76813 0.149994 5.9999 0.149994ZM4.10562 1.42679C4.70618 1.17803 5.34986 1.04999 5.9999 1.04999C6.64995 1.04999 7.29362 1.17803 7.89418 1.42679C8.49475 1.67555 9.04043 2.04017 9.50008 2.49982C9.95973 2.95947 10.3243 3.50515 10.5731 4.10571C10.8219 4.70627 10.9499 5.34995 10.9499 5.99999C10.9499 6.65004 10.8219 7.29372 10.5731 7.89428C10.3243 8.49484 9.95973 9.04052 9.50008 9.50017C9.04043 9.95982 8.49475 10.3244 7.89418 10.5732C7.29362 10.822 6.64995 10.95 5.9999 10.95C5.34986 10.95 4.70618 10.822 4.10562 10.5732C3.50506 10.3244 2.95937 9.95982 2.49972 9.50017C2.04007 9.04052 1.67546 8.49484 1.4267 7.89428C1.17794 7.29372 1.0499 6.65004 1.0499 5.99999C1.0499 5.34995 1.17794 4.70627 1.4267 4.10571C1.67546 3.50515 2.04007 2.95947 2.49972 2.49982C2.95937 2.04017 3.50506 1.67555 4.10562 1.42679Z" fill="#FBFBFB"/>
</g>
<defs>
<clipPath id="clip0_714_6711">
<rect width="12" height="12" fill="white"/>
</clipPath>
</defs>
</svg>
