<svg width="18" height="18" viewBox="0 0 18 18" fill="none" xmlns="http://www.w3.org/2000/svg">
<g clip-path="url(#clip0_625_37312)">
<path d="M9 3.69231C9.38235 3.69231 9.69231 4.00226 9.69231 4.38462V6.71346L10.2701 5.84675C10.4822 5.52861 10.912 5.44264 11.2302 5.65473C11.5483 5.86682 11.6343 6.29666 11.4222 6.61479L9.58198 9.3751C9.57074 9.39251 9.55873 9.40939 9.54601 9.42569C9.48501 9.50409 9.40988 9.56612 9.32666 9.61055C9.24358 9.65509 9.15034 9.68318 9.05132 9.69043C8.96737 9.69673 8.88192 9.68781 8.79937 9.66279C8.71678 9.63782 8.6407 9.59784 8.57432 9.54601C8.49591 9.48501 8.43388 9.40988 8.38945 9.32666C8.3449 9.24358 8.31682 9.15034 8.30957 9.05132C8.30802 9.0307 8.30739 9.01 8.30769 8.98927V4.38462C8.30769 4.00226 8.61765 3.69231 9 3.69231Z" fill="#FBFBFB"/>
<path fill-rule="evenodd" clip-rule="evenodd" d="M5.55585 0.685084C6.64778 0.232792 7.8181 0 9 0C10.1819 0 11.3522 0.232792 12.4442 0.685084C13.5361 1.13738 14.5282 1.80031 15.364 2.63604C16.1997 3.47177 16.8626 4.46392 17.3149 5.55585C17.7672 6.64778 18 7.8181 18 9C18 10.1819 17.7672 11.3522 17.3149 12.4442C16.8626 13.5361 16.1997 14.5282 15.364 15.364C14.5282 16.1997 13.5361 16.8626 12.4442 17.3149C11.3522 17.7672 10.1819 18 9 18C7.8181 18 6.64778 17.7672 5.55585 17.3149C4.46392 16.8626 3.47177 16.1997 2.63604 15.364C1.80031 14.5282 1.13738 13.5361 0.685084 12.4442C0.232792 11.3522 0 10.1819 0 9C0 7.8181 0.232792 6.64778 0.685084 5.55585C1.13738 4.46392 1.80031 3.47177 2.63604 2.63604C3.47177 1.80031 4.46392 1.13738 5.55585 0.685084ZM9 1.38462C7.99993 1.38462 7.00966 1.58159 6.08572 1.9643C5.16178 2.34701 4.32226 2.90796 3.61511 3.61511C2.90796 4.32226 2.34701 5.16178 1.9643 6.08572C1.58159 7.00966 1.38462 7.99993 1.38462 9C1.38462 10.0001 1.58159 10.9903 1.9643 11.9143C2.34701 12.8382 2.90796 13.6777 3.61511 14.3849C4.32226 15.092 5.16178 15.653 6.08572 16.0357C7.00966 16.4184 7.99993 16.6154 9 16.6154C10.0001 16.6154 10.9903 16.4184 11.9143 16.0357C12.8382 15.653 13.6777 15.092 14.3849 14.3849C15.092 13.6777 15.653 12.8382 16.0357 11.9143C16.4184 10.9903 16.6154 10.0001 16.6154 9C16.6154 7.99993 16.4184 7.00966 16.0357 6.08572C15.653 5.16178 15.092 4.32226 14.3849 3.61511C13.6777 2.90796 12.8382 2.34701 11.9143 1.9643C10.9903 1.58159 10.0001 1.38462 9 1.38462Z" fill="#FBFBFB"/>
</g>
<defs>
<clipPath id="clip0_625_37312">
<rect width="18" height="18" fill="white"/>
</clipPath>
</defs>
</svg>
