<svg width="18" height="18" viewBox="0 0 18 18" fill="none" xmlns="http://www.w3.org/2000/svg">
<g clip-path="url(#clip0_625_37323)">
<path d="M16.8762 12.4857C17.1333 12.2285 17.5502 12.2285 17.8074 12.4857C18.0645 12.7428 18.0645 13.1597 17.8074 13.4169L16.0778 15.1464L17.8074 16.876C18.0645 17.1332 18.0645 17.5501 17.8074 17.8072C17.5502 18.0643 17.1333 18.0643 16.8762 17.8072L15.1466 16.0777L13.4171 17.8072C13.1599 18.0643 12.743 18.0643 12.4858 17.8072C12.2287 17.5501 12.2287 17.1332 12.4858 16.876L14.2154 15.1464L12.4858 13.4169C12.2287 13.1597 12.2287 12.7428 12.4858 12.4857C12.743 12.2285 13.1599 12.2285 13.4171 12.4857L15.1466 14.2152L16.8762 12.4857Z" fill="#FBFBFB"/>
<path d="M11.1953 7.02434C13.0084 7.02434 14.6802 7.45719 15.7803 8.19137C16.5274 8.69006 17.1223 9.41155 17.1223 10.3171V11.1951C17.1222 11.5588 16.8274 11.8537 16.4637 11.8537C16.1001 11.8537 15.8053 11.5588 15.8052 11.1951V10.3171C15.8052 10.039 15.6194 9.66809 15.0489 9.28724C14.2272 8.73891 12.8344 8.34143 11.1953 8.34143C9.82042 8.34143 8.60847 8.62174 7.76452 9.04371C6.88132 9.48535 6.58548 9.9734 6.58548 10.3171C6.58557 10.624 6.81625 11.0463 7.52014 11.4584C8.2012 11.857 9.19795 12.1599 10.3721 12.2584C10.7346 12.2888 11.0036 12.6077 10.9732 12.9701C10.9426 13.3323 10.6246 13.6015 10.2624 13.5712C8.94485 13.4607 7.74582 13.117 6.85473 12.5954C6.76283 12.5416 6.67335 12.4836 6.58548 12.4239V13.8293C6.58557 14.1481 6.83683 14.5926 7.59989 15.0161C8.33483 15.4239 9.40369 15.7208 10.6465 15.7895C11.0096 15.8097 11.2874 16.121 11.2673 16.4841C11.247 16.847 10.9366 17.125 10.5736 17.1049C9.18217 17.028 7.90905 16.6937 6.96106 16.1677C6.04153 15.6575 5.26847 14.8657 5.26839 13.8293V10.3171C5.26839 10.2944 5.27109 10.2718 5.27182 10.2493C5.30681 9.17208 6.17293 8.36681 7.17543 7.86553C8.2382 7.33414 9.66032 7.02434 11.1953 7.02434Z" fill="#FBFBFB"/>
<path fill-rule="evenodd" clip-rule="evenodd" d="M3.1101 0.378831C4.85914 -0.126277 6.99472 -0.126277 8.74377 0.378831C9.62035 0.631986 10.3731 1.00379 10.9201 1.47727C11.4667 1.95063 11.8539 2.57083 11.8539 3.29256C11.8538 4.01426 11.4667 4.63453 10.9201 5.10786C10.3731 5.58131 9.62032 5.95315 8.74377 6.2063C6.99475 6.71139 4.85912 6.71139 3.1101 6.2063C2.4226 6.00775 1.81271 5.734 1.3171 5.39769V7.68288C1.31714 7.84835 1.37709 8.00174 1.57949 8.1888C1.80242 8.39473 2.16074 8.60359 2.68393 8.83792C3.0158 8.98661 3.16443 9.37636 3.01577 9.70826C2.86706 10.0401 2.47729 10.1887 2.14543 10.0401C1.85478 9.90993 1.57428 9.77022 1.3171 9.61651V12.0732C1.31714 12.2387 1.37709 12.3921 1.57949 12.5791C1.80242 12.785 2.16074 12.9939 2.68393 13.2282C3.0158 13.3769 3.16443 13.7667 3.01577 14.0986C2.86706 14.4304 2.47729 14.579 2.14543 14.4304C1.59065 14.182 1.07071 13.9027 0.68513 13.5464C0.279136 13.1711 5.37116e-05 12.6873 0 12.0732V3.29256C0 2.57083 0.387124 1.95063 0.933801 1.47727C1.48079 1.00379 2.23352 0.631986 3.1101 0.378831ZM8.37848 1.64362C6.86819 1.20747 4.98568 1.20747 3.47539 1.64362C2.72251 1.86105 2.15821 2.15968 1.79557 2.47367C1.43282 2.78783 1.3171 3.0731 1.3171 3.29256C1.31716 3.51202 1.43285 3.79735 1.79557 4.11146C2.15822 4.42542 2.72255 4.72409 3.47539 4.94151C4.98565 5.37764 6.86821 5.37764 8.37848 4.94151C9.13132 4.72409 9.69565 4.42542 10.0583 4.11146C10.421 3.79735 10.5367 3.51202 10.5368 3.29256C10.5368 3.0731 10.421 2.78783 10.0583 2.47367C9.69566 2.15968 9.13135 1.86105 8.37848 1.64362Z" fill="#FBFBFB"/>
</g>
<defs>
<clipPath id="clip0_625_37323">
<rect width="18" height="18" fill="white"/>
</clipPath>
</defs>
</svg>
