<svg width="18" height="18" viewBox="0 0 18 18" fill="none" xmlns="http://www.w3.org/2000/svg">
<g clip-path="url(#clip0_665_4681)">
<path fill-rule="evenodd" clip-rule="evenodd" d="M1.18184 0.202833C0.91148 -0.0675297 0.473135 -0.0675297 0.202772 0.202833C-0.0675907 0.473196 -0.0675907 0.911541 0.202772 1.1819L3.60384 4.58297C2.2947 5.56279 1.12956 6.92572 0.0986587 8.6439C-0.0328862 8.86314 -0.0328862 9.13704 0.0986587 9.35628C2.39642 13.1859 5.36029 15.23 8.99771 15.2309C10.4684 15.2402 11.9145 14.8782 13.2034 14.1826L16.8182 17.7973C17.0885 18.0677 17.5269 18.0677 17.7972 17.7973C18.0676 17.5269 18.0676 17.0886 17.7972 16.8182L13.867 12.888C13.8311 12.8419 13.7903 12.8014 13.7458 12.7668L1.18184 0.202833ZM12.1728 13.1519L10.2379 11.217C9.86283 11.4266 9.43724 11.5394 8.99999 11.5395C8.32673 11.5396 7.68101 11.2723 7.20486 10.7963C6.72871 10.3204 6.46115 9.67472 6.46103 9.00147C6.46095 8.56391 6.57384 8.13799 6.78355 7.76269L4.59463 5.57377C3.48706 6.36386 2.45425 7.49745 1.50518 9.00011C3.59415 12.3084 6.09466 13.8462 9 13.8462H9.00457C10.1029 13.8535 11.1849 13.6147 12.1728 13.1519ZM7.85742 8.83655C7.84962 8.89078 7.84564 8.94579 7.84565 9.00122C7.8457 9.30725 7.96732 9.60073 8.18376 9.81709C8.40019 10.0334 8.69371 10.155 8.99974 10.1549C9.05503 10.1549 9.10991 10.1509 9.164 10.1431L7.85742 8.83655Z" fill="#FBFBFB" fill-opacity="0.7"/>
<path d="M8.99821 4.15393C8.48077 4.1526 7.96452 4.20366 7.45736 4.30632C7.08262 4.38219 6.71732 4.13989 6.64146 3.76515C6.56559 3.3904 6.80789 3.0251 7.18264 2.94924C7.7811 2.82808 8.39029 2.76781 9.00089 2.76932C12.6389 2.76965 15.6033 4.81381 17.9013 8.6439C18.0329 8.86314 18.0329 9.13704 17.9013 9.35628C17.2651 10.4168 16.5775 11.3417 15.8373 12.1249C15.5746 12.4027 15.1365 12.4151 14.8586 12.1524C14.5807 11.8898 14.5684 11.4516 14.831 11.1738C15.4112 10.56 15.9665 9.83641 16.4948 9.00006C16.5684 9.1166 16.4222 8.87911 16.4948 9.00006C16.4223 9.12097 16.5684 8.88353 16.4948 9.00006C14.4058 5.69181 11.9053 4.15393 9 4.15393L8.99821 4.15393Z" fill="#FBFBFB" fill-opacity="0.7"/>
</g>
<defs>
<clipPath id="clip0_665_4681">
<rect width="18" height="18" fill="white"/>
</clipPath>
</defs>
</svg>
