<svg width="12" height="12" viewBox="0 0 12 12" fill="none" xmlns="http://www.w3.org/2000/svg">
<path d="M5.99999 0.600098C6.25562 0.600098 6.46285 0.807326 6.46285 1.06295L6.46285 10.9372C6.46285 11.1929 6.25562 11.4001 5.99999 11.4001C5.74436 11.4001 5.53713 11.1929 5.53713 10.9372L5.53713 1.06295C5.53713 0.807326 5.74436 0.600098 5.99999 0.600098Z" fill="#FBFBFB" fill-opacity="0.7"/>
<path d="M9.83999 4.30295C10.0956 4.30295 10.3029 4.51018 10.3029 4.76581V10.9372C10.3029 11.1929 10.0956 11.4001 9.83999 11.4001C9.58436 11.4001 9.37714 11.1929 9.37714 10.9372V4.76581C9.37714 4.51018 9.58436 4.30295 9.83999 4.30295Z" fill="#FBFBFB" fill-opacity="0.7"/>
<path d="M2.62284 7.23423C2.62284 6.9786 2.41561 6.77138 2.15999 6.77138C1.90436 6.77138 1.69713 6.9786 1.69713 7.23423V10.9371C1.69713 11.1927 1.90436 11.3999 2.15999 11.3999C2.41561 11.3999 2.62284 11.1927 2.62284 10.9371L2.62284 7.23423Z" fill="#FBFBFB" fill-opacity="0.7"/>
</svg>
