<svg width="18" height="18" viewBox="0 0 18 18" fill="none" xmlns="http://www.w3.org/2000/svg">
<path fill-rule="evenodd" clip-rule="evenodd" d="M2.53846 1.79999C1.86522 1.79999 1.21955 2.06916 0.743498 2.54828C0.267444 3.02741 0 3.67724 0 4.35483V13.6451C0 14.3227 0.267444 14.9726 0.743498 15.4517C1.21955 15.9308 1.86522 16.2 2.53846 16.2H15.4615C16.1348 16.2 16.7804 15.9308 17.2565 15.4517C17.7326 14.9726 18 14.3227 18 13.6451V4.35483C18 3.67724 17.7326 3.02741 17.2565 2.54828C16.7804 2.06916 16.1348 1.79999 15.4615 1.79999H2.53846ZM1.72257 3.53367C1.93896 3.31589 2.23244 3.19354 2.53846 3.19354H15.4615C15.7676 3.19354 16.061 3.31589 16.2774 3.53367C16.4123 3.66943 16.5104 3.83535 16.5651 4.01567L9 9.0916L1.43492 4.01567C1.48963 3.83535 1.58768 3.66943 1.72257 3.53367ZM9.38402 10.5088L16.6154 5.65676V13.6451C16.6154 13.9531 16.4938 14.2485 16.2774 14.4663C16.061 14.6841 15.7676 14.8064 15.4615 14.8064H2.53846C2.23244 14.8064 1.93896 14.6841 1.72257 14.4663C1.50618 14.2485 1.38462 13.9531 1.38462 13.6451V5.65676L8.61598 10.5088C8.84852 10.6648 9.15148 10.6648 9.38402 10.5088Z" fill="#FBFBFB" fill-opacity="0.7"/>
</svg>
