<svg width="12" height="12" viewBox="0 0 12 12" fill="none" xmlns="http://www.w3.org/2000/svg">
<g clip-path="url(#clip0_1029_100667)">
<path fill-rule="evenodd" clip-rule="evenodd" d="M6 -0.00012207C5.76071 -0.00012207 5.52378 0.0471788 5.30284 0.139061C5.08209 0.23086 4.88166 0.365348 4.71303 0.534806L4.71256 0.535273L4.28357 0.964263C4.11655 1.13012 3.89033 1.22371 3.65493 1.22388H3.03962C2.55809 1.22388 2.09628 1.41517 1.75578 1.75566C1.41529 2.09615 1.224 2.55796 1.224 3.0395L1.224 3.6547C1.22383 3.89009 1.13067 4.116 0.964815 4.28302L0.535395 4.71244L0.534928 4.7129C0.36547 4.88153 0.230982 5.08197 0.139183 5.30271C0.0473009 5.52366 0 5.76059 0 5.99988C0 6.23917 0.047301 6.4761 0.139183 6.69704C0.230984 6.91779 0.365477 7.11823 0.534942 7.28687L0.535395 7.28732L0.964385 7.71631C1.13028 7.88333 1.22383 8.10952 1.224 8.34494V8.96026C1.224 9.44179 1.41529 9.9036 1.75578 10.2441C2.09628 10.5846 2.55809 10.7759 3.03962 10.7759H3.65482C3.89022 10.776 4.11603 10.8692 4.28307 11.035L4.28357 11.0355L4.71256 11.4645L4.71325 11.4652C4.88184 11.6345 5.08219 11.7689 5.30284 11.8607C5.52378 11.9526 5.76071 11.9999 6 11.9999C6.23929 11.9999 6.47622 11.9526 6.69716 11.8607C6.91786 11.7689 7.11826 11.6345 7.28687 11.4651L7.28744 11.4645L7.71643 11.0355C7.88348 10.8696 8.10972 10.776 8.34518 10.7759H8.96038C9.44191 10.7759 9.90372 10.5846 10.2442 10.2441C10.5847 9.9036 10.776 9.44179 10.776 8.96026V8.34506C10.7761 8.1096 10.8693 7.88374 11.0352 7.71669L11.4646 7.28732L11.4652 7.28675C11.6346 7.11814 11.769 6.91774 11.8608 6.69704C11.9527 6.4761 12 6.23917 12 5.99988C12 5.76059 11.9527 5.52366 11.8608 5.30271C11.7691 5.08207 11.6347 4.88171 11.4653 4.71313L11.4646 4.71244L11.0356 4.28345L11.0351 4.28294C10.8693 4.1159 10.7761 3.8901 10.776 3.6547V3.0395C10.776 2.55796 10.5847 2.09615 10.2442 1.75566C9.90372 1.41517 9.44191 1.22388 8.96038 1.22388L8.34518 1.22388C8.10976 1.22371 7.88383 1.13053 7.71681 0.96464L7.28744 0.535273L7.28699 0.53482C7.11835 0.365355 6.91791 0.230862 6.69716 0.139061C6.47622 0.0471789 6.23929 -0.00012207 6 -0.00012207ZM7.27713 6.72808C7.38776 6.68446 7.50829 6.66049 7.63442 6.66049C8.17262 6.66049 8.60891 7.09678 8.60891 7.63498C8.60891 8.17317 8.17262 8.60946 7.63442 8.60946C7.09623 8.60946 6.65994 8.17317 6.65994 7.63498C6.65994 7.50772 6.68433 7.38615 6.7287 7.27471C6.78877 7.0019 7.00399 6.78728 7.27713 6.72808ZM5.26064 4.70521C5.30313 4.59584 5.32643 4.47689 5.32643 4.3525C5.32643 3.81431 4.89014 3.37802 4.35195 3.37802C3.81376 3.37802 3.37746 3.81431 3.37746 4.3525C3.37746 4.8907 3.81376 5.32699 4.35195 5.32699C4.47746 5.32699 4.59744 5.30326 4.70763 5.26004C4.98469 5.20122 5.20271 4.9826 5.26064 4.70521ZM7.50571 3.5673C7.75808 3.31493 8.16726 3.31493 8.41963 3.5673C8.672 3.81967 8.672 4.22884 8.41963 4.48121L4.48066 8.42018C4.22829 8.67255 3.81911 8.67255 3.56674 8.42018C3.31437 8.16781 3.31437 7.75864 3.56674 7.50627L7.50571 3.5673Z" fill="black"/>
</g>
<defs>
<clipPath id="clip0_1029_100667">
<rect width="12" height="12" fill="white"/>
</clipPath>
</defs>
</svg>
