<svg width="44" height="18" viewBox="0 0 44 18" fill="none" xmlns="http://www.w3.org/2000/svg">
<rect width="44" height="18" rx="4" fill="#4CB8A8"/>
<path d="M4.31182 6.5678C5.48984 6.54788 5.55352 6.48259 6.38864 7.3199L7.37549 8.31151C7.80968 8.74807 8.3288 9.4207 9.02905 8.97332C9.09775 8.92942 9.18325 8.86698 9.24152 8.81052C9.84361 8.21976 10.4353 7.61385 11.0315 7.01695C11.6005 6.44734 12.2137 6.55612 12.9531 6.56831C13.4285 7.08743 14.067 7.58208 14.4909 8.10458C15.5057 9.35532 14.7563 10.5163 13.7168 11.3917C13.4716 11.5982 13.2269 11.9078 12.9646 12.1279C12.8898 12.1841 12.5227 12.1507 12.4133 12.1509C12.0853 12.1514 11.7651 12.1555 11.4589 12.0207C11.0911 11.8588 9.95463 10.6269 9.58342 10.2549C9.40806 10.0792 9.22847 9.87202 9.01404 9.7447C8.88309 9.66585 8.73295 9.62459 8.5801 9.62548C8.40274 9.62359 8.22849 9.67217 8.07768 9.76554C7.90085 9.87619 7.54238 10.2568 7.3835 10.4164L6.16302 11.6461C5.55414 12.2501 5.16163 12.1537 4.32749 12.1507L4.3164 12.1403C4.02788 11.8692 3.75541 11.5788 3.47208 11.3031C2.91785 10.7619 2.32525 10.2481 2.31274 9.40612C2.29986 8.53938 2.8122 8.05108 3.38522 7.50091C3.69197 7.20642 4.01975 6.87718 4.31182 6.5678Z" fill="white"/>
<path d="M8.48585 10.1625C8.50171 10.1617 8.5176 10.1611 8.53348 10.1609C8.63303 10.16 8.73131 10.2103 8.80385 10.2774C9.4177 10.8526 10.0089 11.4666 10.6048 12.0615C11.1737 12.6295 11.5933 12.7182 12.3852 12.7084C11.8144 13.3709 11.0863 13.9866 10.4862 14.6318C9.94202 15.2168 9.62809 15.5418 8.82053 15.6725C8.78633 15.6744 8.75209 15.6757 8.71784 15.6762C7.65201 15.7017 7.23215 15.0434 6.54316 14.3755C5.98059 13.8302 5.4407 13.2474 4.87426 12.7077C5.22703 12.7193 5.60245 12.6727 5.92287 12.5169C6.42369 12.2732 7.41206 11.168 7.86818 10.7133C8.06042 10.5216 8.25295 10.3049 8.48585 10.1625Z" fill="white"/>
<path d="M8.57113 3.04148C8.58877 3.04016 8.60644 3.03951 8.62411 3.03955C8.99044 3.04536 9.34847 3.14941 9.66087 3.34082C9.96931 3.53132 10.5178 4.11537 10.7984 4.39741L12.389 5.99375C11.2463 6.01963 11.0678 6.18515 10.2832 6.98006L9.2972 7.9651C9.10384 8.15834 8.88828 8.39877 8.66376 8.54157C8.53772 8.58901 8.47169 8.55558 8.37087 8.47855C8.18382 8.33562 8.02579 8.15928 7.85901 7.9938C7.36247 7.50393 6.88059 6.99734 6.37568 6.51615C5.95601 6.11621 5.42971 5.9772 4.86293 6.00529C5.08186 5.82151 5.37506 5.51069 5.58564 5.29899L6.76927 4.11175C7.3544 3.52596 7.68361 3.11689 8.57113 3.04148Z" fill="white"/>
<path d="M21.6681 4.40112C22.0447 4.40615 22.4161 4.41424 22.7785 4.40405C23.116 4.39458 23.563 4.39969 23.9064 4.48413C24.4092 4.61031 24.8727 4.86136 25.2531 5.21362L25.3703 5.32593C25.9396 5.89896 26.2304 6.63333 26.258 7.43823V7.44116C26.2662 7.85626 26.2658 8.27165 26.2638 8.6853C26.2618 9.13253 26.2898 9.66207 26.1867 10.1326C26.0706 10.6625 25.7901 11.1676 25.4269 11.5613C24.922 12.1088 24.1017 12.5158 23.343 12.531C22.9674 12.5385 22.5887 12.5383 22.2111 12.5369H21.0812C20.6506 12.5321 20.2023 12.543 19.758 12.5349H19.4347C19.3483 12.5349 19.2693 12.5058 19.2043 12.4587C19.1903 12.449 19.1759 12.4397 19.1633 12.4275C19.1603 12.4246 19.1582 12.4207 19.1555 12.4177C19.0842 12.3462 19.0393 12.2484 19.0392 12.1394C19.0392 11.9209 19.2163 11.744 19.4347 11.7439H19.673C19.7061 11.7434 19.7397 11.7421 19.7726 11.7419C19.9398 11.741 20.1176 11.7438 20.2258 11.7439H20.3556L21.9094 11.7458C22.2281 11.7462 22.5951 11.7583 22.9611 11.7468C23.3258 11.7354 23.6684 11.7002 23.9299 11.6111C24.4995 11.4097 24.9681 10.9932 25.2346 10.4509C25.3317 10.2465 25.396 10.028 25.425 9.80347C25.4434 9.66455 25.4539 9.50479 25.4513 9.36499C25.4366 8.61147 25.4844 7.88931 25.423 7.16187L25.4015 7.01343C25.3717 6.86282 25.3183 6.70143 25.2668 6.55151C25.1355 6.27112 25.037 6.1287 24.8224 5.90015L24.8195 5.89722C24.6339 5.68859 24.3624 5.50077 24.0607 5.37085C23.759 5.241 23.4375 5.17343 23.1545 5.19214C22.7214 5.22099 22.1532 5.18999 21.6164 5.18042C21.0684 5.17066 20.5494 5.18224 20.176 5.28784C19.8124 5.39403 19.4808 5.58927 19.2101 5.85425L19.2092 5.85522C18.5142 6.52351 18.5361 7.25194 18.5373 8.21167L18.5392 9.52124C18.5403 11.2265 18.5638 13.0299 18.5402 14.7498C18.5406 14.7572 18.5431 14.7646 18.5431 14.7722V15.158C18.5431 15.184 18.5401 15.2094 18.5353 15.2341V15.2361C18.5346 15.2629 18.5256 15.288 18.5119 15.3103C18.4516 15.4578 18.308 15.5623 18.1388 15.5623C17.9156 15.5623 17.7346 15.3812 17.7346 15.158V14.7722C17.7346 14.7683 17.7354 14.7644 17.7355 14.7605C17.7312 14.3115 17.7405 13.8362 17.7404 13.4138L17.7394 8.28687C17.7393 7.85361 17.7205 7.38924 17.7931 6.93628C18.0083 5.59592 19.1879 4.52464 20.5412 4.41675H20.5431C20.9133 4.39367 21.2933 4.39612 21.6681 4.40112Z" fill="white"/>
<path d="M26.5246 4.40991C26.8737 4.39424 27.3864 4.38743 27.7512 4.42554L27.9133 4.44702L27.923 4.44897L28.0558 4.48901C28.3627 4.597 28.6481 4.81567 28.8146 5.09351C28.9992 5.40147 29.045 5.72738 29.0471 6.05542C29.0496 6.4458 29.0472 6.83959 29.0471 7.22925L29.0451 9.91675C29.0433 10.3622 29.0449 10.8082 29.048 11.2537C29.049 11.4291 29.054 11.6297 29.051 11.8308C29.0518 11.8415 29.0549 11.8521 29.0549 11.863V12.2625C29.0549 12.482 28.8769 12.6599 28.6574 12.6599C28.4379 12.6599 28.2599 12.482 28.2599 12.2625V12.1179C28.2598 12.1114 28.259 12.1049 28.259 12.0984C28.2564 11.574 28.2578 11.0487 28.258 10.5251V7.52026L28.2599 6.46655C28.2605 6.32931 28.2671 6.17716 28.2619 6.02026C28.2567 5.86338 28.24 5.72791 28.2023 5.6355C28.1377 5.47748 28.0435 5.37767 27.9328 5.31226C27.8189 5.2452 27.6782 5.20908 27.5148 5.19214C27.4826 5.1888 27.4494 5.18917 27.4162 5.18726H26.8068C26.7536 5.18835 26.7004 5.18765 26.6476 5.18726H26.4562C26.2416 5.18726 26.0676 5.01324 26.0676 4.79858C26.0676 4.58393 26.2416 4.40991 26.4562 4.40991H26.5246Z" fill="white"/>
<path d="M35.9963 8.58862C36.2753 8.59829 36.486 8.68028 36.6721 8.8103C36.7716 8.87996 36.8665 8.96501 36.9601 9.0564L37.2453 9.34155L38.5275 10.6072L39.0422 11.114C39.2322 11.2933 39.4153 11.4496 39.5549 11.53C39.7401 11.6359 39.9463 11.7026 40.1584 11.7244C40.3183 11.7417 40.4868 11.7325 40.6721 11.7263C40.8155 11.7216 40.9685 11.7196 41.1213 11.7371H41.2814C41.5058 11.7372 41.6877 11.9199 41.6877 12.1443C41.6875 12.3686 41.5057 12.5504 41.2814 12.5505H40.3361C40.2977 12.5505 40.261 12.5439 40.2258 12.5339C39.7987 12.514 39.4538 12.3929 39.1418 12.2C38.7494 11.9571 38.4089 11.6008 38.0265 11.2253C37.5832 10.7842 37.1354 10.3464 36.6847 9.91284C36.6022 9.83328 36.4978 9.72118 36.4133 9.63745C36.3208 9.54592 36.2319 9.46657 36.1476 9.41187C36.1392 9.40645 36.1118 9.39704 36.0578 9.39136C35.9688 9.38204 35.8775 9.39434 35.8019 9.44214C35.7923 9.44824 35.7821 9.45548 35.7717 9.46265C35.7011 9.51124 35.6238 9.57644 35.5451 9.64917C35.3839 9.79822 35.2385 9.95757 35.1281 10.0671L35.1271 10.0681L33.8732 11.2996C33.6147 11.5526 33.3419 11.8525 33.0285 12.0828C32.7999 12.2507 32.5245 12.3995 32.2385 12.4734C32.1688 12.4913 32.0276 12.506 31.8703 12.5173C31.7069 12.5291 31.5086 12.5382 31.3127 12.5427C31.2922 12.5432 31.2716 12.5424 31.2512 12.5427C31.2267 12.5473 31.2017 12.5505 31.176 12.5505H30.5637C30.3394 12.5504 30.1576 12.3686 30.1574 12.1443C30.1574 11.9199 30.3393 11.7372 30.5637 11.7371H30.8703C30.9157 11.7355 30.9621 11.7336 31.008 11.7332C31.1472 11.7317 31.291 11.734 31.4113 11.7361C31.5352 11.7382 31.6283 11.7395 31.6779 11.7361C31.8641 11.7232 32.046 11.6915 32.2131 11.6287C32.356 11.5749 32.4866 11.4916 32.6154 11.3904C32.8826 11.1802 33.119 10.9212 33.3781 10.6677L34.6857 9.3855L34.9123 9.15601C34.9922 9.0754 35.076 8.9933 35.1623 8.92065C35.3395 8.77153 35.5483 8.63966 35.8 8.59839L35.8556 8.5896L35.8635 8.58862H35.9963Z" fill="white"/>
<path d="M40.5969 4.39819H41.2814C41.5058 4.39837 41.6877 4.58098 41.6877 4.80542C41.6875 5.02974 41.5057 5.21149 41.2814 5.21167H40.6037L40.6017 5.21069C40.5939 5.21068 40.5861 5.21167 40.5783 5.21167C40.4276 5.21161 40.284 5.21409 40.1457 5.22827C39.8719 5.25639 39.6221 5.32976 39.3898 5.51733C39.1233 5.73268 38.8941 5.9743 38.6349 6.22827C38.0427 6.80836 37.4523 7.41277 36.841 7.98315C36.6592 8.15273 36.4626 8.26999 36.2443 8.32007C36.0254 8.37022 35.7961 8.35036 35.5549 8.26733C35.4742 8.23954 35.3917 8.18807 35.3156 8.13257C35.2379 8.0758 35.1579 8.0075 35.0822 7.93823L34.6935 7.5564L33.4133 6.29468C33.2352 6.11887 33.0564 5.92633 32.8596 5.74487C32.6655 5.56607 32.4696 5.41336 32.2746 5.32495C32.0424 5.22767 31.7845 5.1959 31.509 5.18823C31.5055 5.18814 31.5017 5.18832 31.4982 5.18823C31.4885 5.18895 31.4788 5.19116 31.4689 5.19116H30.55C30.3332 5.19116 30.1574 5.0154 30.1574 4.79858C30.1574 4.58177 30.3332 4.40601 30.55 4.40601H30.7023C31.0531 4.39472 31.4161 4.40039 31.757 4.41089C32.6866 4.43967 33.1829 4.95668 33.7502 5.51733L34.9543 6.69897L34.9553 6.69995C35.2158 6.95933 35.4617 7.21 35.7306 7.44995C35.8277 7.53636 35.9101 7.56126 35.9787 7.5603C36.0515 7.55911 36.132 7.52893 36.2228 7.46851C36.3139 7.40787 36.4059 7.32393 36.4992 7.22925C36.5856 7.14154 36.6876 7.02914 36.7717 6.94702L38.0363 5.70581C38.1674 5.57647 38.3542 5.38479 38.5373 5.20874C38.7202 5.03289 38.9167 4.85618 39.0783 4.75464C39.5438 4.46245 40.0862 4.3905 40.5969 4.39819Z" fill="white"/>
<path d="M28.6789 2.32495C28.6858 2.32539 28.6948 2.32578 28.7033 2.3269C28.7075 2.32747 28.7141 2.32833 28.7209 2.32983C28.7257 2.33092 28.7416 2.33475 28.759 2.34351C28.8861 2.40778 29.0247 2.51689 29.1457 2.62964C29.2676 2.74331 29.3817 2.87027 29.4592 2.97729C29.4975 3.03031 29.5258 3.09864 29.5412 3.15796C29.5492 3.18866 29.5559 3.22223 29.5578 3.25464C29.5594 3.28414 29.5585 3.32703 29.5422 3.3689C29.5132 3.44317 29.4564 3.52163 29.3976 3.59155C29.3362 3.66462 29.2612 3.74092 29.1857 3.81226C29.0374 3.95247 28.8707 4.08679 28.7717 4.14526C28.7626 4.15046 28.7524 4.15484 28.7424 4.15796L28.6584 4.17358C28.6349 4.17517 28.6163 4.17451 28.6056 4.17456C28.5845 4.17456 28.5634 4.16959 28.5441 4.16089C28.4816 4.13262 28.3994 4.07177 28.3224 4.00757C28.2408 3.93946 28.1489 3.85492 28.0637 3.76733C27.9791 3.68035 27.8973 3.58661 27.8361 3.50073C27.8056 3.45794 27.7773 3.41307 27.757 3.36987C27.7384 3.33016 27.7185 3.27408 27.7219 3.2146C27.7251 3.16055 27.7473 3.11155 27.7668 3.07593C27.7881 3.03711 27.816 2.99717 27.8459 2.95874C27.9058 2.88183 27.9836 2.79808 28.0627 2.71948C28.221 2.56227 28.3979 2.41069 28.4758 2.35229C28.5004 2.33398 28.53 2.32368 28.5607 2.323H28.633C28.6478 2.32328 28.6646 2.32403 28.6789 2.32495Z" fill="white"/>
</svg>
