<svg width="18" height="18" viewBox="0 0 18 18" fill="none" xmlns="http://www.w3.org/2000/svg">
<path d="M9.69678 2.49678C9.69678 2.11196 9.38482 1.8 9 1.8C8.61518 1.8 8.30323 2.11196 8.30323 2.49678V8.30323H2.49678C2.11196 8.30323 1.8 8.61518 1.8 9C1.8 9.38482 2.11196 9.69678 2.49678 9.69678H8.30323V15.5032C8.30323 15.888 8.61518 16.2 9 16.2C9.38482 16.2 9.69678 15.888 9.69678 15.5032V9.69678H15.5032C15.888 9.69678 16.2 9.38482 16.2 9C16.2 8.61518 15.888 8.30323 15.5032 8.30323H9.69678V2.49678Z" fill="#FBFBFB"/>
</svg>
