<svg width="14" height="14" viewBox="0 0 14 14" fill="none" xmlns="http://www.w3.org/2000/svg">
<g clip-path="url(#clip0_1109_10163)">
<path fill-rule="evenodd" clip-rule="evenodd" d="M7 -0.00012207C6.72083 -0.00012207 6.44441 0.0550623 6.18664 0.162259C5.92911 0.269356 5.69527 0.42626 5.49853 0.62396L5.49799 0.624505L4.9975 1.12499C4.80264 1.3185 4.53872 1.42768 4.26409 1.42788H3.54622C2.98443 1.42788 2.44566 1.65105 2.04841 2.04829C1.65117 2.44553 1.428 2.98431 1.428 3.5461L1.428 4.26383C1.42781 4.53846 1.31912 4.80202 1.12562 4.99687L0.624627 5.49787L0.624082 5.49841C0.426382 5.69514 0.269479 5.92899 0.162381 6.18652C0.0551843 6.44429 0 6.72071 0 6.99988C0 7.27905 0.0551845 7.55546 0.162381 7.81323C0.269481 8.07077 0.42639 8.30462 0.624099 8.50136L0.624627 8.50189L1.12512 9.00238C1.31866 9.19724 1.42781 9.46113 1.428 9.73579V10.4537C1.428 11.0154 1.65117 11.5542 2.04841 11.9515C2.44566 12.3487 2.98443 12.5719 3.54622 12.5719H4.26395C4.53859 12.572 4.80203 12.6807 4.99691 12.8742L4.9975 12.8748L5.49799 13.3752L5.49879 13.3761C5.69548 13.5736 5.92923 13.7304 6.18664 13.8375C6.44441 13.9447 6.72083 13.9999 7 13.9999C7.27917 13.9999 7.55559 13.9447 7.81336 13.8375C8.07084 13.7304 8.30464 13.5736 8.50135 13.3759L8.50201 13.3752L9.0025 12.8748C9.1974 12.6812 9.46134 12.572 9.73604 12.5719H10.4538C11.0156 12.5719 11.5543 12.3487 11.9516 11.9515C12.3488 11.5542 12.572 11.0154 12.572 10.4537V9.73592C12.5722 9.46122 12.6809 9.19771 12.8744 9.00282L13.3754 8.50189L13.376 8.50123C13.5737 8.30452 13.7305 8.07071 13.8376 7.81323C13.9448 7.55547 14 7.27905 14 6.99988C14 6.72071 13.9448 6.44429 13.8376 6.18652C13.7306 5.9291 13.5738 5.69535 13.3762 5.49867L13.3754 5.49787L12.8749 4.99738L12.8743 4.99679C12.6808 4.80191 12.5722 4.53847 12.572 4.26383V3.5461C12.572 2.98431 12.3488 2.44553 11.9516 2.04829C11.5543 1.65105 11.0156 1.42788 10.4538 1.42788L9.73604 1.42788C9.46139 1.42768 9.19781 1.31897 9.00294 1.12543L8.50201 0.624505L8.50149 0.623977C8.30475 0.426268 8.0709 0.269359 7.81336 0.162259C7.55559 0.0550624 7.27917 -0.00012207 7 -0.00012207ZM8.48998 7.84944C8.61905 7.79855 8.75968 7.7706 8.90683 7.7706C9.53472 7.7706 10.0437 8.2796 10.0437 8.90749C10.0437 9.53539 9.53472 10.0444 8.90683 10.0444C8.27894 10.0444 7.76993 9.53539 7.76993 8.90749C7.76993 8.75902 7.79839 8.6172 7.85015 8.48718C7.92024 8.1689 8.17132 7.91851 8.48998 7.84944ZM6.13742 5.48943C6.18698 5.36183 6.21417 5.22306 6.21417 5.07794C6.21417 4.45005 5.70517 3.94104 5.07727 3.94104C4.44938 3.94104 3.94037 4.45005 3.94037 5.07794C3.94037 5.70583 4.44938 6.21484 5.07727 6.21484C5.22371 6.21484 5.36368 6.18715 5.49223 6.13673C5.81548 6.06811 6.06982 5.81306 6.13742 5.48943ZM8.75666 4.16187C9.0511 3.86743 9.52847 3.86743 9.8229 4.16187C10.1173 4.4563 10.1173 4.93367 9.8229 5.2281L5.22744 9.82357C4.933 10.118 4.45563 10.118 4.1612 9.82357C3.86677 9.52913 3.86677 9.05176 4.1612 8.75733L8.75666 4.16187Z" fill="url(#paint0_linear_1109_10163)"/>
</g>
<defs>
<linearGradient id="paint0_linear_1109_10163" x1="7" y1="-0.00012207" x2="7" y2="13.9999" gradientUnits="userSpaceOnUse">
<stop stop-color="#D2FF72"/>
<stop offset="1" stop-color="#56DEEA"/>
</linearGradient>
<clipPath id="clip0_1109_10163">
<rect width="14" height="14" fill="white"/>
</clipPath>
</defs>
</svg>
