<svg width="18" height="18" viewBox="0 0 18 18" fill="none" xmlns="http://www.w3.org/2000/svg">
<g clip-path="url(#clip0_665_2651)">
<path d="M5.73838 9.64249C6.08943 9.62525 6.43995 9.63338 6.78603 9.66798L6.78516 9.66886C8.3123 9.80864 9.52379 11.0106 9.67148 12.5394C9.7073 12.9104 9.43599 13.24 9.06504 13.2759C8.69405 13.3117 8.36445 13.0404 8.32852 12.6694C8.24323 11.7861 7.54279 11.092 6.65859 11.0127L6.65156 11.0118C6.28052 10.9747 5.90063 10.9745 5.51953 11.0118C4.6279 11.0979 3.92927 11.7898 3.84434 12.6694C3.80842 13.0404 3.47875 13.3116 3.10781 13.2759C2.73675 13.2401 2.46466 12.9104 2.50049 12.5394C2.64869 11.0051 3.86558 9.8154 5.3877 9.66798L5.73838 9.64249Z" fill="#FBFBFB" fill-opacity="0.7"/>
<path d="M14.8271 11.6552C15.1999 11.6552 15.5021 11.9574 15.5021 12.3302C15.502 12.7028 15.1998 13.0052 14.8271 13.0052H13.1625C12.7898 13.0052 12.4877 12.7028 12.4875 12.3302C12.4875 11.9574 12.7897 11.6552 13.1625 11.6552H14.8271Z" fill="#FBFBFB" fill-opacity="0.7"/>
<path d="M14.8271 8.32501C15.1999 8.32503 15.5021 8.62723 15.5021 9.00001C15.5021 9.37271 15.1999 9.675 14.8271 9.67501H11.4979C11.1251 9.67501 10.8229 9.37272 10.8229 9.00001C10.8229 8.62722 11.1251 8.32501 11.4979 8.32501H14.8271Z" fill="#FBFBFB" fill-opacity="0.7"/>
<path fill-rule="evenodd" clip-rule="evenodd" d="M6.08643 4.71974C7.29132 4.71988 8.26787 5.69719 8.26787 6.90206C8.26777 8.10692 7.29124 9.08337 6.08643 9.08351C4.88153 9.08351 3.90421 8.10702 3.9041 6.90206C3.9041 5.69708 4.88144 4.71974 6.08643 4.71974ZM6.08643 6.06974C5.62703 6.06974 5.2541 6.44266 5.2541 6.90206C5.25421 7.36139 5.62707 7.73351 6.08643 7.73351C6.54565 7.73337 6.91777 7.36133 6.91787 6.90206C6.91787 6.44273 6.5457 6.06988 6.08643 6.06974Z" fill="#FBFBFB" fill-opacity="0.7"/>
<path d="M14.8271 4.99484C15.1999 4.99485 15.5021 5.29705 15.5021 5.66984C15.5021 6.04262 15.1999 6.34482 14.8271 6.34484H10.6646C10.292 6.34465 9.98965 6.04251 9.98965 5.66984C9.98965 5.29716 10.292 4.99503 10.6646 4.99484H14.8271Z" fill="#FBFBFB" fill-opacity="0.7"/>
<path fill-rule="evenodd" clip-rule="evenodd" d="M13.1625 0.832336C14.8227 0.832339 16.1309 1.02339 16.9699 1.86241C17.8089 2.70145 18 4.00967 18 5.66984V12.3302C18 13.99 17.8087 15.2977 16.9699 16.1367C16.1309 16.9758 14.8227 17.1677 13.1625 17.1677H4.8375C3.17733 17.1677 1.86911 16.9757 1.03008 16.1367C0.191331 15.2978 2.70296e-05 13.99 0 12.3302V5.66984C0 4.00966 0.191048 2.70144 1.03008 1.86241C1.86911 1.0234 3.17733 0.832336 4.8375 0.832336H13.1625ZM4.8375 2.18234C3.16769 2.18234 2.39429 2.4072 1.98457 2.81691C1.57485 3.22663 1.35 4.00001 1.35 5.66984V12.3302C1.35003 13.9994 1.57505 14.7725 1.98457 15.1822C2.39429 15.592 3.16769 15.8177 4.8375 15.8177H13.1625C14.8323 15.8177 15.6057 15.592 16.0154 15.1822C16.4249 14.7725 16.65 13.9994 16.65 12.3302V5.66984C16.65 4.00003 16.4251 3.22663 16.0154 2.81691C15.6057 2.40719 14.8323 2.18234 13.1625 2.18234H4.8375Z" fill="#FBFBFB" fill-opacity="0.7"/>
</g>
<defs>
<clipPath id="clip0_665_2651">
<rect width="18" height="18" fill="white"/>
</clipPath>
</defs>
</svg>
