<svg width="80" height="80" viewBox="0 0 80 80" fill="none" xmlns="http://www.w3.org/2000/svg">
<path opacity="0.4" d="M30.3269 16.8621C31.336 15.2007 32.7559 13.8273 34.45 12.8742C36.144 11.9211 38.055 11.4204 39.9988 11.4204C41.9425 11.4204 43.8535 11.9211 45.5476 12.8742C47.2416 13.8273 48.6616 15.2007 49.6706 16.8621L49.678 16.8741L49.6837 16.8838L49.6908 16.8955L70.4415 51.5334L70.4757 51.5916L70.4851 51.6079C71.4724 53.3187 71.9946 55.2581 72 57.2333C72.0053 59.2086 71.4935 61.1507 70.5155 62.8668C69.5375 64.5829 68.1274 66.0131 66.4253 67.0153C64.7232 68.0174 62.7884 68.5566 60.8133 68.5792L60.8002 68.5793L60.753 68.5796H19.247L19.1998 68.5793L19.1867 68.5792C17.2116 68.5566 15.2768 68.0174 13.5747 67.0153C11.8726 66.0131 10.4625 64.5829 9.48448 62.8668C8.50649 61.1507 7.99471 59.2085 8.00004 57.2333C8.00537 55.2581 8.52761 53.3187 9.51485 51.6079L9.52417 51.5918L9.55832 51.5337L30.3137 16.884L30.3269 16.8621Z" fill="url(#paint0_linear_1177_19374)"/>
<path fill-rule="evenodd" clip-rule="evenodd" d="M39.9986 15.9917C38.8401 15.9917 37.7011 16.2901 36.6914 16.8582C35.6817 17.4263 34.8354 18.2449 34.234 19.2351L34.2281 19.2448L13.4894 53.8667L13.4742 53.8927C12.8858 54.9123 12.5745 56.0683 12.5713 57.2455C12.5681 58.4228 12.8732 59.5804 13.4561 60.6032C14.039 61.6261 14.8795 62.4785 15.894 63.0758C16.9085 63.6731 18.0616 63.9945 19.2388 64.0079L19.2599 64.008H60.7398L60.7609 64.0079C61.9381 63.9945 63.0913 63.6731 64.1058 63.0758C65.1203 62.4785 65.9607 61.6261 66.5436 60.6032C67.1266 59.5804 67.4316 58.4228 67.4284 57.2455C67.4252 56.0683 67.114 54.9123 66.5255 53.8927L66.5102 53.8666L45.7691 19.2447L45.7633 19.2351C45.1619 18.2449 44.3155 17.4263 43.3058 16.8582C42.2962 16.2901 41.1572 15.9917 39.9986 15.9917ZM39.9968 28.3426C41.8904 28.3426 43.4254 29.8776 43.4254 31.7712V42.7426C43.4254 44.6361 41.8904 46.1712 39.9968 46.1712C38.1033 46.1712 36.5683 44.6361 36.5683 42.7426V31.7712C36.5683 29.8776 38.1033 28.3426 39.9968 28.3426ZM36.5683 53.714C36.5683 51.8205 38.1033 50.2854 39.9968 50.2854H40.0243C41.9178 50.2854 43.4528 51.8205 43.4528 53.714C43.4528 55.6076 41.9178 57.1426 40.0243 57.1426H39.9968C38.1033 57.1426 36.5683 55.6076 36.5683 53.714Z" fill="url(#paint1_linear_1177_19374)"/>
<path opacity="0.4" d="M20.3799 67.5996C20.7989 66.6719 22.1163 66.6719 22.5353 67.5996L23.1964 69.0634C23.3149 69.3257 23.525 69.5358 23.7874 69.6543L25.2512 70.3154C26.1789 70.7344 26.1789 72.0519 25.2512 72.4709L23.7874 73.132C23.525 73.2505 23.3149 73.4606 23.1964 73.7229L22.5353 75.1867C22.1163 76.1144 20.7989 76.1144 20.3799 75.1867L19.7188 73.7229C19.6003 73.4606 19.3902 73.2505 19.1278 73.132L17.664 72.4709C16.7363 72.0519 16.7363 70.7344 17.664 70.3154L19.1278 69.6543C19.3902 69.5358 19.6003 69.3257 19.7188 69.0634L20.3799 67.5996Z" fill="url(#paint2_linear_1177_19374)"/>
<path opacity="0.4" d="M61.4331 9.16404C61.8521 8.23633 63.1695 8.23633 63.5885 9.16404L64.2496 10.6278C64.3681 10.8902 64.5783 11.1003 64.8406 11.2188L66.3044 11.8799C67.2321 12.2989 67.2321 13.6163 66.3044 14.0353L64.8406 14.6964C64.5783 14.8149 64.3681 15.025 64.2496 15.2874L63.5885 16.7512C63.1695 17.6789 61.8521 17.6789 61.4331 16.7512L60.772 15.2874C60.6535 15.025 60.4434 14.8149 60.181 14.6964L58.7173 14.0353C57.7896 13.6163 57.7896 12.2989 58.7173 11.8799L60.181 11.2188C60.4434 11.1003 60.6535 10.8902 60.772 10.6278L61.4331 9.16404Z" fill="url(#paint3_linear_1177_19374)"/>
<path opacity="0.4" d="M76.2603 44.1302C76.2603 46.4112 74.4112 48.2603 72.1302 48.2603C69.8491 48.2603 68 46.4112 68 44.1302C68 41.8491 69.8491 40 72.1302 40C74.4112 40 76.2603 41.8491 76.2603 44.1302ZM70.2885 44.1302C70.2885 45.1473 71.1131 45.9718 72.1302 45.9718C73.1473 45.9718 73.9718 45.1473 73.9718 44.1302C73.9718 43.1131 73.1473 42.2885 72.1302 42.2885C71.1131 42.2885 70.2885 43.1131 70.2885 44.1302Z" fill="url(#paint4_linear_1177_19374)"/>
<path opacity="0.4" fill-rule="evenodd" clip-rule="evenodd" d="M4.29834 25.1895C3.60563 25.8822 3.60563 27.0053 4.29834 27.698L7.61918 31.0189C8.31189 31.7116 9.43499 31.7116 10.1277 31.0189L13.4485 27.698C14.1412 27.0053 14.1412 25.8822 13.4485 25.1895L10.1277 21.8687C9.43499 21.1759 8.31189 21.1759 7.61918 21.8687L4.29834 25.1895ZM8.87345 27.8324C9.64039 27.8324 10.2621 27.2107 10.2621 26.4437C10.2621 25.6768 9.64039 25.0551 8.87345 25.0551C8.10652 25.0551 7.4848 25.6768 7.4848 26.4437C7.4848 27.2107 8.10652 27.8324 8.87345 27.8324Z" fill="url(#paint5_linear_1177_19374)"/>
<defs>
<linearGradient id="paint0_linear_1177_19374" x1="8" y1="15.846" x2="52.192" y2="92.7303" gradientUnits="userSpaceOnUse">
<stop stop-color="#FAEB6A"/>
<stop offset="1" stop-color="#FAEB6A" stop-opacity="0"/>
</linearGradient>
<linearGradient id="paint1_linear_1177_19374" x1="39.9999" y1="15.9917" x2="39.9999" y2="64.008" gradientUnits="userSpaceOnUse">
<stop stop-color="#FAEB6A"/>
<stop offset="1" stop-color="#FAEB6A" stop-opacity="0.4"/>
</linearGradient>
<linearGradient id="paint2_linear_1177_19374" x1="16.9683" y1="67.599" x2="24.2802" y2="78.9604" gradientUnits="userSpaceOnUse">
<stop stop-color="#FAEB6A"/>
<stop offset="1" stop-color="#FAEB6A" stop-opacity="0"/>
</linearGradient>
<linearGradient id="paint3_linear_1177_19374" x1="58.0215" y1="9.16344" x2="65.3334" y2="20.5248" gradientUnits="userSpaceOnUse">
<stop stop-color="#FAEB6A"/>
<stop offset="1" stop-color="#FAEB6A" stop-opacity="0"/>
</linearGradient>
<linearGradient id="paint4_linear_1177_19374" x1="68" y1="40.6396" x2="74.7269" y2="51.092" gradientUnits="userSpaceOnUse">
<stop stop-color="#FAEB6A"/>
<stop offset="1" stop-color="#FAEB6A" stop-opacity="0"/>
</linearGradient>
<linearGradient id="paint5_linear_1177_19374" x1="3.77881" y1="22.138" x2="12.0766" y2="35.0313" gradientUnits="userSpaceOnUse">
<stop stop-color="#FAEB6A"/>
<stop offset="1" stop-color="#FAEB6A" stop-opacity="0"/>
</linearGradient>
</defs>
</svg>
