<svg width="80" height="80" viewBox="0 0 80 80" fill="none" xmlns="http://www.w3.org/2000/svg">
<path opacity="0.4" d="M40 8C31.5131 8 23.3737 11.3714 17.3726 17.3726C11.3714 23.3737 8 31.513 8 40C8 44.2023 8.82771 48.3634 10.4358 52.2459C12.0439 56.1283 14.4011 59.656 17.3726 62.6274C20.344 65.5989 23.8717 67.956 27.7542 69.5642C31.6366 71.1723 35.7977 72 40 72C44.2023 72 48.3634 71.1723 52.2458 69.5642C56.1284 67.956 59.656 65.5989 62.6274 62.6274C65.5989 59.656 67.9561 56.1283 69.5642 52.2459C71.1723 48.3634 72 44.2023 72 40C72 31.513 68.6286 23.3737 62.6274 17.3726C56.6263 11.3714 48.4869 8 40 8Z" fill="url(#paint0_linear_1149_38526)"/>
<path fill-rule="evenodd" clip-rule="evenodd" d="M40.0001 12.5713C32.7256 12.5713 25.749 15.4611 20.6052 20.6049C15.4613 25.7488 12.5715 32.7254 12.5715 39.9999C12.5715 43.6018 13.281 47.1685 14.6594 50.4963C16.0378 53.8241 18.0582 56.8478 20.6052 59.3948C23.1522 61.9418 26.1759 63.9621 29.5036 65.3406C32.8314 66.719 36.3981 67.4284 40.0001 67.4284C43.6021 67.4284 47.1688 66.719 50.4966 65.3406C53.8244 63.9621 56.8481 61.9418 59.395 59.3948C61.942 56.8478 63.9624 53.8241 65.3408 50.4963C66.7192 47.1685 67.4287 43.6018 67.4287 39.9999C67.4287 32.7254 64.5389 25.7488 59.395 20.6049C54.2512 15.4611 47.2746 12.5713 40.0001 12.5713ZM39.9971 25.5999C41.8906 25.5999 43.4257 27.1349 43.4257 29.0284V39.9999C43.4257 41.8934 41.8906 43.4284 39.9971 43.4284C38.1035 43.4284 36.5685 41.8934 36.5685 39.9999V29.0284C36.5685 27.1349 38.1035 25.5999 39.9971 25.5999ZM36.5685 50.9713C36.5685 49.0777 38.1035 47.5427 39.9971 47.5427H40.0245C41.9181 47.5427 43.4531 49.0777 43.4531 50.9713C43.4531 52.8648 41.9181 54.3999 40.0245 54.3999H39.9971C38.1035 54.3999 36.5685 52.8648 36.5685 50.9713Z" fill="url(#paint1_linear_1149_38526)"/>
<path opacity="0.4" d="M20.3797 67.5996C20.7987 66.6719 22.1161 66.6719 22.5351 67.5996L23.1962 69.0634C23.3147 69.3257 23.5248 69.5358 23.7871 69.6543L25.2509 70.3154C26.1786 70.7344 26.1786 72.0519 25.2509 72.4709L23.7871 73.132C23.5248 73.2505 23.3147 73.4606 23.1962 73.7229L22.5351 75.1867C22.1161 76.1144 20.7987 76.1144 20.3797 75.1867L19.7185 73.7229C19.6001 73.4606 19.3899 73.2505 19.1276 73.132L17.6638 72.4709C16.7361 72.0519 16.7361 70.7344 17.6638 70.3154L19.1276 69.6543C19.3899 69.5358 19.6001 69.3257 19.7185 69.0634L20.3797 67.5996Z" fill="url(#paint2_linear_1149_38526)"/>
<path opacity="0.4" d="M61.4331 9.16404C61.8521 8.23633 63.1695 8.23633 63.5885 9.16404L64.2496 10.6278C64.3681 10.8902 64.5783 11.1003 64.8406 11.2188L66.3044 11.8799C67.2321 12.2989 67.2321 13.6163 66.3044 14.0353L64.8406 14.6964C64.5783 14.8149 64.3681 15.025 64.2496 15.2874L63.5885 16.7512C63.1695 17.6789 61.8521 17.6789 61.4331 16.7512L60.772 15.2874C60.6535 15.025 60.4434 14.8149 60.181 14.6964L58.7173 14.0353C57.7896 13.6163 57.7896 12.2989 58.7173 11.8799L60.181 11.2188C60.4434 11.1003 60.6535 10.8902 60.772 10.6278L61.4331 9.16404Z" fill="url(#paint3_linear_1149_38526)"/>
<path opacity="0.4" d="M76.3687 51.0291C76.3687 53.3101 74.5196 55.1593 72.2386 55.1593C69.9575 55.1593 68.1084 53.3101 68.1084 51.0291C68.1084 48.7481 69.9575 46.8989 72.2386 46.8989C74.5196 46.8989 76.3687 48.7481 76.3687 51.0291ZM70.3969 51.0291C70.3969 52.0462 71.2215 52.8707 72.2386 52.8707C73.2557 52.8707 74.0802 52.0462 74.0802 51.0291C74.0802 50.012 73.2557 49.1874 72.2386 49.1874C71.2215 49.1874 70.3969 50.012 70.3969 51.0291Z" fill="url(#paint4_linear_1149_38526)"/>
<path opacity="0.4" fill-rule="evenodd" clip-rule="evenodd" d="M4.29834 25.1895C3.60563 25.8822 3.60563 27.0053 4.29834 27.698L7.61918 31.0189C8.31189 31.7116 9.43499 31.7116 10.1277 31.0189L13.4485 27.698C14.1412 27.0053 14.1412 25.8822 13.4485 25.1895L10.1277 21.8687C9.43499 21.1759 8.31189 21.1759 7.61918 21.8687L4.29834 25.1895ZM8.87345 27.8324C9.64039 27.8324 10.2621 27.2107 10.2621 26.4437C10.2621 25.6768 9.64039 25.0551 8.87345 25.0551C8.10652 25.0551 7.4848 25.6768 7.4848 26.4437C7.4848 27.2107 8.10652 27.8324 8.87345 27.8324Z" fill="url(#paint5_linear_1149_38526)"/>
<defs>
<linearGradient id="paint0_linear_1149_38526" x1="8" y1="12.9552" x2="60.1193" y2="93.9392" gradientUnits="userSpaceOnUse">
<stop stop-color="#FF9583"/>
<stop offset="1" stop-color="#FF9583" stop-opacity="0"/>
</linearGradient>
<linearGradient id="paint1_linear_1149_38526" x1="40.0001" y1="12.5713" x2="40.0001" y2="67.4284" gradientUnits="userSpaceOnUse">
<stop stop-color="#FF9583"/>
<stop offset="1" stop-color="#FF9583" stop-opacity="0.4"/>
</linearGradient>
<linearGradient id="paint2_linear_1149_38526" x1="16.968" y1="67.599" x2="24.2799" y2="78.9604" gradientUnits="userSpaceOnUse">
<stop stop-color="#FF9583"/>
<stop offset="1" stop-color="#FF9583" stop-opacity="0"/>
</linearGradient>
<linearGradient id="paint3_linear_1149_38526" x1="58.0215" y1="9.16344" x2="65.3334" y2="20.5248" gradientUnits="userSpaceOnUse">
<stop stop-color="#FF9583"/>
<stop offset="1" stop-color="#FF9583" stop-opacity="0"/>
</linearGradient>
<linearGradient id="paint4_linear_1149_38526" x1="68.1084" y1="47.5385" x2="74.8353" y2="57.9909" gradientUnits="userSpaceOnUse">
<stop stop-color="#FF9583"/>
<stop offset="1" stop-color="#FF9583" stop-opacity="0"/>
</linearGradient>
<linearGradient id="paint5_linear_1149_38526" x1="3.77881" y1="22.138" x2="12.0766" y2="35.0313" gradientUnits="userSpaceOnUse">
<stop stop-color="#FF9583"/>
<stop offset="1" stop-color="#FF9583" stop-opacity="0"/>
</linearGradient>
</defs>
</svg>
