<svg width="59" height="16" viewBox="0 0 59 16" fill="none" xmlns="http://www.w3.org/2000/svg">
<path fill-rule="evenodd" clip-rule="evenodd" d="M53.6268 12.1422C51.4655 12.1422 49.8222 10.8477 49.8222 8.54006C49.8222 6.13116 51.6229 3.85779 54.4936 3.85779C56.6549 3.8578 58.2982 5.15222 58.2982 7.44816C58.2982 9.86795 56.4858 12.1422 53.6268 12.1422ZM53.728 10.3298C55.3378 10.3298 55.8332 8.47232 55.8332 7.38124C55.8332 6.17721 55.2257 5.67014 54.3924 5.67013C52.7825 5.67013 52.2872 7.52767 52.2872 8.61875C52.2872 9.82278 52.8946 10.3298 53.728 10.3298Z" fill="#FBFBFB" fill-opacity="0.32"/>
<path d="M45.4194 12.1413C43.2582 12.1413 41.6601 10.8469 41.6601 8.52837L41.6617 8.52919C41.6617 6.132 43.418 3.85779 46.3214 3.85779C48.3697 3.8578 49.6415 4.97237 49.7879 6.82904C49.7988 6.89679 49.7653 6.93027 49.6975 6.93027L47.5923 6.93027C47.5363 6.93027 47.4911 6.89678 47.4794 6.82904C47.3782 6.01827 46.8828 5.66933 46.185 5.66931C44.5978 5.66931 44.125 7.53773 44.125 8.60706C44.125 9.82279 44.7325 10.329 45.5658 10.329C46.3992 10.329 46.8267 9.82276 47.0627 9.181C47.0853 9.12494 47.1305 9.10239 47.1866 9.10239L49.336 9.10239C49.4038 9.10239 49.4373 9.13587 49.4264 9.19276C48.9871 10.8469 47.5806 12.1413 45.4194 12.1413Z" fill="#FBFBFB" fill-opacity="0.32"/>
<path fill-rule="evenodd" clip-rule="evenodd" d="M39.3088 11.9388C39.2528 11.9388 39.1959 11.8936 39.1959 11.8376L39.1055 10.3181H36.5619L35.7737 11.8602C35.7511 11.9162 35.7177 11.9388 35.6608 11.9388L33.1623 11.9388C33.0837 11.9388 33.0611 11.8828 33.0946 11.815L37.4639 4.12809C37.4865 4.0829 37.5317 4.06027 37.5878 4.06027L40.7614 4.06027C40.8175 4.06027 40.8743 4.10553 40.8743 4.16159L41.5831 11.8376C41.594 11.9053 41.5605 11.9388 41.4927 11.9388H39.3088ZM38.8143 5.85006L37.5091 8.42713H38.9834L38.8143 5.85006Z" fill="#FBFBFB" fill-opacity="0.32"/>
<path d="M29.3252 11.9397C29.2574 11.9397 29.2348 11.8945 29.2465 11.8267L30.2146 7.95435L30.6647 5.80487L28.6047 5.80487C28.537 5.80487 28.5035 5.75969 28.5144 5.69276L28.8741 4.15064C28.885 4.08289 28.9302 4.06027 28.9871 4.06027L35.639 4.06027C35.7068 4.06028 35.7402 4.10553 35.7293 4.17246L35.3696 5.7145C35.3587 5.78226 35.3135 5.80487 35.2566 5.80487L33.1741 5.80487L32.6335 7.95435L31.8119 11.8484L31.8127 11.8493C31.8018 11.9171 31.7566 11.9397 31.6998 11.9397H29.3252Z" fill="#FBFBFB" fill-opacity="0.32"/>
<path d="M24.35 11.9397C24.2822 11.9397 24.2488 11.8945 24.2597 11.8267L25.1825 8.07904L26.0385 4.15064C26.0494 4.0829 26.0946 4.06027 26.1515 4.06027L28.4474 4.06027C28.5152 4.06027 28.5487 4.10552 28.5378 4.17245L27.5697 8.07823L26.7589 11.8484V11.8493C26.748 11.9171 26.7029 11.9397 26.646 11.9397H24.35Z" fill="#FBFBFB" fill-opacity="0.32"/>
<path fill-rule="evenodd" clip-rule="evenodd" d="M17.2706 11.9397C17.2028 11.9397 17.1693 11.8945 17.1802 11.8267L18.1148 8.10078L18.959 4.15064C18.9699 4.0829 19.0151 4.06027 19.0711 4.06026L22.2013 4.06027C24.2948 4.06027 25.1391 5.06185 25.1391 6.45749C25.1391 8.24723 23.7886 9.50816 21.4023 9.50816L20.2425 9.50816L19.7247 11.8493C19.7138 11.9171 19.6685 11.9397 19.6117 11.9397H17.2706ZM21.4358 7.78619C22.3478 7.78618 22.741 7.26824 22.741 6.6156C22.741 6.14288 22.5159 5.77137 21.8064 5.77137L21.1086 5.77137L20.6249 7.78619H21.4358Z" fill="#FBFBFB" fill-opacity="0.32"/>
<path fill-rule="evenodd" clip-rule="evenodd" d="M4.06068 0C4.28388 0 4.48001 0.0973204 4.61801 0.246009L4.64481 0.276441L4.67327 0.310418L4.7239 0.419032C4.73346 0.434813 4.74306 0.451452 4.75211 0.469174C4.75712 0.478565 4.76068 0.485666 4.76168 0.487729C4.76337 0.491247 4.76477 0.494326 4.7658 0.496554L4.95342 0.896452L4.96117 0.913029L4.96711 0.930348C4.96769 0.932053 4.96971 0.937061 4.97478 0.945687L4.9869 0.966387C5.00824 0.994595 5.03517 1.00465 5.05552 1.00465H5.073L7.71263 0.338128L7.82611 0.309264L7.82784 0.308769L7.82965 0.308357C8.20768 0.216496 8.60177 0.168902 9.00502 0.168899C10.0644 0.168899 11.0502 0.497366 11.887 1.06247C12.0465 1.16969 12.2002 1.28619 12.347 1.4095L12.4096 1.46278L12.4104 1.46344C12.5952 1.62405 12.7709 1.79628 12.9356 1.98176C13.4166 2.51824 13.8024 3.15159 14.0733 3.84955L14.0992 3.91734L14.0994 3.91784C14.3232 4.51715 14.463 5.1646 14.4997 5.84212C14.5081 5.96738 14.5115 6.09305 14.5115 6.21686C14.5115 6.2838 14.5116 6.36016 14.508 6.43607C14.493 6.89731 14.4322 7.34397 14.327 7.7739L14.3271 7.77398C14.1587 8.47613 13.8763 9.12636 13.5044 9.7047L13.5045 9.70478C13.4498 9.79008 13.3919 9.87518 13.3325 9.95821L13.3322 9.95854C12.8258 10.6644 12.1763 11.2468 11.4298 11.6485C11.0249 11.8663 10.5936 12.0324 10.1395 12.137C10.1363 12.1379 10.1323 12.1391 10.1279 12.1401C10.1226 12.1414 10.1165 12.1427 10.1099 12.1439C10.1002 12.146 10.0924 12.1474 10.0869 12.1482C10.0858 12.1484 10.0847 12.1484 10.0837 12.1485C10.038 12.1568 9.99654 12.1588 9.96159 12.1588C9.65462 12.1588 9.39993 11.9751 9.27396 11.7254L9.26101 11.6997L9.25928 11.6942L9.1665 11.4962L9.10407 11.3661C9.09687 11.3518 9.08797 11.3396 9.07825 11.3296L9.03842 11.2887L9.02655 11.2631C9.02622 11.2631 9.02588 11.263 9.02556 11.263L9.01368 11.2619C9.00935 11.2619 9.00579 11.262 9.00288 11.2621C9.00082 11.2621 8.99924 11.2622 8.99809 11.2623L8.99438 11.2633L8.98762 11.2658L8.97698 11.2689L7.71749 11.6362L4.17498 12.6734V14.784L3.8147e-06 16V1.16159L3.7364 0.0657288L3.82712 0.0383487L3.8291 0.0377714L3.831 0.0371941L3.88411 0.0218546L3.89887 0.0175662L3.91388 0.0146797C3.95554 0.00664174 4.00575 5.29482e-06 4.06068 0ZM8.0454 3.41221C7.49994 3.41221 6.99508 3.6105 6.58872 3.94719C6.53559 3.99162 6.47307 4.02408 6.40432 4.03775C6.37776 4.04287 6.3512 4.04632 6.32152 4.04632C6.29182 4.04632 6.26521 4.04287 6.23864 4.03775C6.13705 4.01723 6.04796 3.95737 5.98389 3.87363C5.97607 3.85997 5.96669 3.8463 5.95576 3.83264V3.83091C5.94021 3.81096 5.9232 3.79247 5.90496 3.77557L5.87816 3.71817C5.80444 3.65802 5.71319 3.62276 5.61425 3.62276C5.58457 3.62276 5.55488 3.62442 5.52675 3.63125C5.51112 3.63467 5.49703 3.63808 5.48296 3.64321L4.27015 3.99874L4.22166 4.01243L3.83718 4.12525V9.40467L7.63824 8.29033C7.65543 8.28349 7.67424 8.27841 7.69143 8.27499C7.718 8.26987 7.74611 8.26641 7.77423 8.26641C7.88986 8.26641 7.99377 8.31415 8.07245 8.39276L8.10379 8.45997C8.11519 8.47329 8.12603 8.48723 8.13603 8.50195C8.13759 8.50707 8.14074 8.51222 8.14387 8.51564C8.15167 8.5293 8.15948 8.54297 8.16729 8.55663L8.1564 8.53271C8.23455 8.65235 8.36427 8.72932 8.50962 8.72932C8.53774 8.72932 8.56586 8.72587 8.59242 8.72074H8.59556C8.59868 8.72245 8.60183 8.72072 8.60339 8.71901C8.61589 8.71559 8.62842 8.7122 8.64091 8.70878C9.19731 8.55667 9.67553 8.18915 10.0053 7.69522C10.0194 7.67131 10.035 7.64912 10.0491 7.62521H10.0507C10.321 7.1928 10.4805 6.66808 10.4805 6.10066C10.4805 6.02205 10.4773 5.94343 10.4711 5.86653C10.4148 5.13332 10.0897 4.48383 9.60681 4.03775C9.18325 3.64636 8.63931 3.41221 8.0454 3.41221Z" fill="#FBFBFB" fill-opacity="0.32"/>
</svg>
