<svg width="64" height="38" viewBox="0 0 64 38" fill="none" xmlns="http://www.w3.org/2000/svg">
<path fill-rule="evenodd" clip-rule="evenodd" d="M33.3028 0.0849787C25.3362 0.582756 17.3348 2.55629 11.2352 5.5278C8.23562 6.9891 5.51659 8.85031 3.79835 10.6183C-0.706955 15.2543 -1.23483 21.2522 2.37756 26.7619C5.91629 32.1593 12.8676 36.2094 20.7827 37.4854C28.467 38.7243 38.1675 37.6993 47.1369 34.7009C48.1598 34.359 49.5069 33.8808 50.1306 33.6384C51.6568 33.0451 54.6638 31.6654 55.891 30.9955C57.9827 29.8538 60.0125 28.5346 60.2005 28.1947C60.428 27.7838 59.7676 27.5651 58.4764 27.6237C57.1632 27.6833 56.8209 27.802 55.5008 28.6557C52.4568 30.6244 49.6184 31.9901 45.9576 33.2473C40.5935 35.0896 35.1774 36.0613 29.5835 36.185C25.2305 36.2814 21.8336 35.8288 18.5162 34.7105C16.2609 33.9502 14.3181 32.9819 12.39 31.6571C9.31005 29.5407 7.02529 26.9507 5.65267 24.0195C4.76111 22.1157 4.3987 20.5269 4.40152 18.5344C4.40587 15.4926 5.50181 12.9409 7.84291 10.5215C10.2909 7.99163 13.6474 6.01841 18.1079 4.48694C22.1624 3.09495 26.3645 2.28901 31.171 1.98159C32.8025 1.87725 36.3885 1.89371 37.9937 2.01295C44.7482 2.51459 50.1351 4.11089 54.2011 6.81557C56.0001 8.01239 57.1536 9.07638 58.1207 10.4313C60.2058 13.3527 60.372 16.7022 58.6079 20.249C56.6874 24.1104 52.475 27.9147 47.0629 30.6753C45.8676 31.2851 45.7797 31.49 46.643 31.6561C47.1681 31.7571 48.8154 31.7032 49.4758 31.5635C50.3935 31.3693 53.1748 29.8122 55.394 28.2503C61.4345 23.9987 64.5641 18.7829 63.9161 14.0466C63.3442 9.86643 59.9858 6.20142 54.1373 3.37507C50.201 1.47285 45.4792 0.368898 39.9428 0.056431C38.4144 -0.0298354 34.8983 -0.0147512 33.3028 0.0849787Z" fill="url(#paint0_linear_1217_42972)"/>
<defs>
<linearGradient id="paint0_linear_1217_42972" x1="32" y1="0" x2="32" y2="38" gradientUnits="userSpaceOnUse">
<stop stop-color="#E84FFF"/>
<stop offset="1" stop-color="#FF2994"/>
</linearGradient>
</defs>
</svg>
