<svg width="36" height="36" viewBox="0 0 36 36" fill="none" xmlns="http://www.w3.org/2000/svg">
<path fill-rule="evenodd" clip-rule="evenodd" d="M18.7773 3.06341C18.3335 2.67125 17.6665 2.67125 17.2226 3.06341C13.7973 6.0899 9.32669 7.66569 4.75798 7.4569C4.21813 7.43223 3.73124 7.77905 3.57883 8.29685C2.82498 10.8579 2.59432 13.5441 2.90054 16.196C3.20677 18.8478 4.04365 21.4111 5.36144 23.7335C6.67922 26.056 8.45103 28.0902 10.5716 29.7152C12.6921 31.3403 15.1181 32.5231 17.7054 33.1933C17.8986 33.2433 18.1014 33.2433 18.2945 33.1933C20.8818 32.5231 23.3079 31.3403 25.4284 29.7152C27.549 28.0902 29.3208 26.056 30.6386 23.7335C31.9563 21.4111 32.7932 18.8478 33.0994 16.196C33.4057 13.5441 33.175 10.8579 32.4212 8.29685C32.2687 7.77905 31.7819 7.43223 31.242 7.4569C26.6733 7.66569 22.2027 6.0899 18.7773 3.06341ZM5.23139 15.9275C4.99529 13.883 5.12088 11.8154 5.60007 9.81845C10.1066 9.8101 14.4783 8.27686 18 5.47076C21.5217 8.27686 25.8934 9.8101 30.3999 9.81845C30.8791 11.8154 31.0047 13.883 30.7686 15.9275C30.7569 16.0291 30.7443 16.1305 30.7308 16.2318C30.6782 16.217 30.6239 16.206 30.568 16.199L20.8995 14.9924C20.7845 14.8951 20.584 14.5323 20.0925 13.5514C19.6968 12.7614 19.302 12.0307 19.2152 11.9279C18.9509 11.6141 18.502 11.4297 18.0029 11.4297C17.6625 11.4297 17.5086 11.4619 17.2608 11.5852C17.0889 11.6708 16.8773 11.825 16.7906 11.9279C16.7039 12.0307 16.3091 12.7614 15.9134 13.5514C15.4331 14.5099 15.2334 14.8742 15.1172 14.9816C15.0836 14.9831 15.0498 14.9862 15.0158 14.9909L5.3364 16.3284C5.31863 16.3308 5.30101 16.3337 5.28356 16.337C5.26457 16.2008 5.24718 16.0643 5.23139 15.9275ZM18 13.9918C18.1273 13.9918 18.2436 14.064 18.3 14.178L19.5986 16.8058L22.5021 17.226C22.6282 17.2443 22.7329 17.3325 22.7723 17.4535C22.8116 17.5745 22.7787 17.7073 22.6874 17.796L20.5834 19.8414L21.0795 22.7297C21.1011 22.8551 21.0494 22.9818 20.9463 23.0566C20.8432 23.1313 20.7066 23.1411 20.5939 23.0817L18.003 21.7182L15.4059 23.0819C15.2932 23.1411 15.1566 23.1312 15.0536 23.0565C14.9506 22.9817 14.899 22.855 14.9205 22.7297L15.4166 19.8414L13.3126 17.796C13.2213 17.7073 13.1884 17.5745 13.2278 17.4535C13.2671 17.3325 13.3719 17.2443 13.4979 17.226L16.4014 16.8058L17.7 14.178C17.7564 14.064 17.8727 13.9918 18 13.9918Z" fill="#FBFBFB" fill-opacity="0.32"/>
</svg>
