<svg width="36" height="36" viewBox="0 0 36 36" fill="none" xmlns="http://www.w3.org/2000/svg">
<path d="M12.2563 22.3285L12.2946 22.3226C12.2818 22.3244 12.2681 22.3269 12.2555 22.3293L12.2181 22.0314C12.2295 22.1306 12.2426 22.2297 12.2563 22.3285Z" fill="#FBFBFB" fill-opacity="0.32"/>
<path fill-rule="evenodd" clip-rule="evenodd" d="M13.259 1.59832C13.5811 1.31333 14.0653 1.31318 14.3873 1.59832C16.8731 3.79932 20.1176 4.94543 23.4332 4.79359C23.8248 4.77581 24.1781 5.02796 24.2887 5.40435C24.8358 7.26686 25.0031 9.22063 24.7809 11.1492C24.7133 11.7359 24.6087 12.3166 24.4708 12.8883C23.9953 12.5943 23.5385 12.2656 23.1064 11.9014L22.8952 11.7183L22.7398 11.5927C21.9937 11.0468 20.9758 11.0468 20.2297 11.5927L20.0742 11.7183C18.8136 12.8344 17.3352 13.6457 15.7516 14.1198L15.6976 13.8003L17.2249 12.3133C17.2911 12.2487 17.315 12.1516 17.2865 12.0637C17.2579 11.9758 17.1816 11.9122 17.0902 11.8989L14.9826 11.5927L14.0406 9.68135C13.9996 9.59858 13.915 9.54655 13.8227 9.54655C13.7304 9.54657 13.6458 9.59857 13.6049 9.68135L12.6629 11.5927L10.5552 11.8989C10.464 11.9123 10.3885 11.9759 10.3599 12.0637C10.3313 12.1517 10.3551 12.2487 10.4214 12.3133L11.9479 13.8003L11.8115 14.5932H11.7508C10.9063 14.6267 10.1594 15.1597 9.8527 15.9479L9.79366 16.121C9.27882 17.8739 9.07315 19.7011 9.1834 21.5205C8.92769 21.3489 8.67669 21.1694 8.43179 20.9813C6.89293 19.7994 5.60679 18.3201 4.65048 16.6311C3.6942 14.9421 3.08681 13.0777 2.86458 11.1492C2.64237 9.22064 2.80971 7.26686 3.35678 5.40435C3.46743 5.02783 3.8214 4.77565 4.21315 4.79359C7.52863 4.94533 10.7733 3.79932 13.259 1.59832ZM13.8227 3.34906C11.267 5.38979 8.09463 6.50489 4.82424 6.51104C4.47648 7.96334 4.38519 9.46756 4.55653 10.9545C4.56796 11.0537 4.5802 11.1527 4.59394 11.2515C4.60649 11.2492 4.6194 11.2475 4.63219 11.2457L11.6569 10.273C11.6816 10.2696 11.7065 10.2674 11.7309 10.2663C11.8152 10.1882 11.9603 9.92314 12.3087 9.22619C12.5956 8.65232 12.8813 8.12132 12.9448 8.04544C13.0077 7.9706 13.1617 7.85805 13.2865 7.79581C13.4662 7.70617 13.5782 7.68264 13.8252 7.68264C14.1873 7.68272 14.5131 7.81731 14.7049 8.04544C14.7681 8.12093 15.0548 8.65205 15.3418 9.22619C15.6982 9.93907 15.8436 10.2029 15.9271 10.2738L22.9435 11.1517C22.9839 11.1567 23.0234 11.1651 23.0615 11.1758C23.0713 11.1023 23.0805 11.0282 23.089 10.9545C23.2603 9.46756 23.1698 7.96334 22.8221 6.51104C19.5516 6.50497 16.3785 5.38986 13.8227 3.34906Z" fill="#FBFBFB" fill-opacity="0.32"/>
<path d="M20.6945 19.0408C20.7133 19.0253 20.733 19.0082 20.7543 18.9926L20.8508 18.9277C20.7953 18.9621 20.7406 19.0029 20.6945 19.0408Z" fill="#FBFBFB" fill-opacity="0.32"/>
<path d="M21.0736 18.8178L20.948 18.8727C21.0058 18.8439 21.0572 18.8227 21.1077 18.8062C21.0965 18.8099 21.0849 18.8136 21.0736 18.8178Z" fill="#FBFBFB" fill-opacity="0.32"/>
<path d="M10.7515 17.5381L10.8313 17.1844C10.8371 17.1603 10.8428 17.1361 10.8487 17.112C10.814 17.2535 10.7819 17.3957 10.7515 17.5381Z" fill="#FBFBFB" fill-opacity="0.32"/>
<path d="M17.2798 14.9386L16.9955 15.0501C17.1575 14.9884 17.3183 14.9227 17.4777 14.8545C17.4119 14.8827 17.346 14.9115 17.2798 14.9386Z" fill="#FBFBFB" fill-opacity="0.32"/>
<path d="M19.4465 13.8003C19.3932 13.8351 19.339 13.8694 19.2852 13.9034C19.4257 13.8145 19.5654 13.7234 19.7026 13.6288L19.4465 13.8003Z" fill="#FBFBFB" fill-opacity="0.32"/>
<path fill-rule="evenodd" clip-rule="evenodd" d="M22.0493 12.6753C21.7272 12.3901 21.2432 12.3901 20.9211 12.6753C18.4352 14.8764 15.1908 16.0224 11.8752 15.8706C11.4834 15.8527 11.13 16.1049 11.0194 16.4815C10.4723 18.344 10.3049 20.2977 10.5272 22.2263C10.7494 24.1549 11.3568 26.0191 12.3131 27.7082C13.2695 29.3972 14.5553 30.8766 16.0942 32.0585C17.6332 33.2404 19.3938 34.1006 21.2714 34.588C21.4116 34.6244 21.5588 34.6244 21.699 34.588C23.5766 34.1006 25.3372 33.2404 26.8762 32.0585C28.4151 30.8766 29.7009 29.3972 30.6573 27.7082C31.6136 26.0191 32.221 24.1549 32.4432 22.2263C32.6655 20.2977 32.4981 18.344 31.951 16.4815C31.8404 16.1049 31.487 15.8527 31.0952 15.8706C27.7796 16.0224 24.5352 14.8764 22.0493 12.6753ZM12.2181 22.0314C12.0468 20.5445 12.1385 19.0404 12.4863 17.5881C15.7568 17.582 18.9294 16.4669 21.4852 14.4261C24.041 16.4669 27.2136 17.582 30.4841 17.5881C30.8319 19.0404 30.923 20.5441 30.7517 22.031C30.7432 22.1049 30.734 22.1787 30.7242 22.2524C30.6861 22.2416 30.6466 22.2336 30.6061 22.2285L23.5894 21.351C23.506 21.2802 23.3605 21.0163 23.0038 20.303C22.7166 19.7284 22.4301 19.197 22.3671 19.1222C22.1753 18.894 21.849 18.7596 21.4868 18.7596C21.2397 18.7596 21.1279 18.783 20.948 18.8727C20.8233 18.935 20.6704 19.0474 20.6075 19.1222C20.5446 19.197 20.2581 19.7284 19.9709 20.303C19.6224 21 19.4774 21.265 19.3931 21.3431C19.3687 21.3442 19.3441 21.3465 19.3195 21.3499L12.2946 22.3226C12.2817 22.3244 12.269 22.3261 12.2563 22.3285C12.2426 22.2297 12.2295 22.1306 12.2181 22.0314ZM21.4852 20.6232C21.5776 20.6232 21.662 20.6757 21.7029 20.7587L22.6453 22.6698L24.7525 22.9754C24.844 22.9887 24.92 23.0528 24.9485 23.1408C24.9771 23.2288 24.9532 23.3254 24.887 23.39L23.36 24.8775L23.7201 26.9781C23.7357 27.0693 23.6982 27.1615 23.6234 27.2158C23.5486 27.2702 23.4494 27.2773 23.3676 27.2341L21.4874 26.2425L19.6026 27.2342C19.5208 27.2773 19.4217 27.2701 19.3469 27.2157C19.2722 27.1614 19.2347 27.0693 19.2503 26.9781L19.6104 24.8775L18.0834 23.39C18.0172 23.3254 17.9933 23.2288 18.0219 23.1408C18.0504 23.0528 18.1265 22.9887 18.218 22.9754L20.3251 22.6698L21.2675 20.7587C21.3084 20.6757 21.3928 20.6232 21.4852 20.6232Z" fill="#FBFBFB" fill-opacity="0.32"/>
</svg>
