<svg width="8" height="8" viewBox="0 0 8 8" fill="none" xmlns="http://www.w3.org/2000/svg">
<g clip-path="url(#clip0_1262_30089)">
<path d="M4.25058 0.33814C4.20351 0.242759 4.10636 0.182373 4 0.182373C3.89364 0.182373 3.79649 0.242759 3.74942 0.33814L2.66469 2.53607L0.239362 2.88757C0.134045 2.90283 0.0465392 2.97659 0.0136706 3.0778C-0.0191979 3.17902 0.00827705 3.29012 0.0845333 3.36434L1.84206 5.07512L1.42765 7.49093C1.40967 7.59576 1.45276 7.70171 1.53881 7.76424C1.62487 7.82676 1.73895 7.835 1.8331 7.7855L4.00246 6.64493L6.16667 7.78538C6.26081 7.83499 6.37496 7.82682 6.46108 7.76431C6.5472 7.7018 6.59034 7.59581 6.57235 7.49093L6.15794 5.07512L7.91547 3.36434C7.99172 3.29012 8.0192 3.17902 7.98633 3.0778C7.95346 2.97659 7.86596 2.90283 7.76064 2.88757L5.33531 2.53607L4.25058 0.33814Z" fill="#FBFBFB"/>
</g>
<defs>
<clipPath id="clip0_1262_30089">
<rect width="8" height="8" fill="white"/>
</clipPath>
</defs>
</svg>
