<svg width="15" height="8" viewBox="0 0 15 8" fill="none" xmlns="http://www.w3.org/2000/svg">
<path d="M1.45427 7.88889L0 0.111111H1.93903L2.89752 5.9L6.27981 0.111111H8.28494L3.59161 7.88889H1.45427Z" fill="#FBFBFB"/>
<path d="M10.7533 8C10.0335 8 9.36147 7.86667 8.73716 7.6C8.11285 7.33333 7.57301 6.95185 7.11763 6.45556L8.32952 5.14444C8.74817 5.58148 9.16316 5.9037 9.57447 6.11111C9.99312 6.31111 10.4375 6.41111 10.9075 6.41111C11.1646 6.41111 11.385 6.38148 11.5686 6.32222C11.7522 6.25556 11.8917 6.16296 11.9872 6.04444C12.0901 5.91852 12.1415 5.77407 12.1415 5.61111C12.1415 5.44074 12.068 5.3 11.9211 5.18889C11.7816 5.07778 11.5429 4.97778 11.205 4.88889L9.5965 4.46667C9.06033 4.31852 8.65269 4.07778 8.37359 3.74444C8.09449 3.41111 7.95494 2.9963 7.95494 2.5C7.95494 1.98148 8.07613 1.53704 8.3185 1.16667C8.56823 0.796296 8.92078 0.511111 9.37616 0.311111C9.83153 0.103704 10.3714 0 10.9957 0C11.642 0 12.2627 0.118519 12.8576 0.355556C13.4599 0.592593 13.974 0.922222 14.4 1.34444L13.2322 2.67778C12.8576 2.30741 12.4757 2.03333 12.0864 1.85556C11.6971 1.67778 11.2785 1.58889 10.8304 1.58889C10.4926 1.58889 10.2245 1.65185 10.0262 1.77778C9.82786 1.8963 9.72871 2.06296 9.72871 2.27778C9.72871 2.44074 9.79114 2.57407 9.916 2.67778C10.0482 2.77407 10.2612 2.86296 10.555 2.94444L12.0644 3.31111C12.696 3.45926 13.1734 3.70741 13.4966 4.05556C13.8271 4.4037 13.9924 4.83333 13.9924 5.34444C13.9924 5.87778 13.8565 6.34444 13.5847 6.74444C13.3203 7.14444 12.9457 7.45556 12.461 7.67778C11.9762 7.89259 11.407 8 10.7533 8Z" fill="#FBFBFB"/>
</svg>
