<svg width="20" height="20" viewBox="0 0 20 20" fill="none" xmlns="http://www.w3.org/2000/svg">
<path fill-rule="evenodd" clip-rule="evenodd" d="M11.6776 0.263312C11.1708 0.0785045 10.5619 0 9.9931 0C9.42531 0 8.81786 0.0782289 8.3164 0.265523L8.31419 0.266352L3.7376 1.9906L3.73655 1.99099C3.02016 2.25916 2.41567 2.79403 1.99369 3.40262C1.57162 4.01136 1.28339 4.76418 1.28339 5.52586V12.3432C1.28339 13.0485 1.51064 13.8028 1.83825 14.4541C2.16601 15.1057 2.63641 15.7381 3.20215 16.1609L7.14569 19.1048L7.14708 19.1059C7.96207 19.718 9.00037 20 9.99998 20C10.9996 20 12.038 19.718 12.853 19.1058L12.8543 19.1048L16.7974 16.1612C17.3632 15.7384 17.8339 15.1057 18.1617 14.4541C18.4893 13.8028 18.7166 13.0485 18.7166 12.3432V5.52586C18.7166 4.76083 18.4292 4.00595 18.0068 3.39532C17.5844 2.78479 16.9793 2.24951 16.2624 1.98142L11.6844 0.265842L11.6776 0.263312ZM10 3.9668C10.2855 3.9668 10.5462 4.12887 10.6726 4.38488L11.8701 6.81139L14.5476 7.19944C14.8303 7.24041 15.0652 7.43838 15.1534 7.71004C15.2416 7.9817 15.1679 8.27989 14.9632 8.47912L13.0229 10.3679L13.4804 13.0348C13.5286 13.3163 13.4129 13.6008 13.1817 13.7686C12.9506 13.9364 12.6442 13.9583 12.3915 13.8251L10.0027 12.5664L7.6079 13.8255C7.35521 13.9583 7.04901 13.9362 6.81804 13.7684C6.58708 13.6006 6.47141 13.3162 6.51968 13.0348L6.97717 10.3679L5.03682 8.47912C4.83215 8.27989 4.75841 7.9817 4.84663 7.71004C4.93485 7.43838 5.16971 7.24041 5.45239 7.19944L8.12992 6.81139L9.32746 4.38488C9.45381 4.12887 9.71453 3.9668 10 3.9668Z" fill="#FBFBFB"/>
</svg>
