<svg width="24" height="24" viewBox="0 0 24 24" fill="none" xmlns="http://www.w3.org/2000/svg">
<path fill-rule="evenodd" clip-rule="evenodd" d="M16.8482 17.9574C15.2557 19.2991 13.1991 20.1076 10.9536 20.1076C5.89808 20.1076 1.79974 16.0093 1.79974 10.9537C1.79974 5.89814 5.89808 1.7998 10.9536 1.7998C16.0092 1.7998 20.1075 5.89814 20.1075 10.9537C20.1075 13.1989 19.2992 15.2552 17.9578 16.8477L21.9704 20.8604C22.2769 21.1668 22.2769 21.6636 21.9704 21.97C21.664 22.2764 21.1672 22.2764 20.8608 21.97L16.8482 17.9574ZM3.36898 10.9537C3.36898 6.76481 6.76475 3.36904 10.9536 3.36904C15.1425 3.36904 18.5383 6.76481 18.5383 10.9537C18.5383 13.0052 17.7238 14.8664 16.4006 16.2317C16.369 16.255 16.3387 16.2809 16.31 16.3096C16.2814 16.3382 16.2554 16.3686 16.2321 16.4002C14.8668 17.7237 13.0053 18.5383 10.9536 18.5383C6.76475 18.5383 3.36898 15.1426 3.36898 10.9537Z" fill="#FBFBFB"/>
</svg>
