<svg width="20" height="20" viewBox="0 0 20 20" fill="none" xmlns="http://www.w3.org/2000/svg">
<path d="M13.9556 3.00102C14.2828 2.99961 14.6088 3.03319 14.9281 3.10304L15.2456 3.18466L15.2486 3.18568C16.4023 3.53306 17.27 4.40448 17.931 5.57094C18.5886 6.73171 19.0809 8.24956 19.4674 10.0293L19.6077 10.7057C19.9141 12.2669 20.0719 13.7001 19.9682 14.8651C19.8583 16.1003 19.4213 17.2668 18.3126 17.7747L18.0812 17.8676C17.2968 18.14 16.5547 17.9647 15.9237 17.5911C15.3126 17.2292 14.7676 16.6627 14.2901 16.0567C13.8547 15.5042 13.409 15.172 12.7997 14.961C12.1578 14.7387 11.2954 14.6376 10.0002 14.6376C8.70536 14.6376 7.82777 14.7384 7.17163 14.962C6.54728 15.1749 6.09238 15.5089 5.6622 16.0557C5.18926 16.6549 4.65291 17.2271 4.04559 17.5911C3.41207 17.9707 2.66969 18.1398 1.87409 17.8594C0.664591 17.4321 0.184887 16.1676 0.0481524 14.8763C-0.0935482 13.5375 0.0850141 11.8473 0.484856 10.0272C0.87548 8.24993 1.36704 6.73246 2.02334 5.57196C2.68295 4.4057 3.54909 3.5333 4.70466 3.18568L4.71567 3.18262L5.0432 3.10202C5.37211 3.03298 5.7074 2.99953 6.04381 3.00102L6.04782 3L6.04682 3.00102C6.72983 3.00164 7.35462 3.21191 7.8988 3.3632C8.46931 3.52178 9.10888 3.6713 10.0002 3.6713C10.8912 3.67127 11.5294 3.52173 12.0996 3.3632C12.6438 3.21188 13.2687 3.00172 13.9526 3.00102H13.9556ZM6.03981 4.56705C5.73425 4.56544 5.42974 4.60617 5.13535 4.68947C4.48819 4.88584 3.89588 5.40076 3.35648 6.35446C2.81245 7.31653 2.36246 8.65842 1.98628 10.37C1.60326 12.1136 1.46164 13.6137 1.57762 14.709C1.69864 15.8512 2.05611 16.2656 2.3769 16.3791L2.48007 16.4087C2.72165 16.465 2.96759 16.4188 3.26534 16.2403C3.54009 16.0757 3.83181 15.8123 4.14375 15.4588L4.46226 15.0752C5.06205 14.3131 5.75713 13.7914 6.68384 13.4756C7.57931 13.1704 8.65646 13.0705 10.0002 13.0705C11.343 13.0705 12.4093 13.1702 13.2945 13.4766C14.2124 13.7944 14.8936 14.3183 15.49 15.0752C15.9191 15.6197 16.324 16.0154 16.697 16.2362C17.0499 16.4452 17.3261 16.4738 17.5844 16.3842L17.7347 16.3168C18.0766 16.1256 18.3504 15.6833 18.4358 14.7233C18.5322 13.6396 18.3524 12.151 17.965 10.368C17.5933 8.65642 17.1435 7.31475 16.5988 6.35344C16.0579 5.39894 15.4629 4.88427 14.8149 4.68845C14.5372 4.60599 14.2488 4.56558 13.9596 4.56705H13.9556C13.5329 4.56712 13.1674 4.69102 12.5052 4.87515C11.8679 5.05235 11.0823 5.23831 10.0002 5.23835C8.918 5.23835 8.13169 5.05237 7.49415 4.87515C6.83124 4.69089 6.46588 4.56705 6.04381 4.56705H6.03981Z" fill="#FBFBFB" fill-opacity="0.7"/>
<path d="M11.4834 9.99571C11.9386 9.99571 12.3076 9.61986 12.3076 9.15623C12.3076 8.69259 11.9386 8.31674 11.4834 8.31674C11.0282 8.31674 10.6592 8.69259 10.6592 9.15623C10.6592 9.61986 11.0282 9.99571 11.4834 9.99571Z" fill="#FBFBFB" fill-opacity="0.7"/>
<path d="M13.2966 11.8426C13.1335 11.8426 12.9741 11.7933 12.8385 11.701C12.7029 11.6086 12.5973 11.4774 12.535 11.3239C12.4726 11.1703 12.4564 11.0014 12.4884 10.8385C12.5204 10.6756 12.5991 10.5261 12.7145 10.4087C12.83 10.2914 12.9771 10.2116 13.1371 10.1795C13.2971 10.1473 13.4629 10.1643 13.6134 10.2281C13.764 10.292 13.8926 10.3999 13.9829 10.5382C14.0732 10.6766 14.1212 10.8391 14.1208 11.0052C14.1202 11.2275 14.0332 11.4405 13.8787 11.5974C13.7241 11.7544 13.5148 11.8426 13.2966 11.8426Z" fill="#FBFBFB" fill-opacity="0.7"/>
<path d="M13.2966 8.14885C13.7518 8.14885 14.1208 7.773 14.1208 7.30936C14.1208 6.84573 13.7518 6.46988 13.2966 6.46988C12.8414 6.46988 12.4724 6.84573 12.4724 7.30936C12.4724 7.773 12.8414 8.14885 13.2966 8.14885Z" fill="#FBFBFB" fill-opacity="0.7"/>
<path d="M15.1098 9.99571C15.565 9.99571 15.934 9.61986 15.934 9.15623C15.934 8.69259 15.565 8.31674 15.1098 8.31674C14.6546 8.31674 14.2856 8.69259 14.2856 9.15623C14.2856 9.61986 14.6546 9.99571 15.1098 9.99571Z" fill="#FBFBFB" fill-opacity="0.7"/>
<path d="M6.81305 8.3727V7.14146C6.81305 6.70874 6.46865 6.35794 6.04381 6.35794C5.61897 6.35794 5.27457 6.70874 5.27457 7.14146V8.3727H4.06578C3.64094 8.3727 3.29654 8.7235 3.29654 9.15623C3.29654 9.58896 3.64094 9.93975 4.06578 9.93975H5.27457V11.1713C5.27474 11.6039 5.61907 11.9548 6.04381 11.9548C6.46855 11.9548 6.81288 11.6039 6.81305 11.1713V9.93975H8.02215C8.44685 9.93958 8.79139 9.58885 8.79139 9.15623C8.79139 8.7236 8.44685 8.37287 8.02215 8.3727H6.81305Z" fill="#FBFBFB" fill-opacity="0.7"/>
</svg>
