<svg width="20" height="20" viewBox="0 0 20 20" fill="none" xmlns="http://www.w3.org/2000/svg">
<g filter="url(#filter0_i_618_15001)">
<path d="M10.0005 0L1 4.80022V15.1998L10.0005 20L19 15.1998V4.80022L10.0005 0ZM16.858 14.0429L10.029 17.6853L3.19901 14.0429V5.95805L10.029 2.31566L16.858 5.95805V14.0429Z" fill="#FBFBFB"/>
</g>
<path d="M13.9937 9.34959C13.9738 8.95632 13.8969 8.58078 13.774 8.23341C13.6248 7.81406 13.4087 7.43539 13.1384 7.11723C13.0489 7.01082 12.9531 6.91172 12.8518 6.81888C12.7614 6.73647 12.6665 6.65928 12.568 6.58939C12.1141 6.26601 11.5816 6.07928 11.0103 6.07928C10.7924 6.07928 10.58 6.1064 10.3765 6.15856L10.3105 6.17629L8.76009 6.58939H8.72573C8.63533 6.58939 8.55486 6.53514 8.51057 6.45273C8.51057 6.45273 8.51057 6.45273 8.51057 6.45169C8.50243 6.43708 8.4952 6.42144 8.48977 6.40475L8.38129 6.16065C8.38129 6.16065 8.37857 6.15439 8.37677 6.15126C8.33337 6.0605 8.2502 6 8.15346 6C8.13719 6 8.12092 6.00209 8.10555 6.00522L8.07481 6.0146L8.02238 6.03129L6.21517 6.59043L6 6.65719V14L6.60029 13.8143L8.02328 13.3751L9.89377 12.7972L10.2138 12.6981L10.9425 12.4739C10.9506 12.4707 10.9588 12.4686 10.9669 12.4666C10.9832 12.4624 11.0012 12.4613 11.0184 12.4613C11.1152 12.4613 11.1992 12.5239 11.2426 12.6157L11.2806 12.6992L11.3357 12.8233C11.3357 12.8233 11.3394 12.8306 11.3403 12.8337C11.3837 12.9245 11.4677 12.985 11.5636 12.985C11.578 12.985 11.5916 12.984 11.6052 12.9808C11.607 12.9808 11.6088 12.9808 11.6097 12.9798C11.6133 12.9798 11.616 12.9787 11.6196 12.9777C11.8655 12.9182 12.0997 12.8233 12.3203 12.6981C12.7244 12.4686 13.0779 12.1348 13.3545 11.728C13.387 11.68 13.4187 11.631 13.4485 11.582C13.6519 11.2481 13.8065 10.8726 13.8987 10.4668C13.9566 10.2175 13.9901 9.95775 13.9982 9.68862C14 9.64793 14 9.60621 14 9.56448C14 9.4925 13.9982 9.42052 13.9937 9.34959ZM11.6142 10.424C11.6061 10.4386 11.597 10.4522 11.5889 10.4668C11.3981 10.7683 11.1215 10.9926 10.7996 11.0854C10.7924 11.0875 10.7852 11.0896 10.7779 11.0917C10.777 11.0927 10.7752 11.0938 10.7734 11.0927H10.7716C10.7562 11.0958 10.74 11.0979 10.7237 11.0979C10.6396 11.0979 10.5646 11.051 10.5194 10.978L10.5257 10.9926C10.5212 10.9842 10.5167 10.9759 10.5121 10.9675C10.5103 10.9654 10.5085 10.9623 10.5076 10.9592C10.4606 10.8862 10.3865 10.8392 10.3015 10.8392C10.2852 10.8392 10.269 10.8413 10.2536 10.8444C10.2436 10.8465 10.2328 10.8497 10.2228 10.8538L9.84224 10.9717L8.46988 11.3963L8.02418 11.534V8.31164L8.24658 8.2428L8.27461 8.23445L8.97616 8.01747C8.98429 8.01434 8.99243 8.01226 9.00147 8.01017C9.01774 8.006 9.03492 8.00495 9.0521 8.00495C9.12985 8.00495 9.19946 8.0446 9.24647 8.10823C9.24647 8.10823 9.24647 8.10858 9.24647 8.10927C9.2528 8.11762 9.25822 8.12596 9.26274 8.13431C9.29981 8.18542 9.35134 8.22193 9.4101 8.23445C9.42547 8.23758 9.44084 8.23967 9.45802 8.23967C9.47519 8.23967 9.49056 8.23758 9.50593 8.23445C9.54571 8.2261 9.58187 8.20628 9.61261 8.17916C9.84767 7.97366 10.1397 7.85265 10.4552 7.85265C10.7987 7.85265 11.1133 7.99557 11.3583 8.23445C11.6377 8.50672 11.8257 8.90312 11.8583 9.35063C11.8619 9.39757 11.8637 9.44556 11.8637 9.49354C11.8637 9.83987 11.7715 10.1601 11.6151 10.424H11.6142Z" fill="#FBFBFB"/>
<defs>
<filter id="filter0_i_618_15001" x="1" y="0" width="18" height="20" filterUnits="userSpaceOnUse" color-interpolation-filters="sRGB">
<feFlood flood-opacity="0" result="BackgroundImageFix"/>
<feBlend mode="normal" in="SourceGraphic" in2="BackgroundImageFix" result="shape"/>
<feColorMatrix in="SourceAlpha" type="matrix" values="0 0 0 0 0 0 0 0 0 0 0 0 0 0 0 0 0 0 127 0" result="hardAlpha"/>
<feOffset/>
<feGaussianBlur stdDeviation="0.142857"/>
<feComposite in2="hardAlpha" operator="arithmetic" k2="-1" k3="1"/>
<feColorMatrix type="matrix" values="0 0 0 0 1 0 0 0 0 1 0 0 0 0 1 0 0 0 0.64 0"/>
<feBlend mode="normal" in2="shape" result="effect1_innerShadow_618_15001"/>
</filter>
</defs>
</svg>
