<svg width="20" height="20" viewBox="0 0 20 20" fill="none" xmlns="http://www.w3.org/2000/svg">
<path d="M4.7455 8.94574C4.74308 8.99027 4.74461 9.03563 4.75039 9.08141C4.80227 9.49237 5.17728 9.78203 5.588 9.72839L5.60004 9.72681C6.01075 9.67317 6.30164 9.29654 6.24976 8.88557L6.10759 7.75952C6.05571 7.34856 5.68069 7.05889 5.26998 7.11253C4.85926 7.16618 4.56838 7.54281 4.62026 7.95377L4.7455 8.94574Z" fill="#FBFBFB"/>
<path d="M6.52831 17.0793C6.1176 17.133 5.74259 16.8433 5.6907 16.4323L5.06767 11.4975C5.01578 11.0866 5.30667 10.7099 5.71739 10.6563C6.1281 10.6026 6.50311 10.8923 6.555 11.3033L7.17803 16.2381C7.22992 16.649 6.93903 17.0257 6.52831 17.0793Z" fill="#FBFBFB"/>
<path d="M8.43717 4.47697C8.8475 4.42031 9.22464 4.70719 9.27954 5.11775L9.44568 6.3601C9.50058 6.77066 9.21246 7.14942 8.80214 7.20608C8.39181 7.26274 8.01468 6.97585 7.95977 6.5653L7.79363 5.32294C7.73873 4.91239 8.02685 4.53363 8.43717 4.47697Z" fill="#FBFBFB"/>
<path d="M9.97695 16.6289C9.56623 16.6826 9.19122 16.3929 9.13934 15.9819L8.28633 9.22556C8.23444 8.8146 8.52533 8.43796 8.93605 8.38432C9.34676 8.33067 9.72177 8.62034 9.77366 9.0313L10.6267 15.7877C10.6785 16.1986 10.3877 16.5753 9.97695 16.6289Z" fill="#FBFBFB"/>
<path fill-rule="evenodd" clip-rule="evenodd" d="M3.04378 1.15609C1.675 1.34034 0.712239 2.61829 0.893386 4.01048L2.6864 17.7906C2.86754 19.1827 4.12401 20.162 5.49278 19.9777L13.9161 18.8439C15.2849 18.6597 16.2476 17.3817 16.0665 15.9895L14.2735 2.20945C14.0923 0.817256 12.8359 -0.161976 11.4671 0.0222701L3.04378 1.15609ZM2.54565 3.78808C2.48526 3.32402 2.80619 2.89803 3.26244 2.83662L11.6857 1.70279C12.142 1.64138 12.5608 1.96779 12.6212 2.43185L14.4142 16.2119C14.4746 16.676 14.1537 17.102 13.6974 17.1634L5.27412 18.2972C4.81786 18.3586 4.39904 18.0322 4.33866 17.5681L2.54565 3.78808Z" fill="#FBFBFB"/>
<path d="M16.3841 0.579593C15.9887 0.450688 15.5671 0.664988 15.4424 1.05824C15.3177 1.4515 15.5372 1.8748 15.9326 2.0037L17.452 2.49907C17.5686 2.53707 17.6415 2.65327 17.6245 2.7739L16.2407 12.6049C16.1831 13.0141 16.4692 13.3961 16.8798 13.4582C17.2903 13.5203 17.6699 13.239 17.7275 12.8298L19.1113 2.9988C19.2302 2.1544 18.7195 1.34098 17.9035 1.07496L16.3841 0.579593Z" fill="#FBFBFB"/>
</svg>
