<svg width="24" height="24" viewBox="0 0 24 24" fill="none" xmlns="http://www.w3.org/2000/svg">
<path d="M19.6923 3.53826H17.3846V2.76903C17.3846 2.56502 17.3036 2.36936 17.1593 2.2251C17.0151 2.08085 16.8194 1.9998 16.6154 1.9998C16.4114 1.9998 16.2157 2.08085 16.0715 2.2251C15.9272 2.36936 15.8461 2.56502 15.8461 2.76903V3.53826H8.15384V2.76903C8.15384 2.56502 8.0728 2.36936 7.92854 2.2251C7.78428 2.08085 7.58862 1.9998 7.38461 1.9998C7.1806 1.9998 6.98494 2.08085 6.84068 2.2251C6.69642 2.36936 6.61538 2.56502 6.61538 2.76903V3.53826H4.30769C3.89966 3.53826 3.50835 3.70035 3.21983 3.98887C2.93131 4.27739 2.76923 4.6687 2.76923 5.07672V20.4613C2.76923 20.8694 2.93131 21.2607 3.21983 21.5492C3.50835 21.8377 3.89966 21.9998 4.30769 21.9998H19.6923C20.1003 21.9998 20.4916 21.8377 20.7802 21.5492C21.0687 21.2607 21.2308 20.8694 21.2308 20.4613V5.07672C21.2308 4.6687 21.0687 4.27739 20.7802 3.98887C20.4916 3.70035 20.1003 3.53826 19.6923 3.53826ZM16.0058 13.3133L11.3904 17.9286C11.3189 18.0002 11.2341 18.0569 11.1407 18.0956C11.0473 18.1343 10.9472 18.1543 10.8461 18.1543C10.7451 18.1543 10.645 18.1343 10.5516 18.0956C10.4582 18.0569 10.3734 18.0002 10.3019 17.9286L7.99423 15.621C7.84989 15.4766 7.7688 15.2809 7.7688 15.0767C7.7688 14.8726 7.84989 14.6768 7.99423 14.5325C8.13856 14.3882 8.33433 14.3071 8.53846 14.3071C8.74258 14.3071 8.93835 14.3882 9.08269 14.5325L10.8461 16.2969L14.9173 12.2248C14.9888 12.1533 15.0736 12.0966 15.167 12.058C15.2604 12.0193 15.3605 11.9994 15.4615 11.9994C15.5626 11.9994 15.6627 12.0193 15.7561 12.058C15.8494 12.0966 15.9343 12.1533 16.0058 12.2248C16.0772 12.2963 16.1339 12.3811 16.1726 12.4745C16.2113 12.5679 16.2312 12.668 16.2312 12.769C16.2312 12.8701 16.2113 12.9702 16.1726 13.0636C16.1339 13.1569 16.0772 13.2418 16.0058 13.3133ZM4.30769 8.15365V5.07672H6.61538V5.84596C6.61538 6.04997 6.69642 6.24562 6.84068 6.38988C6.98494 6.53414 7.1806 6.61519 7.38461 6.61519C7.58862 6.61519 7.78428 6.53414 7.92854 6.38988C8.0728 6.24562 8.15384 6.04997 8.15384 5.84596V5.07672H15.8461V5.84596C15.8461 6.04997 15.9272 6.24562 16.0715 6.38988C16.2157 6.53414 16.4114 6.61519 16.6154 6.61519C16.8194 6.61519 17.0151 6.53414 17.1593 6.38988C17.3036 6.24562 17.3846 6.04997 17.3846 5.84596V5.07672H19.6923V8.15365H4.30769Z" fill="white"/>
</svg>
