<svg width="20" height="20" viewBox="0 0 20 20" fill="none" xmlns="http://www.w3.org/2000/svg">
<path d="M10 14.9998C12.7614 14.9998 15 12.7613 15 9.99985C15 7.23842 12.7614 4.99985 10 4.99985C7.23858 4.99985 5 7.23842 5 9.99985C5 12.7613 7.23858 14.9998 10 14.9998Z" fill="#FBFBFB"/>
<path fill-rule="evenodd" clip-rule="evenodd" d="M9.99996 0.916504C4.98337 0.916504 0.916626 4.98325 0.916626 9.99984C0.916626 15.0164 4.98337 19.0832 9.99996 19.0832C15.0165 19.0832 19.0833 15.0164 19.0833 9.99984C19.0833 4.98325 15.0165 0.916504 9.99996 0.916504ZM2.41663 9.99984C2.41663 5.81168 5.8118 2.4165 9.99996 2.4165C14.1881 2.4165 17.5833 5.81168 17.5833 9.99984C17.5833 14.188 14.1881 17.5832 9.99996 17.5832C5.8118 17.5832 2.41663 14.188 2.41663 9.99984Z" fill="#FBFBFB"/>
</svg>
