<svg width="24" height="24" viewBox="0 0 24 24" fill="none" xmlns="http://www.w3.org/2000/svg">
<path d="M19.9139 2.5H4.08059C3.66066 2.5 3.25793 2.66681 2.961 2.96375C2.66407 3.26068 2.49725 3.66341 2.49725 4.08333V19.9167C2.49725 20.3366 2.66407 20.7393 2.961 21.0363C3.25793 21.3332 3.66066 21.5 4.08059 21.5H19.9139C20.3338 21.5 20.7366 21.3332 21.0335 21.0363C21.3304 20.7393 21.4973 20.3366 21.4973 19.9167V4.08333C21.4973 3.66341 21.3304 3.26068 21.0335 2.96375C20.7366 2.66681 20.3338 2.5 19.9139 2.5ZM10.974 14.1434L7.80736 17.3101C7.73383 17.3837 7.64652 17.4421 7.55041 17.4819C7.45431 17.5218 7.35129 17.5423 7.24725 17.5423C7.14322 17.5423 7.0402 17.5218 6.94409 17.4819C6.84799 17.4421 6.76067 17.3837 6.68715 17.3101L5.10382 15.7268C4.95527 15.5782 4.87181 15.3767 4.87181 15.1667C4.87181 14.9566 4.95527 14.7551 5.10382 14.6066C5.25236 14.458 5.45384 14.3746 5.66392 14.3746C5.874 14.3746 6.07548 14.458 6.22402 14.6066L7.24725 15.6308L9.85382 13.0232C10.0024 12.8747 10.2038 12.7912 10.4139 12.7912C10.624 12.7912 10.8255 12.8747 10.974 13.0232C11.1226 13.1718 11.206 13.3733 11.206 13.5833C11.206 13.7934 11.1226 13.9949 10.974 14.1434ZM10.974 7.8101L7.80736 10.9768C7.73383 11.0504 7.64652 11.1088 7.55041 11.1486C7.45431 11.1884 7.35129 11.209 7.24725 11.209C7.14322 11.209 7.0402 11.1884 6.94409 11.1486C6.84799 11.1088 6.76067 11.0504 6.68715 10.9768L5.10382 9.39344C5.03026 9.31988 4.97192 9.23256 4.93211 9.13646C4.8923 9.04036 4.87181 8.93735 4.87181 8.83333C4.87181 8.62325 4.95527 8.42178 5.10382 8.27323C5.25236 8.12468 5.45384 8.04123 5.66392 8.04123C5.874 8.04123 6.07548 8.12468 6.22402 8.27323L7.24725 9.29745L9.85382 6.6899C10.0024 6.54135 10.2038 6.45789 10.4139 6.45789C10.624 6.45789 10.8255 6.54135 10.974 6.6899C11.1226 6.83844 11.206 7.03992 11.206 7.25C11.206 7.46008 11.1226 7.66156 10.974 7.8101ZM18.3306 15.9583H13.5806C13.3706 15.9583 13.1693 15.8749 13.0208 15.7265C12.8723 15.578 12.7889 15.3766 12.7889 15.1667C12.7889 14.9567 12.8723 14.7553 13.0208 14.6069C13.1693 14.4584 13.3706 14.375 13.5806 14.375H18.3306C18.5406 14.375 18.7419 14.4584 18.8904 14.6069C19.0388 14.7553 19.1223 14.9567 19.1223 15.1667C19.1223 15.3766 19.0388 15.578 18.8904 15.7265C18.7419 15.8749 18.5406 15.9583 18.3306 15.9583ZM18.3306 9.625H13.5806C13.3706 9.625 13.1693 9.54159 13.0208 9.39313C12.8723 9.24466 12.7889 9.0433 12.7889 8.83333C12.7889 8.62337 12.8723 8.42201 13.0208 8.27354C13.1693 8.12507 13.3706 8.04167 13.5806 8.04167H18.3306C18.5406 8.04167 18.7419 8.12507 18.8904 8.27354C19.0388 8.42201 19.1223 8.62337 19.1223 8.83333C19.1223 9.0433 19.0388 9.24466 18.8904 9.39313C18.7419 9.54159 18.5406 9.625 18.3306 9.625Z" fill="var(--ds-fill-primary, #FBFBFB)"/>
</svg>
