<svg width="20" height="20" viewBox="0 0 20 20" fill="none" xmlns="http://www.w3.org/2000/svg">
<g clip-path="url(#clip0_500_13138)">
<path d="M3 1H17C18.1046 1 19 1.89543 19 3V13.1455C19 13.903 18.572 14.5958 17.8945 14.9346L10.8945 18.4346C10.3315 18.7161 9.66852 18.7161 9.10547 18.4346L2.10547 14.9346C1.42799 14.5958 1 13.903 1 13.1455V3C1 1.89543 1.89543 1 3 1Z" stroke="#FBFBFB" stroke-width="2"/>
<path fill-rule="evenodd" clip-rule="evenodd" d="M8.01842 4C8.15686 4 8.2785 4.06083 8.36408 4.15376L8.38071 4.17278L8.39835 4.19401L8.42976 4.2619C8.43568 4.27176 8.44164 4.28216 8.44725 4.29323C8.45036 4.2991 8.45257 4.30354 8.45318 4.30483C8.45423 4.30703 8.4551 4.30895 8.45574 4.31035L8.5721 4.56028L8.57691 4.57064L8.58059 4.58147C8.58095 4.58253 8.5822 4.58566 8.58535 4.59106L8.59287 4.60399C8.6061 4.62162 8.6228 4.62791 8.63542 4.62791H8.64627L10.2834 4.21133L10.3537 4.19329L10.3548 4.19298L10.3559 4.19272C10.5904 4.13531 10.8348 4.10556 11.0849 4.10556C11.7419 4.10556 12.3533 4.31085 12.8723 4.66404C12.9712 4.73106 13.0665 4.80387 13.1576 4.88094L13.1964 4.91424L13.1969 4.91465C13.3115 5.01503 13.4205 5.12268 13.5227 5.2386C13.8209 5.5739 14.0602 5.96975 14.2283 6.40597L14.2443 6.44834L14.2444 6.44865C14.3832 6.82322 14.47 7.22788 14.4927 7.65133C14.4979 7.72962 14.5 7.80816 14.5 7.88554C14.5 7.92738 14.5001 7.97511 14.4979 8.02255C14.4885 8.31083 14.4508 8.58999 14.3856 8.85869L14.3856 8.85874C14.2812 9.29759 14.106 9.70398 13.8754 10.0654L13.8755 10.0655C13.8415 10.1188 13.8056 10.172 13.7688 10.2239L13.7686 10.2241C13.4545 10.6653 13.0517 11.0292 12.5888 11.2803C12.3376 11.4164 12.0701 11.5203 11.7885 11.5856C11.7865 11.5862 11.7841 11.5869 11.7813 11.5876C11.778 11.5884 11.7743 11.5892 11.7701 11.59C11.7641 11.5913 11.7593 11.5921 11.7559 11.5926C11.7552 11.5927 11.7545 11.5928 11.7539 11.5928C11.7255 11.598 11.6998 11.5993 11.6782 11.5993C11.4878 11.5993 11.3298 11.4844 11.2517 11.3284L11.2437 11.3123L11.2426 11.3089L11.185 11.1851L11.1463 11.1038C11.1419 11.0949 11.1363 11.0873 11.1303 11.081L11.1056 11.0554L11.0982 11.0395C11.098 11.0394 11.0978 11.0394 11.0976 11.0394L11.0903 11.0387C11.0876 11.0387 11.0854 11.0387 11.0836 11.0388C11.0823 11.0388 11.0813 11.0389 11.0806 11.039L11.0783 11.0396L11.0741 11.0411L11.0675 11.0431L10.2864 11.2726L8.08932 11.9209V13.24L5.5 14V4.726L7.81731 4.04108L7.87357 4.02397L7.8748 4.02361L7.87598 4.02325L7.90892 4.01366L7.91807 4.01098L7.92738 4.00917C7.95322 4.00415 7.98436 4 8.01842 4ZM10.4897 6.13263C10.1514 6.13264 9.83834 6.25657 9.58632 6.467C9.55336 6.49476 9.51459 6.51505 9.47195 6.52359C9.45548 6.5268 9.439 6.52895 9.4206 6.52895C9.40218 6.52895 9.38567 6.5268 9.36919 6.52359C9.30619 6.51077 9.25094 6.47336 9.2112 6.42102C9.20635 6.41248 9.20053 6.40394 9.19375 6.3954V6.39432C9.18411 6.38185 9.17356 6.37029 9.16225 6.35974L9.14562 6.32386C9.0999 6.28626 9.04331 6.26422 8.98195 6.26422C8.96354 6.26423 8.94513 6.26526 8.92768 6.26953C8.91799 6.27167 8.90925 6.2738 8.90052 6.27701L8.14834 6.49921L8.11827 6.50777L7.87981 6.57828V9.87792L10.2372 9.18146C10.2479 9.17719 10.2596 9.17401 10.2702 9.17187C10.2867 9.16867 10.3041 9.16651 10.3216 9.16651C10.3933 9.16651 10.4577 9.19635 10.5065 9.24548L10.526 9.28749C10.533 9.29581 10.5398 9.30453 10.546 9.31372C10.5469 9.31693 10.5489 9.32014 10.5508 9.32228C10.5557 9.33082 10.5605 9.33936 10.5653 9.3479L10.5586 9.33295C10.6071 9.40772 10.6875 9.45583 10.7777 9.45583C10.7951 9.45583 10.8125 9.45367 10.829 9.45047H10.831C10.8329 9.45154 10.8348 9.45045 10.8358 9.44939C10.8436 9.44725 10.8513 9.44513 10.8591 9.44299C11.2042 9.34792 11.5007 9.11823 11.7053 8.80952C11.714 8.79457 11.7237 8.78071 11.7324 8.76576H11.7334C11.9011 8.4955 12 8.16756 12 7.81292C12 7.76378 11.998 7.71465 11.9942 7.66658C11.9593 7.20833 11.7576 6.80239 11.4581 6.52359C11.1954 6.27898 10.8581 6.13263 10.4897 6.13263Z" fill="#FBFBFB"/>
</g>
<defs>
<clipPath id="clip0_500_13138">
<rect width="20" height="20" fill="white"/>
</clipPath>
</defs>
</svg>
