<svg width="24" height="24" viewBox="0 0 24 24" fill="none" xmlns="http://www.w3.org/2000/svg">
<path d="M20.4615 7.60101H17.0885C17.126 7.56801 17.1644 7.53601 17.201 7.50101C17.493 7.23121 17.7283 6.90164 17.8923 6.53293C18.0563 6.16422 18.1453 5.76429 18.1538 5.35816C18.1665 4.91387 18.0917 4.47157 17.934 4.05844C17.7763 3.6453 17.5391 3.27004 17.2369 2.95569C16.9347 2.64135 16.5739 2.39454 16.1767 2.23044C15.7795 2.06634 15.3542 1.98839 14.9269 2.0014C14.5362 2.01015 14.1515 2.10267 13.7967 2.27318C13.442 2.44369 13.1249 2.68852 12.8654 2.99233C12.5062 3.42519 12.2143 3.9137 12 4.44023C11.7857 3.9137 11.4938 3.42519 11.1346 2.99233C10.8751 2.68852 10.558 2.44369 10.2033 2.27318C9.84854 2.10267 9.46378 2.01015 9.07308 2.0014C8.64584 1.98839 8.22055 2.06634 7.82332 2.23044C7.4261 2.39454 7.06531 2.64135 6.76312 2.95569C6.46094 3.27004 6.22372 3.6453 6.06603 4.05844C5.90835 4.47157 5.83352 4.91387 5.84615 5.35816C5.8547 5.76429 5.94374 6.16422 6.1077 6.53293C6.27166 6.90164 6.50701 7.23121 6.79904 7.50101C6.83558 7.53401 6.87404 7.56601 6.91154 7.60101H3.53846C3.13044 7.60101 2.73912 7.76956 2.4506 8.0696C2.16209 8.36964 2 8.77658 2 9.20089V12.4007C2 12.825 2.16209 13.2319 2.4506 13.532C2.73912 13.832 3.13044 14.0006 3.53846 14.0006V20.4001C3.53846 20.8244 3.70055 21.2314 3.98907 21.5314C4.27758 21.8314 4.6689 22 5.07692 22H10.8462C10.9482 22 11.046 21.9579 11.1181 21.8829C11.1902 21.8078 11.2308 21.7061 11.2308 21.6V12.4007H3.53846V9.20089H11.2308V12.4007H12.7692V9.20089H20.4615V12.4007H12.7692V21.6C12.7692 21.7061 12.8098 21.8078 12.8819 21.8829C12.954 21.9579 13.0518 22 13.1538 22H18.9231C19.3311 22 19.7224 21.8314 20.0109 21.5314C20.2995 21.2314 20.4615 20.8244 20.4615 20.4001V14.0006C20.8696 14.0006 21.2609 13.832 21.5494 13.532C21.8379 13.2319 22 12.825 22 12.4007V9.20089C22 8.77658 21.8379 8.36964 21.5494 8.0696C21.2609 7.76956 20.8696 7.60101 20.4615 7.60101ZM7.81827 6.3011C7.68377 6.17444 7.5759 6.02023 7.50144 5.84815C7.42698 5.67608 7.38753 5.48985 7.38558 5.30117C7.38071 5.08008 7.41833 4.86022 7.49622 4.65444C7.57411 4.44867 7.69071 4.26114 7.83918 4.10282C7.98765 3.94451 8.16502 3.81861 8.36088 3.73248C8.55674 3.64636 8.76716 3.60176 8.97981 3.60128H9.02692C9.20836 3.60332 9.38744 3.64434 9.55291 3.72178C9.71838 3.79921 9.86667 3.91138 9.98846 4.05125C10.7952 4.99919 11.0798 6.57108 11.1798 7.54301C10.2413 7.44002 8.73077 7.14404 7.81827 6.3011ZM16.1837 6.3011C15.2712 7.14104 13.7567 7.43702 12.8183 7.54101C12.9327 6.49008 13.25 4.95119 14.0192 4.05225C14.141 3.91238 14.2893 3.80021 14.4548 3.72278C14.6203 3.64534 14.7993 3.60432 14.9808 3.60228H15.0279C15.2405 3.60367 15.4508 3.64918 15.6463 3.73615C15.8419 3.82312 16.0187 3.9498 16.1666 4.10876C16.3144 4.26773 16.4303 4.45579 16.5074 4.66191C16.5844 4.86804 16.6211 5.08809 16.6154 5.30917C16.6123 5.49657 16.5721 5.68131 16.4976 5.85193C16.423 6.02256 16.3155 6.17544 16.1817 6.3011H16.1837Z" fill="white"/>
</svg>
